<?xml version="1.0" encoding="UTF-8"?>
<svg width="16px" height="16px" viewBox="0 0 16 16" version="1.1" xmlns="http://www.w3.org/2000/svg" xmlns:xlink="http://www.w3.org/1999/xlink">
    <!-- Generator: Sketch 53.2 (72643) - https://sketchapp.com -->
    <title>添加 (1)</title>
    <desc>Created with Sketch.</desc>
    <g id="Page-1" stroke="none" stroke-width="1" fill="none" fill-rule="evenodd">
        <g id="预算科目管理-调整-" transform="translate(-1370.000000, -281.000000)">
            <rect fill="#F7F7F7" x="0" y="0" width="1440" height="900"></rect>
            <g id="分组-2" transform="translate(259.000000, 98.000000)">
                <path d="M3.8458278,0.5 C2.70208522,0.5 2.24379883,0.588499184 1.77053087,0.841605655 C1.36877622,1.05646639 1.05646639,1.36877622 0.841605655,1.77053087 C0.588499184,2.24379883 0.5,2.70208522 0.5,3.8458278 L0.5,739.154172 C0.5,740.297915 0.588499184,740.756201 0.841605655,741.229469 C1.05646639,741.631224 1.36877622,741.943534 1.77053087,742.158394 C2.24379883,742.411501 2.70208522,742.5 3.8458278,742.5 L1153.15417,742.5 C1154.29791,742.5 1154.7562,742.411501 1155.22947,742.158394 C1155.63122,741.943534 1155.94353,741.631224 1156.15839,741.229469 C1156.4115,740.756201 1156.5,740.297915 1156.5,739.154172 L1156.5,3.8458278 C1156.5,2.70208522 1156.4115,2.24379883 1156.15839,1.77053087 C1155.94353,1.36877622 1155.63122,1.05646639 1155.22947,0.841605655 C1154.7562,0.588499184 1154.29791,0.5 1153.15417,0.5 L3.8458278,0.5 Z" id="矩形" stroke="#E3E2E2" fill="#FFFFFF"></path>
                <g id="分组-copy" transform="translate(0.000000, 168.000000)">
                    <rect id="矩形" stroke="#E6E6E6" x="0.5" y="0.5" width="1156" height="45"></rect>
                    <g id="分组-7" transform="translate(1111.000000, 15.000000)" fill="#5E0EFF" fill-rule="nonzero">
                        <g id="添加-(1)-copy-2">
                            <path d="M2,1 C1.44771525,1 1,1.44771525 1,2 L1,14 C1,14.5522847 1.44771525,15 2,15 L14,15 C14.5522847,15 15,14.5522847 15,14 L15,2 C15,1.44771525 14.5522847,1 14,1 L2,1 Z M2,0 L14,0 C15.1045695,6.76353751e-17 16,0.8954305 16,2 L16,14 C16,15.1045695 15.1045695,16 14,16 L2,16 C0.8954305,16 1.3527075e-16,15.1045695 0,14 L0,2 C-1.3527075e-16,0.8954305 0.8954305,2.02906125e-16 2,0 Z" id="形状"></path>
                            <path d="M11.3333333,7.44444444 C11.6401582,7.44444444 11.8888889,7.69317514 11.8888889,8 C11.8888889,8.30682486 11.6401582,8.55555556 11.3333333,8.55555556 L4.66666667,8.55555556 C4.35984181,8.55555556 4.11111111,8.30682486 4.11111111,8 C4.11111111,7.69317514 4.35984181,7.44444444 4.66666667,7.44444444 L11.3333333,7.44444444 Z" id="路径"></path>
                            <path d="M8.55555556,11.3333333 C8.55555556,11.6401582 8.30682486,11.8888889 8,11.8888889 C7.69317514,11.8888889 7.44444444,11.6401582 7.44444444,11.3333333 L7.44444444,4.66666667 C7.44444444,4.35984181 7.69317514,4.11111111 8,4.11111111 C8.30682486,4.11111111 8.55555556,4.35984181 8.55555556,4.66666667 L8.55555556,11.3333333 Z" id="路径"></path>
                        </g>
                    </g>
                </g>
                <g id="分组-copy-3" transform="translate(0.000000, 181.000000)"></g>
            </g>
        </g>
    </g>
</svg>