<?xml version="1.0" encoding="UTF-8"?>
<svg width="600px" height="120px" viewBox="0 0 600 120" version="1.1" xmlns="http://www.w3.org/2000/svg" xmlns:xlink="http://www.w3.org/1999/xlink">
    <!-- Generator: Sketch 53.2 (72643) - https://sketchapp.com -->
    <title>分组 3</title>
    <desc>Created with Sketch.</desc>
    <g id="Page-1" stroke="none" stroke-width="1" fill="none" fill-rule="evenodd">
        <g id="logo切换" transform="translate(-488.000000, -298.000000)">
            <g id="分组-3" transform="translate(488.000000, 298.000000)">
                <g id="分组-19">
                    <g id="分组-7">
                        <path d="M0,3.99261475 C0,1.78755451 1.78833856,0 3.99010666,0 L596.009893,0 C598.213568,0 600,1.78946078 600,3.99261475 L600,120 L0,120 L0,3.99261475 Z" id="hero_Bg" fill="#5E0EFF"></path>
                        <g id="分组-5" transform="translate(575.403458, 25.097908) rotate(-315.000000) translate(-575.403458, -25.097908) translate(565.403458, 14.597908)"></g>
                        <g id="pyramid" opacity="0.300199963" transform="translate(401.000000, 79.000000)">
                            <polygon id="Triangle-1-Copy-4" fill="#7C3EF7" points="62.5545912 0.852112676 105 40.8521127 23 40.8521127"></polygon>
                            <polygon id="Triangle-1-Copy-6" fill="#935FFD" points="63 0.852112676 22.8402993 40.8521127 0 40.8521108"></polygon>
                        </g>
                        <g id="pyramid" opacity="0.300199963" transform="translate(165.000000, 79.000000)">
                            <polygon id="Triangle-1-Copy-4" fill="#7C3EF7" points="63.0369642 0.857142857 106 40.8571429 23 40.8571429"></polygon>
                            <polygon id="Triangle-1-Copy-6" fill="#935FFD" points="63 0.857142857 22.8402993 40.8571429 0 40.857141"></polygon>
                        </g>
                        <g id="pyramid" opacity="0.300199963" transform="translate(43.000000, 85.000000)">
                            <polygon id="Triangle-1-Copy-4" fill="#7C3EF7" points="36.153907 0 61 35 13 35"></polygon>
                            <polygon id="Triangle-1-Copy-6" fill="#935FFD" points="36 0 13.0515996 35 0 34.9999984"></polygon>
                        </g>
                        <path d="M380.730681,111.829623 C381.291572,111.197557 381.174392,110.018172 382.344281,110.011295 C383.514169,110.004418 384.889863,112.529447 385.497951,113.111959 C385.764521,113.367415 385.82772,113.589295 385.611992,113.891271 C385.450551,114.116995 385.260954,115.453537 385.175271,115.347552 C385.07075,115.43857 384.924906,115.508956 384.867986,115.623639 C384.140185,117.084976 383.411371,118.546313 382.715777,120.023022 C382.518686,120.4415 382.269536,120.561239 381.723027,120.370507 C382.642045,120.070958 382.435433,119.38064 382.4407,118.771632 C382.447992,117.951867 382.442523,117.1319 382.442523,116.285639 L378.834306,116.285639 L378.834306,120.427949 L377.852494,120.427949 C378.560849,120.118489 378.305825,119.623556 378.152689,119.14177 C377.790713,118.003848 377.42185,116.867545 377.091473,115.720319 C376.987964,115.360497 376.821459,115.178462 376.44895,115.146909 C375.341347,115.053464 374.657502,114.201338 373.826192,113.626511 C373.662118,113.513043 373.660497,113.138051 373.62039,112.878145 C373.488928,112.026828 372.968144,111.548075 372.120427,111.520163 C371.825498,111.510455 371.52976,111.505398 371.236451,111.476475 C371.154819,111.468384 371.028827,111.394154 371.014647,111.330038 C370.98953,111.216569 370.992366,111.016735 371.057793,110.977699 C371.321932,110.820744 371.60653,110.68624 371.899433,110.594009 C372.068166,110.540814 372.271942,110.609988 372.452019,110.578435 C372.769634,110.523015 373.081173,110.432807 373.532479,110.32399 C373.85455,110.625966 374.381209,110.997318 374.738526,111.490835 C375.072954,111.953002 375.228116,112.544616 375.479494,113.118836 C376.596617,112.123913 377.901031,109.887437 378.975694,110.004418 C380.050357,110.121398 380.108211,111.182185 380.730681,111.829623 Z" id="camel" fill="#AAABF3" opacity="0.300199963"></path>
                        <path d="M551.923853,103.944776 C550.15368,105.700374 549.166601,107.697956 548.682917,110.061262 C547.150519,107.333849 547.263462,103.739622 550.851988,103.222053 C549.692522,103.166807 548.527424,103.124807 547.412072,103.567422 C546.312049,104.003899 545.230173,104.489806 544,105.013513 C544.935457,103.150007 545.723556,101.266147 547.742141,100.465241 C548.903484,100.004533 549.938119,100.477841 550.863877,101.220594 C551.294062,101.565639 551.698592,101.944285 552.172891,102.358793 C551.026878,100.398041 549.352441,99.2398111 547.352628,98.4418119 C548.901607,97.9943508 550.43025,97.7190895 551.919786,98.4589349 C552.854304,98.923196 553.210028,99.8210259 553.24194,100.855517 C553.253516,101.229317 553.212531,101.605055 553.188441,102.145562 C553.494733,101.935885 553.712172,101.782101 553.934304,101.63607 C556.109006,100.206456 558.170766,100.673302 559.442237,102.988146 C560.023222,104.045575 560.404913,105.220282 560.776593,106.436665 C559.042087,105.019974 557.207152,103.903422 555.001475,103.420422 C556.344591,103.951883 557.123305,104.892359 557.163351,106.378511 C557.199643,107.710233 556.963432,108.970555 556.246353,110.139123 C555.95633,107.967725 555.105658,106.119081 553.526957,104.67299 C553.368024,104.527283 553.05829,104.557652 552.780156,104.498206 C551.794015,109.512031 551.418268,114.456073 552.480747,119.552929 C551.691397,119.552929 550.943657,119.594606 550.206554,119.520621 C550.042927,119.504144 549.787319,119.073806 549.795766,118.84313 C549.879613,116.56124 549.95689,114.276765 550.142105,112.002306 C550.352348,109.419308 550.941154,106.91288 551.868164,104.496913 C551.9104,104.387067 551.89507,104.25396 551.923853,103.944776" id="palm_tree" fill="#AAABF3" opacity="0.300199963"></path>
                    </g>
                </g>
            </g>
        </g>
    </g>
</svg>