<?xml version="1.0" encoding="UTF-8"?>
<svg width="25px" height="21px" viewBox="0 0 25 21" version="1.1" xmlns="http://www.w3.org/2000/svg" xmlns:xlink="http://www.w3.org/1999/xlink">
    <!-- Generator: Sketch 53.2 (72643) - https://sketchapp.com -->
    <title>项目</title>
    <desc>Created with Sketch.</desc>
    <g id="Page-1" stroke="none" stroke-width="1" fill="none" fill-rule="evenodd">
        <g id="菜单结构" transform="translate(-51.000000, -120.000000)" fill="#5E0EFF" fill-rule="nonzero">
            <g id="菜单">
                <g id="总" transform="translate(0.000000, 99.000000)">
                    <g id="分组-60" transform="translate(51.000000, 21.000000)">
                        <g id="项目" transform="translate(0.000000, 0.000000)">
                            <path d="M24.4889715,9.43634602 L21.1885441,7.5322533 L24.3620319,5.73923265 C24.6106037,5.59836056 24.7642305,5.33471367 24.7642305,5.04899904 C24.7642305,4.76328441 24.6106037,4.49963752 24.3620319,4.35876543 L17.2058168,0.233231204 C16.9603467,0.0915089517 16.657915,0.0915089517 16.4124448,0.233231204 L12.445585,2.47054015 L8.35178566,0.106291689 C8.10631552,-0.035430563 7.80388383,-0.035430563 7.55841369,0.106291689 L0.402198553,4.23182592 C0.153626823,4.37269801 -8.80819824e-17,4.63634489 0,4.92205953 C8.80819824e-17,5.20777416 0.153626823,5.47142105 0.402198553,5.61229314 L3.71849337,7.51638586 L0.545005507,9.3094065 C0.296433777,9.45027859 0.142806954,9.71392548 0.142806954,9.99964011 C0.142806954,10.2853547 0.296433777,10.5490016 0.545005507,10.6898737 L4.51186534,12.9271827 L4.51186534,15.7674543 C4.5135659,16.0491895 4.66455411,16.3088892 4.90855132,16.4497542 L12.048899,20.5752884 C12.2943692,20.7170107 12.5968008,20.7170107 12.842271,20.5752884 L19.9826187,16.4497542 C20.3638242,16.2306706 20.4952499,15.7440401 20.2761663,15.3628346 C20.0570827,14.9816291 19.5704522,14.8502034 19.1892467,15.069287 L12.445585,18.9885445 L6.09860927,15.323166 L6.09860927,13.8474942 L7.68535321,14.815408 C7.93082335,14.9571302 8.23325503,14.9571302 8.47872517,14.815408 L12.445585,12.5622316 L16.5711192,14.9423475 C16.8165894,15.0840697 17.1190211,15.0840697 17.3644912,14.9423475 L19.9984861,13.3556035 L24.4889715,10.737476 C24.7375432,10.596604 24.89117,10.3329571 24.89117,10.0472424 C24.89117,9.7615278 24.7375432,9.49788091 24.4889715,9.35700882 L24.4889715,9.43634602 Z M12.445585,4.31116311 L17.9991888,7.48465098 L12.445585,10.737476 L6.89198124,7.56398818 L9.27209714,6.16765351 L12.445585,4.31116311 Z M16.7297936,1.83584258 L22.2833974,5.00933044 L19.5859327,6.59607438 L14.0323289,3.39085163 L16.7297936,1.83584258 Z M7.95509968,1.70890306 L10.8588411,3.39085163 L8.58979725,4.7078491 L5.30523731,6.59607438 L2.38562847,4.91412581 L7.95509968,1.70890306 Z M2.59190518,9.99170639 L5.28936987,8.40496246 L7.68535321,9.86476688 L10.8588411,11.6419201 L8.16137639,13.228664 L2.59190518,9.99170639 Z M16.9519378,13.3397361 L14.0323289,11.6419201 L17.1106122,9.86476688 L19.5859327,8.43669734 L22.4896741,10.1186459 L16.9519378,13.3397361 Z" id="形状"></path>
                        </g>
                    </g>
                </g>
            </g>
        </g>
    </g>
</svg>