<?xml version="1.0" encoding="UTF-8"?>
<svg width="80px" height="80px" viewBox="0 0 80 80" version="1.1" xmlns="http://www.w3.org/2000/svg" xmlns:xlink="http://www.w3.org/1999/xlink">
    <!-- Generator: Sketch 53.2 (72643) - https://sketchapp.com -->
    <title>提示</title>
    <desc>Created with Sketch.</desc>
    <g id="Page-1" stroke="none" stroke-width="1" fill="none" fill-rule="evenodd">
        <g id="未开通提示" transform="translate(-680.000000, -403.000000)" fill="#F5A623" fill-rule="nonzero">
            <g id="分组-4" transform="translate(495.000000, 363.000000)">
                <g id="Rectangle-3">
                    <g id="Rectangle-13">
                        <g id="分组-2" transform="translate(185.000000, 40.000000)">
                            <g id="提示">
                                <path d="M40,0 C17.92,0 0,17.92 0,40 C0,62.08 17.92,80 40,80 C62.08,80 80,62.08 80,40 C80,17.92 62.08,0 40,0 Z M40,74.32 C21.08,74.32 5.68,58.92 5.68,40 C5.68,21.08 21.08,5.68 40,5.68 C58.92,5.68 74.32,21.08 74.32,40 C74.32,58.92 58.92,74.32 40,74.32 Z" id="形状"></path>
                                <path d="M40,46.32 C38.64,46.32 37.52,45.28 37.4,43.92 L35.88,25.12 C35.76,23.6 36.96,22.32 38.48,22.32 L41.48,22.32 C43,22.32 44.2,23.6 44.08,25.12 L42.56,43.92 C42.48,45.28 41.36,46.32 40,46.32 L40,46.32 Z" id="路径"></path>
                                <path d="M35.68,53.36 C35.68,55.7458701 37.6141299,57.68 40,57.68 C42.3858701,57.68 44.32,55.7458701 44.32,53.36 C44.32,50.9741299 42.3858701,49.04 40,49.04 C37.6141299,49.04 35.68,50.9741299 35.68,53.36 L35.68,53.36 Z" id="路径"></path>
                            </g>
                        </g>
                    </g>
                </g>
            </g>
        </g>
    </g>
</svg>