<?xml version="1.0" encoding="UTF-8"?>
<svg width="20px" height="20px" viewBox="0 0 20 20" version="1.1" xmlns="http://www.w3.org/2000/svg" xmlns:xlink="http://www.w3.org/1999/xlink">
    <!-- Generator: Sketch 53.2 (72643) - https://sketchapp.com -->
    <title>入口</title>
    <desc>Created with Sketch.</desc>
    <g id="Page-1" stroke="none" stroke-width="1" fill="none" fill-rule="evenodd">
        <g id="首页" transform="translate(-990.000000, -139.000000)">
            <g id="分组-44" transform="translate(990.000000, 139.000000)">
                <g id="分组-42">
                    <circle id="椭圆形" fill="#333333" cx="10" cy="10" r="10"></circle>
                    <g id="icon_入口" transform="translate(5.000000, 5.000000)" fill="#FFFFFF" fill-rule="nonzero">
                        <path d="M1.59855769,3.19839994 L0.925480769,3.19839994 L0.925480769,1.59311148 C0.925480769,1.0355163 1.37750097,0.583496094 1.93509615,0.583496094 L8.32932692,0.583496094 C8.8869221,0.583496094 9.33894231,1.0355163 9.33894231,1.59311148 L9.33894231,8.32388071 C9.33894231,8.88147589 8.8869221,9.33349609 8.32932692,9.33349609 L1.93509615,9.33349609 C1.37750097,9.33349609 0.925480769,8.88147589 0.925480769,8.32388071 L0.925480769,6.99589994 L1.59855769,6.99589994 L1.59855769,8.32388071 C1.59855769,8.50974577 1.74923109,8.66041917 1.93509615,8.66041917 L8.32932692,8.66041917 C8.51519198,8.66041917 8.66586538,8.50974577 8.66586538,8.32388071 L8.66586538,1.59311148 C8.66586538,1.40724642 8.51519198,1.25657302 8.32932692,1.25657302 L1.93509615,1.25657302 C1.74923109,1.25657302 1.59855769,1.40724642 1.59855769,1.59311148 L1.59855769,3.19839994 Z" id="路径"></path>
                        <path d="M5.11961379,3.58114903 C5.13716313,3.46178197 5.21726821,3.3609423 5.32957122,3.31684571 C5.44187422,3.27274912 5.56919006,3.29214347 5.66326923,3.36767879 L7.223125,4.60714994 C7.47283654,4.80537109 7.3325,5.20719802 7.01379808,5.20719802 L0.345288462,5.20719802 C0.159423402,5.20719802 0.00875,5.05652462 0.00875,4.87065956 C0.00875,4.6847945 0.159423402,4.53412109 0.345288462,4.53412109 L6.04927885,4.53412109 L5.24495192,3.89469802 C5.14975632,3.82014447 5.10206445,3.70051609 5.11961379,3.58114903 Z" id="路径"></path>
                    </g>
                </g>
            </g>
        </g>
    </g>
</svg>
