<?xml version="1.0" encoding="UTF-8"?>
<svg width="25px" height="29px" viewBox="0 0 25 29" version="1.1" xmlns="http://www.w3.org/2000/svg" xmlns:xlink="http://www.w3.org/1999/xlink">
    <!-- Generator: Sketch 53.2 (72643) - https://sketchapp.com -->
    <title>安全认证</title>
    <desc>Created with Sketch.</desc>
    <g id="Page-1" stroke="none" stroke-width="1" fill="none" fill-rule="evenodd">
        <g id="选项切换" transform="translate(-971.000000, -473.000000)" fill="#000000" fill-rule="nonzero">
            <g id="分组-10" transform="translate(624.000000, 368.000000)">
                <g id="快速认证" transform="translate(276.000000, 82.000000)">
                    <g id="分组-19" transform="translate(71.000000, 23.000000)">
                        <g id="安全认证" transform="translate(0.000000, -0.000000)">
                            <path d="M12.2272909,28.9108277 C10.0087746,28.9108277 7.03102946,27.3835188 4.45607775,24.9248865 C1.63021881,22.2264212 0.00942596216,19.0590811 0.00942596216,16.2347984 L0.00942596216,4.94259851 C0.00942596216,4.38953557 0.453080724,3.93864623 1.00610322,3.92979497 L2.119787,3.91164783 L2.12103993,3.91164783 C2.18797009,3.90990992 4.48699657,3.84326268 6.83181524,2.89128635 C9.31776924,1.88102904 10.9492725,0.7119339 10.9653584,0.700253452 L11.6284358,0.217596486 C11.9828907,-0.0403432589 12.4630014,-0.0411516201 12.8182243,0.215696885 L13.4880917,0.700091727 C13.4899913,0.701506317 13.4920525,0.702920908 13.4939521,0.704335498 C13.5446347,0.740831839 15.1493013,1.88684903 17.6219986,2.89128632 C19.9712227,3.84374765 22.2691175,3.91007155 22.3349564,3.9116478 L22.3365326,3.9116478 L23.4450027,3.92979493 C23.9977422,3.93880786 24.4411949,4.38921222 24.4415183,4.9421135 L24.4468937,16.2343134 C24.4468937,19.0592428 22.8261008,22.2267446 20.0002419,24.9248461 C17.4252498,27.3834784 14.4468984,28.9108277 12.2272909,28.9108277 L12.2272909,28.9108277 Z M2.03547766,5.93927577 L2.03547766,16.234758 C2.03547766,18.5082006 3.42763293,21.1414333 5.85534638,23.4594153 C8.00091041,25.5081812 10.5616758,26.8847355 12.2272909,26.8847355 C13.8938355,26.8847355 16.4554093,25.5081811 18.601135,23.4594153 C21.0286868,21.1417567 22.420842,18.5083623 22.420842,16.234758 L22.4159516,5.93927577 L22.3033909,5.93721452 C22.0736621,5.93167741 19.5057833,5.84122473 16.8600618,4.76844269 C14.242915,3.70544154 12.5149369,2.49516168 12.301011,2.34153757 L12.3008494,2.34186089 L12.2264825,2.28802577 L12.1553086,2.33996132 C12.0792039,2.39504937 10.3123852,3.66377184 7.59419653,4.76828103 C4.95162759,5.84138639 2.38201092,5.93167744 2.15260539,5.93721452 L2.15260539,5.93737617 L2.03547766,5.93927577 L2.03547766,5.93927577 Z" id="形状"></path>
                            <path d="M10.882787,18.8389714 L10.882787,18.8389714 C10.5425587,18.8389714 10.2160721,18.7036561 9.97547113,18.4630551 L6.63239892,15.1199829 C6.13131194,14.6188959 6.13131194,13.806317 6.63239892,13.30523 C7.13352631,12.8041026 7.94594358,12.8041026 8.44707097,13.3053917 L10.882787,15.7411077 L16.6616156,9.96235991 C17.1627025,9.46123252 17.9751602,9.46107086 18.4762472,9.96235991 C18.9773342,10.4634469 18.9773342,11.2759046 18.4762472,11.7769916 L11.7901028,18.4630956 C11.5495018,18.7036965 11.2231769,18.8389714 10.882787,18.8389714 L10.882787,18.8389714 Z" id="路径"></path>
                        </g>
                    </g>
                </g>
            </g>
        </g>
    </g>
</svg>