<?xml version="1.0" encoding="UTF-8"?>
<svg width="37px" height="24px" viewBox="0 0 37 24" version="1.1" xmlns="http://www.w3.org/2000/svg" xmlns:xlink="http://www.w3.org/1999/xlink">
    <!-- Generator: Sketch 53.2 (72643) - https://sketchapp.com -->
    <title>分组 14</title>
    <desc>Created with Sketch.</desc>
    <g id="Page-1" stroke="none" stroke-width="1" fill="none" fill-rule="evenodd">
        <g id="选项切换" transform="translate(-743.000000, -476.000000)">
            <g id="分组-10" transform="translate(624.000000, 368.000000)">
                <g id="提交资料" transform="translate(50.000000, 82.000000)">
                    <g id="分组-18" transform="translate(69.000000, 26.000000)">
                        <g id="分组-14">
                            <rect id="矩形" stroke="#333333" stroke-width="1.5" x="0.75" y="0.75" width="35.5" height="22.5" rx="1"></rect>
                            <polygon id="矩形" fill="#333333" points="1 1 5 1 1 5"></polygon>
                            <polygon id="矩形" fill="#333333" transform="translate(34.000000, 3.000000) rotate(-270.000000) translate(-34.000000, -3.000000) " points="32 1 36 1 32 5"></polygon>
                            <polygon id="矩形" fill="#333333" transform="translate(34.000000, 21.000000) rotate(-180.000000) translate(-34.000000, -21.000000) " points="32 19 36 19 32 23"></polygon>
                            <polygon id="矩形" fill="#333333" transform="translate(3.000000, 21.000000) rotate(-450.000000) translate(-3.000000, -21.000000) " points="1 19 5 19 1 23"></polygon>
                            <path d="M8.458,7.252 L11.572,7.252 L11.572,8.536 L8.458,8.536 L8.458,7.252 Z M11.05,8.116 L11.05,7.684 L8.986,7.684 L8.986,8.116 L11.05,8.116 Z M12.136,8.86 L12.136,10.624 L11.584,10.624 L11.584,10.39 L8.476,10.39 L8.476,10.624 L7.918,10.624 L7.918,8.86 L12.136,8.86 Z M8.476,9.916 L11.584,9.916 L11.584,9.328 L8.476,9.328 L8.476,9.916 Z M7.402,5.452 L8.704,5.452 L8.704,5.092 L9.268,5.092 L9.268,5.452 L10.732,5.452 L10.732,5.092 L11.296,5.092 L11.296,5.452 L12.598,5.452 L12.598,5.95 L11.296,5.95 L11.296,6.256 L10.732,6.256 L10.732,5.95 L9.268,5.95 L9.268,6.256 L8.704,6.256 L8.704,5.95 L7.402,5.95 L7.402,5.452 Z M12.478,6.442 L12.478,7.636 L11.932,7.636 L11.932,6.922 L8.068,6.922 L8.068,7.666 L7.522,7.666 L7.522,6.442 L12.478,6.442 Z M15.064,5.128 L15.634,5.128 L15.634,9.844 L16.354,9.844 L16.354,5.128 L16.924,5.128 L16.924,9.844 L18.676,9.844 L18.676,10.402 L13.324,10.402 L13.324,9.844 L15.064,9.844 L15.064,5.128 Z M18.046,6.244 L18.55,6.388 C18.322,7.42 18.028,8.32 17.668,9.094 L17.158,8.914 C17.494,8.218 17.794,7.324 18.046,6.244 Z M13.93,6.232 C14.236,7.036 14.506,7.954 14.746,8.986 L14.224,9.118 C14.02,8.176 13.756,7.264 13.444,6.388 L13.93,6.232 Z M24.196,10.582 C23.908,10.576 23.692,10.408 23.554,10.072 C23.416,9.736 23.35,9.052 23.35,8.02 L23.35,6.604 L22.636,6.604 L22.636,7.198 C22.63,7.522 22.606,7.822 22.57,8.104 C22.834,8.296 23.092,8.5 23.332,8.716 L23.002,9.208 C22.816,9.028 22.63,8.872 22.45,8.728 C22.246,9.532 21.868,10.162 21.328,10.624 L20.896,10.252 C21.43,9.808 21.784,9.172 21.952,8.356 C21.712,8.194 21.478,8.05 21.244,7.93 L21.556,7.468 C21.724,7.552 21.88,7.648 22.036,7.744 C22.054,7.564 22.066,7.384 22.066,7.198 L22.066,6.604 L21.346,6.604 L21.346,6.052 L22.066,6.052 L22.066,5.092 L22.636,5.092 L22.636,6.052 L23.908,6.052 L23.908,8.02 C23.908,8.824 23.926,9.334 23.974,9.556 C24.004,9.778 24.058,9.892 24.136,9.892 C24.184,9.892 24.226,9.784 24.262,9.574 C24.286,9.394 24.316,9.19 24.346,8.956 L24.82,9.184 C24.736,9.742 24.646,10.114 24.538,10.3 C24.436,10.486 24.322,10.582 24.196,10.582 Z M19.996,10.564 L19.408,10.564 L19.282,10.012 C19.462,10.03 19.63,10.042 19.798,10.042 C19.942,10.042 20.02,9.97 20.02,9.826 L20.02,8.53 C19.792,8.614 19.558,8.686 19.33,8.752 L19.192,8.212 C19.468,8.152 19.744,8.074 20.02,7.978 L20.02,6.73 L19.306,6.73 L19.306,6.184 L20.02,6.184 L20.02,5.098 L20.59,5.098 L20.59,6.184 L21.106,6.184 L21.106,6.73 L20.59,6.73 L20.59,7.762 C20.782,7.678 20.962,7.588 21.142,7.498 L21.142,8.068 C20.962,8.152 20.776,8.236 20.59,8.314 L20.59,9.97 C20.59,10.366 20.392,10.564 19.996,10.564 Z M25.528,5.284 L27.358,5.284 L27.358,8.974 L25.528,8.974 L25.528,5.284 Z M26.818,8.464 L26.818,7.378 L26.086,7.378 L26.086,8.464 L26.818,8.464 Z M26.086,6.862 L26.818,6.862 L26.818,5.794 L26.086,5.794 L26.086,6.862 Z M27.754,7.312 L30.346,7.312 L30.346,8.974 L27.754,8.974 L27.754,7.312 Z M29.788,8.476 L29.788,7.816 L28.312,7.816 L28.312,8.476 L29.788,8.476 Z M28.456,5.818 L27.67,5.818 L27.67,5.284 L30.49,5.284 C30.472,6.034 30.418,6.508 30.322,6.7 C30.22,6.97 30.004,7.108 29.668,7.114 C29.536,7.114 29.386,7.102 29.218,7.09 L29.056,6.592 C29.272,6.616 29.452,6.628 29.608,6.628 C29.734,6.622 29.812,6.538 29.848,6.376 C29.884,6.298 29.902,6.112 29.914,5.818 L29.002,5.818 C28.9,6.448 28.486,6.91 27.766,7.204 L27.466,6.736 C28.03,6.544 28.36,6.238 28.456,5.818 Z M25.84,9.184 L26.35,9.316 C26.224,9.82 26.068,10.27 25.876,10.654 L25.354,10.468 C25.54,10.132 25.702,9.7 25.84,9.184 Z M27.412,9.286 C27.52,9.658 27.616,10.06 27.7,10.498 L27.154,10.63 C27.076,10.162 26.986,9.754 26.89,9.4 L27.412,9.286 Z M28.69,9.226 C28.846,9.61 28.99,10.03 29.11,10.486 L28.558,10.618 C28.45,10.138 28.318,9.712 28.156,9.34 L28.69,9.226 Z M29.926,9.112 C30.256,9.568 30.508,9.97 30.688,10.318 L30.232,10.636 C30.046,10.258 29.794,9.844 29.482,9.388 L29.926,9.112 Z" id="营业执照" fill="#333333" fill-rule="nonzero"></path>
                            <rect id="矩形" fill="#333333" x="10" y="15" width="18" height="1.5"></rect>
                            <rect id="矩形-copy-14" fill="#333333" x="13" y="18" width="12" height="1.5"></rect>
                            <circle id="椭圆形" fill="#333333" cx="32" cy="18" r="2"></circle>
                        </g>
                    </g>
                </g>
            </g>
        </g>
    </g>
</svg>