<?xml version="1.0" encoding="UTF-8"?>
<svg width="18px" height="18px" viewBox="0 0 18 18" version="1.1" xmlns="http://www.w3.org/2000/svg" xmlns:xlink="http://www.w3.org/1999/xlink">
    <!-- Generator: Sketch 53.2 (72643) - https://sketchapp.com -->
    <title>财务管理</title>
    <desc>Created with Sketch.</desc>
    <g id="Page-1" stroke="none" stroke-width="1" fill="none" fill-rule="evenodd">
        <g id="菜单结构" transform="translate(-43.000000, -655.000000)" fill="#FFFFFF" fill-rule="nonzero">
            <g id="菜单">
                <g id="一级导航-copy-3" transform="translate(0.000000, 640.000000)">
                    <g id="分组-2-copy-3" transform="translate(42.000000, 12.000000)">
                        <g id="财务管理-copy" transform="translate(0.000000, 3.000000)">
                            <path d="M3.16655188,7.89830097 C3.5220449,7.89830097 3.80970563,7.6073005 3.80970563,7.24837718 C3.80970563,3.96925881 6.44951661,1.30166033 9.6948053,1.30166033 C12.9394577,1.30166033 15.5792687,3.9692588 15.5792687,7.24837718 C15.5792687,8.38321082 15.262088,9.48628478 14.6616428,10.4386464 C14.4706981,10.741396 14.559258,11.1431462 14.858854,11.3357891 C14.9656349,11.4049784 15.0855852,11.4376539 15.2036651,11.4376539 C15.4159544,11.4376539 15.6244838,11.3313466 15.7469599,11.1368137 C16.4786736,9.97565657 16.8655762,8.6310532 16.8655762,7.24839668 C16.8655762,3.25269818 13.6485542,0.0018322673 9.69480532,0.0018322673 C5.74042017,0.0018322673 2.52339817,3.25271766 2.52339817,7.24839668 C2.52339815,7.60728101 2.81105886,7.89830097 3.16655188,7.89830097 Z" id="路径"></path>
                            <path d="M11.8382333,3.76928975 C11.6401545,3.56912585 11.3190789,3.56912585 11.1212507,3.76928975 L9.70219011,5.20324888 L8.26805136,3.75401393 C8.06997249,3.553889 7.74914762,3.553889 7.55106875,3.75401393 C7.35302846,3.95413886 7.35302846,4.27863312 7.55106875,4.47846579 L9.19337057,6.138055 C9.19277286,6.14828435 9.18752827,6.15701339 9.18752827,6.16741808 L9.18752827,6.67976205 L7.9199817,6.67976205 C7.63993718,6.67976205 7.4129168,6.90917213 7.4129168,7.19216448 C7.4129168,7.47515683 7.63991791,7.70450845 7.9199817,7.70450845 L9.18752827,7.70450845 L9.18752827,8.72921588 L7.9199817,8.72921588 C7.63993718,8.72921588 7.4129168,8.95866494 7.4129168,9.24155985 C7.4129168,9.52451325 7.63991791,9.7539428 7.9199817,9.7539428 L9.18752827,9.7539428 L9.18752827,11.2909942 C9.18752827,11.5739866 9.41454866,11.8032992 9.69459317,11.8032992 C9.97456057,11.8032992 10.2015617,11.5739866 10.2015617,11.2909942 L10.2015617,9.7539428 L11.4691083,9.7539428 C11.7491142,9.7539428 11.9761539,9.52449375 11.9761539,9.24155985 C11.9761539,8.95864544 11.7490949,8.72921588 11.4691083,8.72921588 L10.2015617,8.72921588 L10.2015617,7.70450845 L11.4691083,7.70450845 C11.7491142,7.70450845 11.9761539,7.47515683 11.9761539,7.19216448 C11.9761539,6.90917213 11.7490949,6.67976205 11.4691083,6.67976205 L10.2015617,6.67976205 L10.2015617,6.16741808 C10.2015617,6.16159222 10.1984574,6.15677957 10.1982645,6.15099268 L11.8382526,4.49374159 C12.0362736,4.29365566 12.0362736,3.96941468 11.8382333,3.76928975 Z" id="路径"></path>
                            <path d="M17.6833239,13.3058437 C15.9027159,12.9364573 13.8953767,11.8035331 13.8916168,11.8035331 C13.0141928,11.2107378 12.4338196,11.034082 11.8924144,11.034082 C11.4364261,11.034082 10.9471966,11.1320205 10.7418101,11.4972958 C10.4761303,11.9675923 10.5621836,12.5959468 10.7832653,12.9735752 C10.8850138,13.1458958 11.0834783,13.4419817 11.2945143,13.7488425 C6.90486855,13.4705264 6.14301788,12.4559704 5.27249669,11.2967227 C5.00053112,10.9352664 4.71979247,10.5617493 4.33414318,10.1844326 C3.62315712,9.48977249 3.04469282,9.16638884 2.5133525,9.16638884 C2.1019624,9.16638884 1.74710566,9.36409769 1.51345243,9.72302099 C1.03172341,10.4643464 1.1705917,11.8047779 1.36710584,12.2097257 C3.58388138,16.7777344 8.39592628,17.6788394 8.42920616,17.6788394 C8.45139274,17.6788394 11.4929659,17.6788394 17.5539257,17.6788394 C17.9094188,17.6788394 18.1970795,17.3878389 18.1970795,17.0289156 L18.1970795,13.9424401 C18.1970988,13.6339816 17.9822835,13.3677264 17.6833239,13.3058437 Z M17.1407623,16.5577148 C11.7001995,16.5577148 8.79634742,16.5577148 8.42920616,16.5577148 C7.87849426,16.5577148 4.07224655,15.5206055 2.30121613,11.8032992 C2.2126562,11.5611658 2.10240555,10.6322051 2.56421706,10.4766996 C2.66910843,10.5084398 2.96427322,10.4360939 3.46233368,10.922582 C3.77762478,11.2307288 4.08103491,11.6245063 4.33414318,11.9618408 C5.43768132,13.43019 6.37203963,14.7758906 12.5447807,14.943457 C12.8186166,14.9590056 12.9890497,14.8629718 13.1033504,14.6446289 C13.2176512,14.4256625 13.140582,14.142682 12.9967613,13.9424401 C12.725432,13.5651235 11.9766167,12.6719036 11.7831654,12.3421875 C11.7731197,12.3225082 11.8974276,12.116777 11.8924144,12.084082 C12.1119347,11.9618408 12.5128731,12.1464751 13.2866783,12.6672363 C13.3683355,12.7138821 15.3702192,13.8280143 17.197932,14.3167236 L17.197932,16.3790113 L17.1407623,16.5577148 Z" id="形状"></path>
                        </g>
                    </g>
                </g>
            </g>
        </g>
    </g>
</svg>