<?xml version="1.0" encoding="UTF-8"?>
<svg width="20px" height="20px" viewBox="0 0 20 20" version="1.1" xmlns="http://www.w3.org/2000/svg" xmlns:xlink="http://www.w3.org/1999/xlink">
    <!-- Generator: Sketch 53.2 (72643) - https://sketchapp.com -->
    <title>招商计划</title>
    <desc>Created with Sketch.</desc>
    <g id="Page-1" stroke="none" stroke-width="1" fill="none" fill-rule="evenodd">
        <g id="首页" transform="translate(-275.000000, -489.000000)">
            <g id="分组-9-copy-2" transform="translate(255.000000, 489.000000)">
                <g id="标签" transform="translate(20.000000, 0.000000)">
                    <g id="分组-3">
                        <g id="分组-45">
                            <g id="分组-40">
                                <circle id="椭圆形" fill="#333333" cx="10" cy="10" r="10"></circle>
                                <g id="合作-(1)" transform="translate(4.000000, 5.000000)" fill="#FFFFFF" fill-rule="nonzero">
                                    <path d="M11.1972565,3.6707059 C11.1943928,2.45562248 10.460925,1.36153282 9.33800639,0.897324097 C8.21508779,0.433115371 6.92316728,0.689919995 6.06314787,1.54829202 L5.89725791,1.71388753 L5.73130907,1.54829202 C4.55589763,0.376042396 2.65353051,0.376042396 1.47811908,1.54829202 C0.914212474,2.11065595 0.597283035,2.87431162 0.597283035,3.6707059 C0.597283035,4.46710018 0.914212474,5.23075585 1.47811908,5.79311978 L1.75336568,6.06783638 C1.50914716,6.70908438 1.66420876,7.43396566 2.14939335,7.91918478 L3.93290176,9.69921875 C4.44923355,10.2141688 5.23134995,10.3537049 5.89390124,10.0490775 C6.55847741,10.3544524 7.34281762,10.2149802 7.8613785,9.69921875 L9.64494581,7.91918478 C10.1299544,7.43418112 10.2847045,6.70946164 10.0400901,6.06866082 L10.3162201,5.79311978 C10.8819504,5.23196267 11.1992705,4.46753967 11.1972565,3.6707059 Z M8.18974286,1.43728649 C9.09404847,1.43516647 9.91031384,1.97877857 10.2569674,2.81400576 C10.6036209,3.64923295 10.412184,4.61108282 9.77214577,5.24992882 L9.60554915,5.41611322 L7.67829299,3.55145593 C7.65946454,3.53322785 7.63882503,3.51696881 7.61669523,3.5029315 C7.61386857,3.50045817 7.61180746,3.49751373 7.60886301,3.49509928 C7.44426293,3.36063214 7.20186966,3.38481877 7.06708538,3.54915927 C6.51164553,4.22685242 5.970869,4.58165788 5.45977247,4.60362343 C5.03023703,4.62399898 4.68791601,4.39374349 4.4842194,4.21018687 L6.60716328,2.09136521 C7.02633946,1.67099139 7.59609341,1.4355126 8.18974286,1.43728649 Z M2.6937032,7.3760527 C2.51083508,7.19329409 2.40809162,6.94535448 2.40809162,6.68681733 C2.40809162,6.42828017 2.51083508,6.18034056 2.6937032,5.99758195 C3.01046789,5.6833445 3.52072922,5.68127367 3.84003401,5.99292973 L5.86987458,7.9862592 C6.18948827,8.30053451 6.19399561,8.81434595 5.87994458,9.13418001 L5.85839125,9.15608667 C5.47642623,9.53618341 4.85911775,9.53618341 4.47715273,9.15608667 L2.6937032,7.3760527 Z M7.31724531,9.15608667 C7.13119263,9.34097466 6.87874869,9.44350084 6.61646772,9.4406966 C7.03642741,8.80999853 6.94963395,7.96998212 6.40959111,7.4384749 L4.37975053,5.4453221 C3.7737203,4.85460627 2.81109301,4.84238572 2.19026223,5.41752655 L2.02237005,5.24998771 C1.15017305,4.37606697 1.15157042,2.96055887 2.02549116,2.08836188 C2.89941189,1.21616488 4.31491999,1.21756225 5.18711699,2.09148299 L5.35300694,2.25701961 L3.85251845,3.75456366 C3.60338582,4.00452934 3.60019133,4.4079258 3.84533401,4.66180564 C4.11816616,4.94141001 4.69633712,5.40545433 5.49322135,5.37118101 C6.13787785,5.34338546 6.77523212,4.99817888 7.39197529,4.34427684 L9.10081262,5.99752306 C9.28395921,6.18014565 9.38689406,6.42814975 9.38689406,6.68678788 C9.38689406,6.94542601 9.28395921,7.19343011 9.10081262,7.3760527 L7.31724531,9.15608667 Z" id="形状"></path>
                                </g>
                            </g>
                        </g>
                    </g>
                </g>
            </g>
        </g>
    </g>
</svg>
