<?xml version="1.0" encoding="UTF-8"?>
<svg width="20px" height="16px" viewBox="0 0 20 16" version="1.1" xmlns="http://www.w3.org/2000/svg" xmlns:xlink="http://www.w3.org/1999/xlink">
    <!-- Generator: Sketch 53.2 (72643) - https://sketchapp.com -->
    <title>交易记录</title>
    <desc>Created with Sketch.</desc>
    <g id="Page-1" stroke="none" stroke-width="1" fill="none" fill-rule="evenodd">
        <g id="菜单结构" transform="translate(-42.000000, -472.000000)" fill="#FFFFFF" fill-rule="nonzero">
            <g id="菜单">
                <g id="一级导航" transform="translate(0.000000, 456.000000)">
                    <g id="分组-56-copy" transform="translate(42.000000, 16.000000)">
                        <g id="交易记录">
                            <path d="M6.62323263,7.98272241 L1.29074403,7.98272241 C0.445760873,7.98272241 0.167186513,7.52963947 0.086359173,7.33491301 C0.00553183278,7.14018654 -0.117539182,6.62340743 0.480067311,6.02582298 L2.20184864,4.30404165 C2.44677802,4.05882565 2.84352875,4.05882565 3.0884581,4.30404165 C3.33336541,4.54894896 3.33336541,4.94572175 3.0884581,5.19065111 L1.55035726,6.72875195 L6.62323265,6.72875195 C6.96980252,6.72875195 7.2502289,7.00917833 7.2502289,7.3557482 C7.25022888,7.70227398 6.9698025,7.98272241 6.62323263,7.98272241 Z" id="路径"></path>
                            <path d="M10.2308753,15.3510858 C10.0704773,15.3510858 9.91003521,15.2898589 9.78760361,15.1674053 C9.54267424,14.922498 9.54267424,14.5257252 9.78760361,14.2807958 L11.3262997,12.742695 L0.644764608,12.742695 C0.298194742,12.742695 0.0177683592,12.4622686 0.0177683592,12.1156987 C0.0177683592,11.7691509 0.298194742,11.4887025 0.644764608,11.4887025 L11.585913,11.4887025 C12.430852,11.4887025 12.7094705,11.9418295 12.7902978,12.1365339 C12.8711252,12.3312383 12.9941962,12.8480174 12.3965676,13.4456239 L10.6742131,15.1674053 C10.5517374,15.2898589 10.3912953,15.3510858 10.2308753,15.3510858 Z" id="路径"></path>
                            <path d="M13.9475224,10.5261823 C11.048916,10.5261823 8.69094444,8.16763757 8.69094444,5.26900912 C8.69094444,2.36947671 11.048916,0.0109319353 13.9475224,0.0109319353 C16.8467461,0.0109319353 19.205335,2.36949876 19.205335,5.26900912 C19.205335,8.16763757 16.8467461,10.5261823 13.9475224,10.5261823 Z M13.9475224,1.26490237 C11.7402037,1.26490237 9.94493692,3.06076442 9.94493692,5.26900912 C9.94493692,7.47575456 11.7402037,9.27221189 13.9475224,9.27221189 C16.1554584,9.27221189 17.9513645,7.47575456 17.9513645,5.26900912 C17.9513645,3.06076442 16.1554584,1.26490237 13.9475224,1.26490237 Z" id="形状"></path>
                            <path d="M16.7469576,5.92047844 L13.8691203,5.92047844 C13.5225945,5.92047844 13.242124,5.64007412 13.242124,5.29348219 L13.242124,2.99585559 C13.242124,2.64930777 13.5225945,2.36885934 13.8691203,2.36885934 C14.2157122,2.36885934 14.4961165,2.64930777 14.4961165,2.99585559 L14.4961165,4.66648596 L16.7469576,4.66648596 C17.0935054,4.66648596 17.3739539,4.94693439 17.3739539,5.29348221 C17.3739318,5.64007412 17.0935054,5.92047844 16.7469576,5.92047844 Z" id="路径"></path>
                        </g>
                    </g>
                </g>
            </g>
        </g>
    </g>
</svg>