<?xml version="1.0" encoding="UTF-8"?>
<svg width="12px" height="13px" viewBox="0 0 12 13" version="1.1" xmlns="http://www.w3.org/2000/svg" xmlns:xlink="http://www.w3.org/1999/xlink">
    <!-- Generator: Sketch 53.2 (72643) - https://sketchapp.com -->
    <title>箭头2_左 copy 2</title>
    <desc>Created with Sketch.</desc>
    <g id="Page-1" stroke="none" stroke-width="1" fill="none" fill-rule="evenodd">
        <g id="菜单结构-新版" transform="translate(-1410.000000, -74.000000)" fill="#666666" fill-rule="nonzero">
            <g id="液态签" transform="translate(235.000000, 59.000000)">
                <g id="分组-14" transform="translate(1175.000000, 15.000000)">
                    <g id="箭头2_左-copy-2" transform="translate(6.000000, 6.500000) rotate(-180.000000) translate(-6.000000, -6.500000) ">
                        <path d="M10.4969635,12.061307 C8.62945386,10.1935965 6.76181036,8.32608688 4.8942784,6.45855492 C4.69677564,6.26087371 4.69677564,5.94066228 4.8942784,5.74313722 C6.76178805,3.87544912 8.62945385,2.00791715 10.4969635,0.140385186 C10.6820638,-0.0448712412 10.9825116,-0.0448712412 11.1675895,0.140385186 C11.352846,0.325485461 11.352846,0.625777095 11.1675895,0.811033509 C9.40431868,2.57432667 7.64104782,4.33746368 5.87795543,6.10075684 C7.64107013,7.8640723 9.40431868,9.62736546 11.1675895,11.3906586 C11.352846,11.5757589 11.352846,11.8760282 11.1675895,12.061307 C10.9824893,12.2465634 10.6820638,12.2465634 10.4969635,12.061307 Z" id="路径"></path>
                        <path d="M5.75689744,12.061307 C3.88923349,10.1937731 2.02161974,8.32618912 0.154056181,6.45855492 C-0.0434465702,6.26105216 -0.0434465702,5.94066228 0.154056181,5.74313722 C2.02172198,3.87562756 3.88920933,2.00791715 5.75689744,0.14040749 C5.94197541,-0.0448489373 6.24226703,-0.0448489373 6.42752346,0.14040749 C6.61280219,0.32568622 6.61280219,0.625799398 6.42752346,0.811055825 C4.66429164,2.57432853 2.90102079,4.33756221 1.13771091,6.10075684 L6.42752346,11.3906586 C6.61280219,11.5759374 6.61280219,11.8762067 6.42752346,12.061307 C6.24226703,12.2465634 5.94197541,12.2465634 5.75689744,12.061307 L5.75689744,12.061307 Z" id="路径"></path>
                    </g>
                </g>
            </g>
        </g>
    </g>
</svg>