<?xml version="1.0" encoding="UTF-8"?>
<svg width="20px" height="20px" viewBox="0 0 20 20" version="1.1" xmlns="http://www.w3.org/2000/svg" xmlns:xlink="http://www.w3.org/1999/xlink">
    <!-- Generator: Sketch 53.2 (72643) - https://sketchapp.com -->
    <title>客户</title>
    <desc>Created with Sketch.</desc>
    <g id="Page-1" stroke="none" stroke-width="1" fill="none" fill-rule="evenodd">
        <g id="首页" transform="translate(-275.000000, -865.000000)">
            <g id="分组-9-copy-3" transform="translate(255.000000, 865.000000)">
                <g id="标签" transform="translate(20.000000, 0.000000)">
                    <g id="分组-3">
                        <g id="分组-46">
                            <g id="分组-39">
                                <circle id="椭圆形" fill="#333333" cx="10" cy="10" r="10"></circle>
                                <g id="客户-(1)-copy" transform="translate(4.000000, 2.000000)" fill="#FFFFFF" fill-rule="nonzero">
                                    <path d="M6.14904368,7.22616462 C7.87412891,7.22616462 9.27776065,5.82253287 9.27776065,4.09744764 C9.27776065,2.37236241 7.87412891,0.968730667 6.14904368,0.968730667 C4.42395844,0.968730667 3.0203267,2.37236241 3.0203267,4.09744764 C3.0203267,5.82253287 4.42395844,7.22616462 6.14904368,7.22616462 Z M6.14904368,1.78618252 C7.4232213,1.78618252 8.4603088,2.82327002 8.4603088,4.09890218 C8.4603088,5.37307981 7.4232213,6.4101673 6.14904368,6.4101673 C4.87486605,6.4101673 3.83777856,5.37307981 3.83777856,4.09744764 C3.83777856,2.82327002 4.87486605,1.78618252 6.14904368,1.78618252 Z M11.5395714,10.4654267 C10.7570285,9.11270386 9.50612353,8.11052534 8.01812843,7.64216325 C7.82612906,7.58107254 7.61667521,7.67125406 7.52794823,7.85307164 C7.21522198,8.49743316 6.74104173,9.03852229 6.15049822,9.43124827 C5.55850016,9.03852229 5.08431991,8.49743316 4.7730482,7.85307164 C4.68432122,7.67125406 4.47632191,7.58107254 4.282868,7.64216325 C2.7948729,8.11052534 1.54396792,9.11270386 0.761425044,10.4654267 C0.68724347,10.5919717 0.68724347,10.7476076 0.761425044,10.8741526 C1.87123957,12.7941463 3.93668732,13.9854151 6.15195276,13.9854151 C8.36576365,13.9854151 10.4312114,12.7926917 11.5424805,10.8741526 C11.6122984,10.7476076 11.6122984,10.5919717 11.5395714,10.4654267 Z M8.74394423,8.83488659 C8.41230895,9.40943016 7.94394686,10.0916097 7.35049427,10.6181535 C7.2835854,10.5599718 7.21376744,10.4974266 7.14249495,10.4334268 C6.99558634,10.3010636 6.8472232,10.1672458 6.69158734,10.046519 C7.26322183,9.64942937 7.74031116,9.13597651 8.09085547,8.53234214 C8.31630927,8.61816004 8.53449037,8.72143242 8.74394423,8.83488659 Z M5.1555924,10.4348813 C5.08431991,10.4988811 5.01450195,10.5614264 4.94759308,10.619608 C4.35414049,10.0916097 3.88432386,9.40943016 3.55414313,8.83634114 C3.76359698,8.72143242 3.98177808,8.61961458 4.20723188,8.53379668 C4.55923073,9.13597651 5.03486552,9.64942937 5.60650001,10.0479735 C5.45086416,10.1687004 5.30250101,10.3025181 5.1555924,10.4348813 Z M6.42104278,13.1606905 L6.42104278,11.3599692 C6.42104278,11.208697 6.29886136,11.0879701 6.14904368,11.0879701 C5.99922599,11.0879701 5.87704457,11.2101515 5.87704457,11.3599692 L5.87704457,13.1606905 C4.13741393,13.0719636 2.53160104,12.1410575 1.59051322,10.6705169 C1.98469375,10.0537917 2.49523752,9.52724795 3.09014465,9.11997657 C3.47705247,9.78906527 4.04286879,10.5963353 4.77595729,11.1868789 C4.87486605,11.265424 5.01450195,11.2668786 5.11341072,11.1897879 C5.248683,11.085061 5.3810462,10.9657887 5.52068211,10.8392436 C5.72722688,10.6530624 5.93813528,10.4625176 6.14904368,10.3301544 C6.35995207,10.4625176 6.57086047,10.654517 6.77740524,10.8392436 C6.91704115,10.9657887 7.04940435,11.085061 7.18467663,11.1897879 C7.23413101,11.227606 7.29231264,11.246515 7.35194881,11.246515 C7.41303951,11.246515 7.47267568,11.2261515 7.52213006,11.1868789 C8.25521856,10.5977899 8.82103488,9.78906527 9.2079427,9.11997657 C9.80284983,9.52724795 10.3133936,10.0523371 10.7075741,10.6705169 C9.76648631,12.1410575 8.16067342,13.0719636 6.42104278,13.1606905 Z" id="形状"></path>
                                </g>
                            </g>
                        </g>
                    </g>
                </g>
            </g>
        </g>
    </g>
</svg>
