<?xml version="1.0" encoding="UTF-8"?>
<svg width="40px" height="46px" viewBox="0 0 40 46" version="1.1" xmlns="http://www.w3.org/2000/svg" xmlns:xlink="http://www.w3.org/1999/xlink">
    <!-- Generator: Sketch 53.2 (72643) - https://sketchapp.com -->
    <title>审核</title>
    <desc>Created with Sketch.</desc>
    <g id="Page-1" stroke="none" stroke-width="1" fill="none" fill-rule="evenodd">
        <g id="审核失败" transform="translate(-707.000000, -434.000000)">
            <g id="分组-14" transform="translate(707.000000, 434.000000)">
                <g id="审核" transform="translate(1.000000, 1.000000)">
                    <path d="M30.6923077,43.8461538 L7.30769231,43.8461538 C3.21538462,43.8461538 0,40.6307692 0,36.5384615 L0,13.1538462 L12.8615385,0 L30.6923077,0 C34.7846154,0 38,3.21538462 38,7.30769231 L38,36.5384615 C38,40.6307692 34.7846154,43.8461538 30.6923077,43.8461538 Z M2.92307692,14.3230769 L2.92307692,36.5384615 C2.92307692,38.8769231 4.96923077,40.9230769 7.30769231,40.9230769 L30.6923077,40.9230769 C33.0307692,40.9230769 35.0769231,38.8769231 35.0769231,36.5384615 L35.0769231,7.30769231 C35.0769231,4.96923077 33.0307692,2.92307692 30.6923077,2.92307692 L14.0307692,2.92307692 L2.92307692,14.3230769 Z" id="形状" stroke="#000000" fill="#000000" fill-rule="nonzero"></path>
                    <path d="M17.420912,23.8063492 L17.420912,16.0563492 C17.420912,15.2279221 18.0924849,14.5563492 18.920912,14.5563492 L19.420912,14.5563492 C20.2493391,14.5563492 20.920912,15.2279221 20.920912,16.0563492 L20.920912,23.8063492 L28.670912,23.8063492 C29.4993391,23.8063492 30.170912,24.4779221 30.170912,25.3063492 L30.170912,25.8063492 C30.170912,26.6347763 29.4993391,27.3063492 28.670912,27.3063492 L20.920912,27.3063492 L20.920912,35.0563492 C20.920912,35.8847763 20.2493391,36.5563492 19.420912,36.5563492 L18.920912,36.5563492 C18.0924849,36.5563492 17.420912,35.8847763 17.420912,35.0563492 L17.420912,27.3063492 L9.67091198,27.3063492 C8.84248485,27.3063492 8.17091198,26.6347763 8.17091198,25.8063492 L8.17091198,25.3063492 C8.17091198,24.4779221 8.84248485,23.8063492 9.67091198,23.8063492 L17.420912,23.8063492 Z" id="合并形状" fill="#F5A623" transform="translate(19.170912, 25.556349) rotate(-315.000000) translate(-19.170912, -25.556349) "></path>
                    <path d="M9.35384615,14.6153846 L2.33846154,14.6153846 L2.33846154,11.6923077 L9.35384615,11.6923077 C10.8153846,11.6923077 11.6923077,10.5230769 11.6923077,9.35384615 L11.6923077,1.46153846 L14.6153846,1.46153846 L14.6153846,9.35384615 C14.6153846,12.2769231 12.2769231,14.6153846 9.35384615,14.6153846 L9.35384615,14.6153846 Z" id="形状" stroke="#000000" fill="#000000" fill-rule="nonzero"></path>
                </g>
            </g>
        </g>
    </g>
</svg>