<?xml version="1.0" encoding="UTF-8"?>
<svg width="15px" height="12px" viewBox="0 0 15 12" version="1.1" xmlns="http://www.w3.org/2000/svg" xmlns:xlink="http://www.w3.org/1999/xlink">
    <!-- Generator: Sketch 53.2 (72643) - https://sketchapp.com -->
    <title>更多 (1)</title>
    <desc>Created with Sketch.</desc>
    <g id="Page-1" stroke="none" stroke-width="1" fill="none" fill-rule="evenodd">
        <g id="菜单结构" transform="translate(-1347.000000, -24.000000)" fill="#FFFFFF" fill-rule="nonzero">
            <g id="分组-11" transform="translate(1347.000000, 24.000000)">
                <g id="更多-(1)" transform="translate(0.000000, 0.000000)">
                    <path d="M4.61094065,1.73076923 C4.26208195,1.73076923 3.97927609,1.47247197 3.97927609,1.15384615 C3.97927609,0.835220337 4.26208195,0.576923077 4.61094065,0.576923077 L14.2506681,0.576923077 C14.5995268,0.576923077 14.8823326,0.835220337 14.8823326,1.15384615 C14.8823326,1.47247197 14.5995268,1.73076923 14.2506681,1.73076923 L4.61094065,1.73076923 Z M4.61094065,6.34615385 C4.26211942,6.34610546 3.97937203,6.08782237 3.97937203,5.76923077 C3.97937203,5.45063917 4.26211942,5.19235608 4.61094065,5.19230769 L14.2506681,5.19230769 C14.5994893,5.19235608 14.8822367,5.45063917 14.8822367,5.76923077 C14.8822367,6.08782237 14.5994893,6.34610546 14.2506681,6.34615385 L4.61094065,6.34615385 Z M4.61094065,10.974884 C4.26208195,10.974884 3.97927609,10.7165868 3.97927609,10.397961 C3.97927609,10.0793351 4.26208195,9.82103788 4.61094065,9.82103788 L14.2506681,9.82103788 C14.5995268,9.82103788 14.8823326,10.0793351 14.8823326,10.397961 C14.8823326,10.7165868 14.5995268,10.974884 14.2506681,10.974884 L4.61094065,10.974884 Z" id="形状"></path>
                    <path d="M0,1.15384615 C-4.08638659e-05,1.56606206 0.219872033,1.94698275 0.576890058,2.1531025 C0.933908083,2.35922224 1.37378422,2.35922224 1.73080225,2.1531025 C2.08782027,1.94698275 2.30773317,1.56606206 2.30769231,1.15384615 C2.30773317,0.741630248 2.08782027,0.360709561 1.73080225,0.154589812 C1.37378422,-0.0515299373 0.933908083,-0.0515299373 0.576890058,0.154589812 C0.219872033,0.360709561 -4.08638659e-05,0.741630248 0,1.15384615 Z" id="路径"></path>
                    <path d="M0,5.76923077 C-4.08638659e-05,6.18144668 0.219872033,6.56236736 0.576890058,6.76848711 C0.933908083,6.97460686 1.37378422,6.97460686 1.73080225,6.76848711 C2.08782027,6.56236736 2.30773317,6.18144668 2.30769231,5.76923077 C2.30773317,5.35701486 2.08782027,4.97609418 1.73080225,4.76997443 C1.37378422,4.56385468 0.933908083,4.56385468 0.576890058,4.76997443 C0.219872033,4.97609418 -4.08638659e-05,5.35701486 0,5.76923077 Z" id="路径"></path>
                    <path d="M0.576890058,11.3972173 C0.933908083,11.603337 1.37378422,11.603337 1.73080225,11.3972173 C2.08782027,11.1910975 2.30773317,10.8101769 2.30769231,10.397961 C2.30773317,9.98574505 2.08782027,9.60482436 1.73080225,9.39870461 C1.37378422,9.19258487 0.933908083,9.19258487 0.576890058,9.39870461 C0.219872033,9.60482436 -4.08638659e-05,9.98574505 0,10.397961 C-4.08638659e-05,10.8101769 0.219872033,11.1910975 0.576890058,11.3972173 Z" id="路径"></path>
                </g>
            </g>
        </g>
    </g>
</svg>