<?xml version="1.0" encoding="UTF-8"?>
<svg width="16px" height="18px" viewBox="0 0 16 18" version="1.1" xmlns="http://www.w3.org/2000/svg" xmlns:xlink="http://www.w3.org/1999/xlink">
    <!-- Generator: Sketch 53.2 (72643) - https://sketchapp.com -->
    <title>固定资产</title>
    <desc>Created with Sketch.</desc>
    <g id="Page-1" stroke="none" stroke-width="1" fill="none" fill-rule="evenodd">
        <g id="菜单结构" transform="translate(-44.000000, -194.000000)" fill="#FFFFFF" fill-rule="nonzero">
            <g id="菜单">
                <g id="财务数据" transform="translate(0.000000, 180.000000)">
                    <g id="分组-55" transform="translate(44.000000, 14.000000)">
                        <g id="固定资产">
                            <path d="M15.5368528,5.35982958 L9.97119575,3.32234587 C9.95248417,3.31610868 9.93377258,3.30987148 9.915061,3.30571335 L9.915061,1.07695567 C9.915061,0.482343081 9.43063885,1.42108547e-14 8.83602626,1.42108547e-14 C8.77157525,1.42108547e-14 8.70504517,0.010395325 8.64267322,0.031185975 L0.449078041,2.69238918 C0.19127398,2.77555178 0.018711585,3.01464425 0.018711585,3.2849227 L0.018711585,16.1377026 C0.018711585,16.7323151 0.503133731,17.2146582 1.09774632,17.2146582 L14.8590776,17.2146582 C15.4599274,17.2146582 15.9464286,16.7136036 15.9464286,16.0961213 L15.9464286,5.94612591 C15.9464286,5.68416372 15.7821824,5.45130844 15.5368528,5.35982958 L15.5368528,5.35982958 Z M8.66970106,4.40345968 L8.66970106,15.9672192 L1.26822965,15.9672192 L1.26822965,3.73815888 L8.66970106,1.33475973 L8.66970106,4.40345968 Z M14.6989896,15.9672192 L9.91714006,15.9672192 L9.91714006,4.63215683 L14.6989896,6.38272956 L14.6989896,15.9672192 Z" id="形状"></path>
                            <path d="M2.55724995,7.27672751 L4.22050196,7.27672751 C4.31198082,7.27672751 4.38682716,7.20188117 4.38682716,7.11040231 L4.38682716,6.11245111 C4.38682716,6.02097225 4.31198082,5.94612591 4.22050196,5.94612591 L2.55724995,5.94612591 C2.46577109,5.94612591 2.39092475,6.02097225 2.39092475,6.11245111 L2.39092475,7.11040231 C2.39092475,7.20188117 2.46577109,7.27672751 2.55724995,7.27672751 Z M5.71742876,7.27672751 L7.38068076,7.27672751 C7.47215962,7.27672751 7.54700596,7.20188117 7.54700596,7.11040231 L7.54700596,6.11245111 C7.54700596,6.02097225 7.47215962,5.94612591 7.38068076,5.94612591 L5.71742876,5.94612591 C5.6259499,5.94612591 5.55110356,6.02097225 5.55110356,6.11245111 L5.55110356,7.11040231 C5.55110356,7.20188117 5.6259499,7.27672751 5.71742876,7.27672751 Z M2.55724995,9.93793071 L4.22050196,9.93793071 C4.31198082,9.93793071 4.38682716,9.86308437 4.38682716,9.77160551 L4.38682716,8.77365431 C4.38682716,8.68217545 4.31198082,8.60732911 4.22050196,8.60732911 L2.55724995,8.60732911 C2.46577109,8.60732911 2.39092475,8.68217545 2.39092475,8.77365431 L2.39092475,9.77160551 C2.39092475,9.86308437 2.46577109,9.93793071 2.55724995,9.93793071 Z M5.71742876,9.93793071 L7.38068076,9.93793071 C7.47215962,9.93793071 7.54700596,9.86308437 7.54700596,9.77160551 L7.54700596,8.77365431 C7.54700596,8.68217545 7.47215962,8.60732911 7.38068076,8.60732911 L5.71742876,8.60732911 C5.6259499,8.60732911 5.55110356,8.68217545 5.55110356,8.77365431 L5.55110356,9.77160551 C5.55110356,9.86308437 5.6259499,9.93793071 5.71742876,9.93793071 Z M2.55724995,12.5991339 L4.22050196,12.5991339 C4.31198082,12.5991339 4.38682716,12.5242876 4.38682716,12.4328087 L4.38682716,11.4348575 C4.38682716,11.3433787 4.31198082,11.2685323 4.22050196,11.2685323 L2.55724995,11.2685323 C2.46577109,11.2685323 2.39092475,11.3433787 2.39092475,11.4348575 L2.39092475,12.4328087 C2.39092475,12.5242876 2.46577109,12.5991339 2.55724995,12.5991339 Z M5.71742876,12.5991339 L7.38068076,12.5991339 C7.47215962,12.5991339 7.54700596,12.5242876 7.54700596,12.4328087 L7.54700596,11.4348575 C7.54700596,11.3433787 7.47215962,11.2685323 7.38068076,11.2685323 L5.71742876,11.2685323 C5.6259499,11.2685323 5.55110356,11.3433787 5.55110356,11.4348575 L5.55110356,12.4328087 C5.55110356,12.5242876 5.6259499,12.5991339 5.71742876,12.5991339 Z M11.8090892,9.93793071 L12.8070404,9.93793071 C12.8985193,9.93793071 12.9733656,9.86308437 12.9733656,9.77160551 L12.9733656,8.77365431 C12.9733656,8.68217545 12.8985193,8.60732911 12.8070404,8.60732911 L11.8090892,8.60732911 C11.7176104,8.60732911 11.642764,8.68217545 11.642764,8.77365431 L11.642764,9.77160551 C11.642764,9.86308437 11.7176104,9.93793071 11.8090892,9.93793071 Z M11.8090892,12.5991339 L12.8070404,12.5991339 C12.8985193,12.5991339 12.9733656,12.5242876 12.9733656,12.4328087 L12.9733656,11.4348575 C12.9733656,11.3433787 12.8985193,11.2685323 12.8070404,11.2685323 L11.8090892,11.2685323 C11.7176104,11.2685323 11.642764,11.3433787 11.642764,11.4348575 L11.642764,12.4328087 C11.642764,12.5242876 11.7176104,12.5991339 11.8090892,12.5991339 Z" id="形状"></path>
                        </g>
                    </g>
                </g>
            </g>
        </g>
    </g>
</svg>