<?xml version="1.0" encoding="UTF-8"?>
<svg width="17px" height="18px" viewBox="0 0 17 18" version="1.1" xmlns="http://www.w3.org/2000/svg" xmlns:xlink="http://www.w3.org/1999/xlink">
    <!-- Generator: Sketch 53.2 (72643) - https://sketchapp.com -->
    <title>数据分析</title>
    <desc>Created with Sketch.</desc>
    <g id="Page-1" stroke="none" stroke-width="1" fill="none" fill-rule="evenodd">
        <g id="菜单结构" transform="translate(-43.000000, -885.000000)" fill="#FFFFFF" fill-rule="nonzero">
            <g id="菜单">
                <g id="一级导航-copy-7" transform="translate(0.000000, 870.000000)">
                    <g id="分组-7-copy" transform="translate(43.000000, 15.000000)">
                        <g id="发布">
                            <path d="M9.309375,7.73065452 L4.3453125,7.73065452 C4.00178571,7.73065452 3.72455357,8.01792178 3.72455357,8.37388339 C3.72455357,8.72984499 4.00178571,9.01711225 4.3453125,9.01711225 L9.309375,9.01711225 C9.65290179,9.01711225 9.93013393,8.72984499 9.93013393,8.37388339 C9.93013393,8.01792178 9.65290179,7.73065452 9.309375,7.73065452 Z M11.7904018,3.87336297 L4.3453125,3.87336297 C4.00178571,3.87336297 3.72455357,4.16063024 3.72455357,4.51659184 C3.72455357,4.87255345 4.00178571,5.15982071 4.3453125,5.15982071 L11.7904018,5.15982071 C12.1339286,5.15982071 12.4111607,4.87255345 12.4111607,4.51659184 C12.4111607,4.16063024 12.1339286,3.87336297 11.7904018,3.87336297 Z M14.2734375,0.0160714286 L2.48504464,0.0160714286 C1.11495536,0.0160714286 0.00401785714,1.16722212 0.00401785714,2.58690524 L0.00401785714,15.4452376 C0.00401785714,16.8649207 1.11495536,18.0160714 2.48504464,18.0160714 L6.82834821,18.0160714 L6.82834821,16.7296137 L3.10379464,16.7296137 C2.07522321,16.7296137 1.24151786,15.8657303 1.24151786,14.7999271 L1.24151786,3.23013411 C1.24151786,2.16433094 2.07522321,1.30044751 3.10379464,1.30044751 L13.6526786,1.30044751 C14.68125,1.30044751 15.5149554,2.16433094 15.5149554,3.23013411 L15.5149554,5.80096792 L16.7544643,5.80096792 L16.7544643,2.58690524 C16.7544643,1.16722212 15.6435268,0.0160714286 14.2734375,0.0160714286 Z M6.82834821,11.5879461 L4.3453125,11.5879461 C4.00178571,11.5879461 3.72455357,11.8752133 3.72455357,12.2311749 C3.72455357,12.5871365 4.00178571,12.8744038 4.3453125,12.8744038 L6.82633929,12.8744038 C7.16986607,12.8744038 7.44709821,12.5871365 7.44709821,12.2311749 C7.44709821,11.877295 7.16986607,11.5879461 6.82834821,11.5879461 Z" id="形状"></path>
                            <g id="分组-7" transform="translate(7.585477, 7.371368)">
                                <path d="M1.46490743,9.98706775 C1.0868636,9.98706775 0.728909055,9.87201094 0.464095744,9.65650769 C0.171887952,9.41908886 0.00752106843,9.0757447 0.000215873623,8.68674308 C-0.0125682173,8.01283886 0.546279185,6.31803366 0.659509705,5.9856473 L0.696035679,5.87606938 L0.774566523,5.79205964 C1.23844639,5.2898275 5.31839769,0.873837235 5.66722074,0.545103469 C6.13292691,0.10861808 6.82509412,-0.0977536736 7.35106815,0.0446976251 C7.61588146,0.115923274 8.02314607,0.33325282 8.36101133,0.585282041 C8.70070289,0.837311261 9.14449347,1.24822847 9.33990743,1.77968139 C9.49149022,2.1924249 9.49879542,2.66178366 9.36364932,3.13844763 C9.26685548,3.47996548 9.12805678,3.71373172 9.11344639,3.7374736 L9.08605191,3.78313107 L9.04952594,3.82330964 C7.94278893,5.02318788 4.31210711,8.95338269 4.04912009,9.17801743 C3.92675808,9.28394275 3.69299185,9.43187295 2.97160386,9.65650769 C2.58260224,9.7770434 2.12785386,9.89392652 1.81373048,9.95236808 C1.69684737,9.97610996 1.57996425,9.98706775 1.46490743,9.98706775 L1.46490743,9.98706775 Z M1.6493636,6.44039568 C1.39916068,7.19648334 1.07773211,8.32148334 1.083211,8.6630012 C1.0850373,8.75066353 1.11425808,8.78536321 1.14713146,8.81093139 C1.24209899,8.88763594 1.43386035,8.91868301 1.61283763,8.88580964 C2.208211,8.77257912 3.15423373,8.48219763 3.3441688,8.35253042 C3.6217662,8.0895434 6.37582464,5.11998172 8.20577594,3.13662133 C8.27334899,3.00330152 8.46876295,2.55768464 8.32083276,2.15042003 C8.13455029,1.64270899 7.29810548,1.15326094 7.06799185,1.08934048 C6.95658763,1.0601197 6.64246425,1.11490866 6.40869802,1.33406451 C6.16945289,1.56052555 3.46287821,4.47895087 1.6493636,6.44039568 L1.6493636,6.44039568 Z" id="形状"></path>
                                <polygon id="路径" points="5.90829217 1.84542814 8.15646587 3.94019275 7.53369802 4.60313918 5.28552432 2.50837457"></polygon>
                            </g>
                        </g>
                    </g>
                </g>
            </g>
        </g>
    </g>
</svg>