<?xml version="1.0" encoding="UTF-8"?>
<svg width="16px" height="16px" viewBox="0 0 16 16" version="1.1" xmlns="http://www.w3.org/2000/svg" xmlns:xlink="http://www.w3.org/1999/xlink">
    <!-- Generator: Sketch 53.2 (72643) - https://sketchapp.com -->
    <title>新建</title>
    <desc>Created with Sketch.</desc>
    <g id="Page-1" stroke="none" stroke-width="1" fill="none" fill-rule="evenodd">
        <g id="首页" transform="translate(-1005.000000, -328.000000)" fill="#333333" fill-rule="nonzero">
            <g id="分组-27" transform="translate(990.000000, 313.000000)">
                <g id="分组-30" transform="translate(15.000000, 15.000000)">
                    <g id="新建">
                        <path d="M11.6039544,14.8530471 C11.6039544,14.9292836 11.5418341,14.9913345 11.466007,14.9913345 L1.14251257,14.9913345 C1.06619075,14.9913345 1.00407044,14.9292836 1.00407046,14.8530471 L1.00407046,1.14011318 C1.00407046,1.06387663 1.06619075,1.00182573 1.14251257,1.00182575 L11.4659887,1.00182575 C11.5418157,1.00182575 11.6039361,1.06387663 11.6039361,1.14011318 L11.6039361,3.37861251 L12.6058136,3.37861251 L12.6058136,1.14011318 C12.6058136,0.511953234 12.094613,0.00106763799 11.4659887,0.00106763799 L1.14251257,0.00106763799 C0.513906541,0.00106763799 0.00219293065,0.511953234 0.00219293065,1.14011318 L0.00219293065,14.8530471 C0.00219293065,15.481207 0.513888215,15.9920926 1.14251257,15.9920926 L11.4659887,15.9920926 C12.094613,15.9920926 12.6058136,15.481207 12.6058136,14.8530471 L12.6058136,12.7733541 L11.6039361,12.7733541 L11.6039361,14.8530471 L11.6039544,14.8530471 Z" id="路径"></path>
                        <path d="M15.9895736,5.77712622 C15.8080871,4.45264189 14.5782519,3.4841539 13.2114406,3.66959271 C13.0866869,3.68668873 12.9722133,3.75022225 12.8924831,3.84770985 L7.80976063,10.0293506 C7.76103239,10.0883246 7.72655275,10.1577142 7.70899381,10.2321417 L6.9267729,13.5456588 C6.88323372,13.7298895 6.9478095,13.9229062 7.09310502,14.0443172 C7.18323628,14.1196159 7.29699974,14.1608682 7.41449965,14.1608594 C7.48200737,14.1608594 7.55000984,14.1471863 7.61409086,14.1193274 L10.7561865,12.7555076 C10.8345068,12.7215885 10.9028691,12.6682714 10.9548065,12.6006 L15.8912623,6.14873596 C15.9719637,6.0429566 16.0071835,5.90906215 15.9895736,5.77712622 Z M8.55819102,10.9959349 C9.18648553,10.9486921 9.75630634,11.4017916 9.84334804,12.0357357 C9.84442919,12.0435881 9.84571191,12.0513857 9.84714124,12.05911 L8.13165,12.8036474 L8.55819102,10.9959349 Z M10.6739092,11.3194232 C10.3880642,10.6620865 9.79654711,10.1835626 9.09911399,10.0378803 L12.245864,6.21082345 C12.942949,6.17646666 13.5702173,6.63888302 13.7407458,7.31110093 L10.6739092,11.3194232 Z M14.4363281,6.40193652 C14.1139989,5.86637699 13.5969162,5.4703862 12.9950641,5.2996273 L13.5313693,4.64737916 C14.1981454,4.63687262 14.7827358,5.09204055 14.9573689,5.72093265 L14.4363281,6.40193652 Z" id="形状"></path>
                    </g>
                </g>
            </g>
        </g>
    </g>
</svg>