<?xml version="1.0" encoding="UTF-8"?>
<svg width="16px" height="12px" viewBox="0 0 16 12" version="1.1" xmlns="http://www.w3.org/2000/svg" xmlns:xlink="http://www.w3.org/1999/xlink">
    <!-- Generator: Sketch 53.2 (72643) - https://sketchapp.com -->
    <title>73-查看</title>
    <desc>Created with Sketch.</desc>
    <g id="Page-1" stroke="none" stroke-width="1" fill="none" fill-rule="evenodd">
        <g id="首页" transform="translate(-1005.000000, -269.000000)" fill="#333333" fill-rule="nonzero">
            <g id="分组-19" transform="translate(990.000000, 252.000000)">
                <g id="分组-29" transform="translate(15.000000, 17.000000)">
                    <g id="73-查看" transform="translate(0.000000, 0.000000)">
                        <path d="M7.9593423,7.51526457 C7.3094476,7.52022575 6.72078191,7.13255723 6.46863278,6.53355093 C6.21648366,5.93454463 6.3506858,5.24258801 6.80848001,4.7812723 C7.26627423,4.31995658 7.95718218,4.18045611 8.55810305,4.42800782 C9.15902391,4.67555952 9.55119183,5.26123734 9.55121076,5.91115097 C9.54465618,6.7895932 8.83770851,7.50197893 7.9593423,7.51526457 L7.9593423,7.51526457 Z M7.9593423,3.22946487 C6.87360096,3.2245071 5.89200903,3.87472621 5.473074,4.87640095 C5.05413898,5.8780757 5.28054028,7.03351936 6.04652449,7.80301727 C6.81250871,8.57251517 7.96690412,8.80420215 8.97048568,8.38985581 C9.97406725,7.97550947 10.6287719,6.99690363 10.6287833,5.91115097 C10.6287986,4.43486551 9.43561237,3.2362059 7.9593423,3.22946487 L7.9593423,3.22946487 Z M14.914583,5.9478864 C13.7035545,8.74343237 11.0030075,10.6024357 7.9593423,10.7357369 C4.92234834,10.6039674 2.22465608,8.75642812 1.00410164,5.97237668 L1.00410164,5.91115097 C2.20428641,3.10125772 4.90706802,1.2264409 7.9593423,1.08656502 C10.9899531,1.21782356 13.6824645,3.06031812 14.9023378,5.83768012 L14.9023378,5.92339611 L14.914583,5.9478864 Z M15.9921555,5.9478864 C15.9998388,5.88690174 15.9998388,5.82519393 15.9921555,5.76420927 C15.9980562,5.70312573 15.9980562,5.64161567 15.9921555,5.58053214 L15.9921555,5.47032586 C14.6012748,2.24527386 11.4698965,0.116318508 7.9593423,0.00899252616 C4.49167697,0.140112908 1.40439844,2.24269706 0.012245142,5.42134529 L0.012245142,5.54379671 C0.00421552271,5.58833657 0.00421552271,5.63395342 0.012245142,5.67849327 L0.012245142,5.8621704 C0.00809924694,5.89878886 0.00809924694,5.93575823 0.012245142,5.97237668 L0.012245142,6.10707324 C0.00919483393,6.1478334 0.00919483393,6.18876451 0.012245142,6.22952466 L0.012245142,6.40095665 C1.41033777,9.572871 4.49548202,11.6692479 7.9593423,11.8010643 C11.4132832,11.6680486 14.4887949,9.57651054 15.8819492,6.41320179 C15.8854745,6.37655094 15.8854745,6.33964636 15.8819492,6.30299552 C15.8886606,6.25834747 15.8886606,6.212947 15.8819492,6.16829895 C15.929703,6.0877362 15.9667506,6.00129182 15.9921555,5.91115097 L15.9921555,5.9478864 Z" id="形状"></path>
                    </g>
                </g>
            </g>
        </g>
    </g>
</svg>