<?xml version="1.0" encoding="UTF-8"?>
<svg width="18px" height="18px" viewBox="0 0 18 18" version="1.1" xmlns="http://www.w3.org/2000/svg" xmlns:xlink="http://www.w3.org/1999/xlink">
    <!-- Generator: Sketch 53.2 (72643) - https://sketchapp.com -->
    <title>合同</title>
    <desc>Created with Sketch.</desc>
    <g id="Page-1" stroke="none" stroke-width="1" fill="none" fill-rule="evenodd">
        <g id="菜单结构" transform="translate(-43.000000, -562.000000)" fill="#FFFFFF" fill-rule="nonzero">
            <g id="菜单">
                <g id="一级导航" transform="translate(0.000000, 548.000000)">
                    <g id="合同-copy" transform="translate(43.000000, 14.000000)">
                        <g id="分组-54" transform="translate(0.000000, 0.009288)">
                            <path d="M1.66305882,17.7570155 C0.751058824,17.7570155 7.51825269e-13,17.0071916 7.51825269e-13,16.0966913 L-9.05941988e-14,1.66032417 C-9.05941988e-14,0.74982382 0.751058824,-6.39488462e-14 1.66305882,-6.39488462e-14 L13.1569412,-6.39488462e-14 C14.0689412,-6.39488462e-14 14.82,0.74982382 14.82,1.66032417 L14.82,4.61945032 C14.82,4.99436223 14.5115294,5.30232558 14.136,5.30232558 C13.7604706,5.30232558 13.452,4.99436223 13.452,4.61945032 L13.452,1.66032417 C13.452,1.49964764 13.3178824,1.36575053 13.1569412,1.36575053 L1.66305882,1.36575053 C1.50211765,1.36575053 1.368,1.49964764 1.368,1.66032417 L1.368,16.0966913 C1.368,16.2573678 1.50211765,16.3912649 1.66305882,16.3912649 L7.296,16.3912649 C7.47035294,16.3912649 7.64470588,16.4716032 7.76541176,16.6055003 C7.88611765,16.7393974 7.95317647,16.9134637 7.95317647,17.0875299 C7.93976471,17.4490521 7.65811765,17.7436258 7.28258824,17.7570155 L1.66305882,17.7570155 Z" id="路径"></path>
                            <path d="M3.29929412,5.91293703 C2.964,5.91293703 2.69576471,5.64470174 2.69576471,5.30940762 C2.69576471,4.9741135 2.964,4.70587821 3.29929412,4.70587821 L10.1929412,4.70587821 C10.5282353,4.70587821 10.7964706,4.9741135 10.7964706,5.30940762 C10.7964706,5.64470174 10.5282353,5.91293703 10.1929412,5.91293703 L3.29929412,5.91293703 Z M3.29929412,9.01105468 C2.964,9.01105468 2.69576471,8.74281938 2.69576471,8.40752527 C2.69576471,8.07223115 2.964,7.80399586 3.29929412,7.80399586 L7.77882353,7.80399586 C8.11411765,7.80399586 8.38235294,8.07223115 8.38235294,8.40752527 C8.38235294,8.74281938 8.11411765,9.01105468 7.77882353,9.01105468 L3.29929412,9.01105468 Z M3.29929412,12.1225841 C2.964,12.1225841 2.69576471,11.8543488 2.69576471,11.5056429 C2.69576471,11.1703488 2.964,10.9021135 3.29929412,10.8887017 L6.20964706,10.8887017 C6.54494118,10.8887017 6.81317647,11.156937 6.81317647,11.5056429 C6.81317647,11.840937 6.54494118,12.1225841 6.20964706,12.1225841 L3.29929412,12.1225841 Z" id="合并形状"></path>
                            <g id="分组-53" transform="translate(10.574431, 7.844231)">
                                <path d="M3.60105896,4.24482353 C2.43423539,4.24482353 1.47864712,3.28923529 1.47864712,2.12241176 C1.47864712,0.955588235 2.43423539,-1.65378822e-12 3.60105896,-1.65378822e-12 C4.76788254,-1.65378822e-12 5.72347081,0.955588235 5.72347081,2.12241176 C5.72347081,3.29929412 4.76788254,4.24482353 3.60105896,4.24482353 Z M3.60105896,0.915352941 C2.93717659,0.915352941 2.39400009,1.45852941 2.39400009,2.12241176 C2.39400009,2.78629412 2.93717659,3.32947059 3.60105896,3.32947059 C4.26494134,3.32947059 4.80811784,2.78629412 4.80811784,2.12241176 C4.80811784,1.45852941 4.26494134,0.915352941 3.60105896,0.915352941 Z M6.74947085,9.62629412 L0.452647077,9.62629412 C0.201176478,9.62629412 6.57252031e-14,9.42511765 6.57252031e-14,9.17364706 L6.57252031e-14,6.96070588 C6.57252031e-14,6.70923529 0.201176478,6.50805882 0.452647077,6.50805882 L6.74947085,6.50805882 C7.00094145,6.50805882 7.20211793,6.70923529 7.20211793,6.96070588 L7.20211793,9.17364706 C7.21217675,9.42511765 7.00094145,9.62629412 6.74947085,9.62629412 L6.74947085,9.62629412 Z M0.905294153,8.721 L6.29682378,8.721 L6.29682378,7.42341176 L0.905294153,7.42341176 L0.905294153,8.721 Z" id="形状"></path>
                                <path d="M1.42835294,7.39323529 C1.24729412,7.39323529 1.07629412,7.27252941 1.01594118,7.09147059 C0.945529412,6.87017647 1.07629412,6.62876471 1.29758824,6.55835294 C2.85670588,6.07552941 2.52476471,3.95311765 2.50464706,3.86258824 C2.46441176,3.63123529 2.62535294,3.40994118 2.85670588,3.36970588 C3.08805882,3.32947059 3.30935294,3.49041176 3.34958824,3.72176471 C3.52058824,4.73770588 3.36970588,6.80982353 1.54905882,7.37311765 C1.50882353,7.38317647 1.46858824,7.39323529 1.42835294,7.39323529 L1.42835294,7.39323529 Z M5.87435294,7.39323529 C5.83411765,7.39323529 5.79388235,7.38317647 5.74358824,7.37311765 C3.92294118,6.80982353 3.77205882,4.73770588 3.94305882,3.72176471 C3.98329412,3.49041176 4.20458824,3.32947059 4.43594118,3.36970588 C4.66729412,3.40994118 4.82823529,3.63123529 4.788,3.86258824 C4.77794118,3.95311765 4.446,6.07552941 5.99505882,6.55835294 C6.21635294,6.62876471 6.34711765,6.87017647 6.27670588,7.09147059 C6.22641176,7.27252941 6.05541176,7.39323529 5.87435294,7.39323529 Z" id="形状"></path>
                            </g>
                        </g>
                    </g>
                </g>
            </g>
        </g>
    </g>
</svg>