<?xml version="1.0" encoding="UTF-8"?>
<svg width="20px" height="20px" viewBox="0 0 20 20" version="1.1" xmlns="http://www.w3.org/2000/svg" xmlns:xlink="http://www.w3.org/1999/xlink">
    <!-- Generator: Sketch 53.2 (72643) - https://sketchapp.com -->
    <title>销售额</title>
    <desc>Created with Sketch.</desc>
    <g id="Page-1" stroke="none" stroke-width="1" fill="none" fill-rule="evenodd">
        <g id="首页" transform="translate(-275.000000, -1242.000000)">
            <g id="分组-9-copy-4" transform="translate(255.000000, 1241.000000)">
                <g id="标签" transform="translate(20.000000, 0.000000)">
                    <g id="分组-3">
                        <g id="分组-48" transform="translate(0.000000, 1.000000)">
                            <g id="分组-47">
                                <circle id="椭圆形" fill="#333333" cx="10" cy="10" r="10"></circle>
                                <g id="书写笔-记录-copy" transform="translate(5.000000, 5.000000)" fill="#FFFFFF" fill-rule="nonzero">
                                    <path d="M3.20639571,8.61046317 C3.12553262,8.61012748 3.04816832,8.57743834 2.99156436,8.51968936 L0.940076265,6.47122705 C0.824750299,6.35357103 0.824750299,6.16527197 0.940076265,6.04761595 L6.34111793,0.416613959 C6.66959627,0.101014459 7.12427387,-0.0472015201 7.57564174,0.0141834077 C8.05049937,0.0684477812 8.49304508,0.281722823 8.8313461,0.619342143 C9.16896542,0.957643168 9.38224046,1.40018887 9.43650484,1.8750465 C9.49733888,2.32453712 9.34907078,2.777145 9.03407429,3.10351872 L3.41820126,8.52574095 C3.36135672,8.58053358 3.28534702,8.61093746 3.20639571,8.61046317 Z M1.57851872,6.25034412 L3.2094215,7.8812469 L8.62559214,2.67990762 C8.81336871,2.48664801 8.90155963,2.21760988 8.86462984,1.95069134 C8.82546574,1.60524041 8.66710838,1.28424576 8.41681238,1.04295324 C8.17190396,0.803386134 7.85293558,0.654036395 7.51210007,0.619342143 C7.24402615,0.582098736 6.97331603,0.666418279 6.77380643,0.849302455 L1.57851872,6.25034412 Z" id="形状"></path>
                                    <path d="M0.51343936,9.4546596 C0.354738943,9.45577935 0.204732462,9.38227496 0.10837164,9.25617314 C0.0120108183,9.13007132 -0.0195078111,8.96602433 0.0232607887,8.81319134 L0.782735,6.31993738 C0.81141013,6.21267329 0.896529799,6.12973013 1.00450051,6.10384242 C1.11247122,6.0779547 1.22594794,6.11328118 1.30014571,6.19587984 L3.26691158,8.18382626 C3.34724665,8.26227602 3.37753289,8.37876157 3.34558222,8.48640563 C3.32029684,8.59027206 3.24208154,8.67308826 3.13982824,8.70426277 L0.655651666,9.46071119 C0.608206953,9.46566772 0.56029149,9.46362876 0.51343936,9.4546596 L0.51343936,9.4546596 Z M1.21542348,6.97350881 L0.658677455,8.788985 L2.47415365,8.23526476 L1.21542348,6.97350881 Z M3.13075086,6.67092943 C3.00782344,6.67164432 2.8966815,6.59791589 2.84954239,6.48438366 C2.80240328,6.37085143 2.82863749,6.24008379 2.91591952,6.15351872 L7.02494729,2.03541357 C7.08176159,1.97813147 7.15909963,1.9459111 7.23977865,1.9459111 C7.32045767,1.9459111 7.3977957,1.97813147 7.45461,2.03541357 C7.57192716,2.15343086 7.57192716,2.34403319 7.45461,2.46205048 L3.34558222,6.57107824 C3.29051934,6.63217721 3.21295613,6.66822772 3.13075086,6.67092943 L3.13075086,6.67092943 Z M6.19285405,7.37896515 C6.00799149,7.37988728 5.83042514,7.30689989 5.69964967,7.17623698 C5.64236757,7.11942268 5.6101472,7.04208465 5.6101472,6.96140563 C5.6101472,6.88072662 5.64236757,6.80338858 5.69964967,6.74657429 C5.81766696,6.62925712 6.00826929,6.62925712 6.12628658,6.74657429 C6.14093379,6.76811402 6.16529309,6.78100724 6.19134115,6.78100724 C6.2173892,6.78100724 6.2417485,6.76811402 6.25639571,6.74657429 L8.89791357,4.10505643 C8.91576922,4.08756325 8.92562099,4.06348115 8.92514571,4.03848896 C8.92480467,4.01454562 8.91501665,3.9917069 8.89791357,3.97494729 L8.32906436,3.4060981 C8.21125184,3.28745002 8.21192919,3.09576083 8.33057726,2.9779483 C8.44922534,2.86013578 8.64091452,2.86081312 8.75872705,2.97946119 L9.32757626,3.54831039 C9.59715827,3.82067783 9.59715827,4.25932589 9.32757626,4.53169333 L6.68303262,7.17623698 C6.55299767,7.30615551 6.37666889,7.3790816 6.19285405,7.37896515 L6.19285405,7.37896515 Z" id="形状"></path>
                                </g>
                            </g>
                        </g>
                    </g>
                </g>
            </g>
        </g>
    </g>
</svg>
