<?xml version="1.0" encoding="UTF-8"?>
<svg width="16px" height="16px" viewBox="0 0 16 16" version="1.1" xmlns="http://www.w3.org/2000/svg" xmlns:xlink="http://www.w3.org/1999/xlink">
    <!-- Generator: Sketch 53.2 (72643) - https://sketchapp.com -->
    <title>应收款 copy</title>
    <desc>Created with Sketch.</desc>
    <g id="Page-1" stroke="none" stroke-width="1" fill="none" fill-rule="evenodd">
        <g id="首页" transform="translate(-1210.000000, -267.000000)" fill="#3E3A39" fill-rule="nonzero">
            <g id="分组-18" transform="translate(1195.000000, 252.000000)">
                <g id="分组-34" transform="translate(15.000000, 15.000000)">
                    <g id="应收款-copy" transform="translate(0.000000, -0.000000)">
                        <path d="M15.9712139,9.41906174 C15.9019146,9.21678318 15.7120646,9.08085697 15.4983093,9.08085696 L13.2997679,9.08085696 L13.2997679,1.00159408 C13.2997679,0.450366248 12.8512809,0.00211727374 12.3002911,0.00211727374 L3.67589562,0.00211727374 C3.12490574,0.00211727374 2.67641881,0.450366266 2.67641879,1.00159408 L2.67641879,9.08085696 L0.50615714,9.08085696 C0.292550313,9.08079885 0.102519848,9.21650338 0.0332525408,9.41856753 C-0.0360299558,9.62067379 0.0308538475,9.84446824 0.199673368,9.9754147 L7.68160041,15.7856104 C7.76928875,15.8536239 7.87711086,15.8905348 7.98808418,15.8905295 C8.09882467,15.8905144 8.20643523,15.8537838 8.29407374,15.7860863 L15.8043172,9.97589061 C15.9731725,9.84510784 16.0405133,9.62134028 15.9712139,9.41906174 Z M7.9885784,14.7585493 L1.96438949,10.0803338 L3.17615719,10.0803338 C3.45238429,10.0803338 3.6758956,9.85658453 3.67589562,9.58059538 L3.67589562,1.00159408 L12.3002911,1.00159408 L12.3002911,9.58059538 C12.3002911,9.85656622 12.5238024,10.0803338 12.8000295,10.0803338 L14.0357206,10.0803338 L7.9885784,14.7585493 Z" id="形状"></path>
                        <path d="M10.2632649,7.65850063 L10.2637408,7.65850063 C10.5394737,7.65850063 10.7634792,7.43498932 10.7634792,7.15925644 C10.7634792,6.88302935 10.5399679,6.65928007 10.264235,6.65902382 L9.03998393,6.65810862 L10.3945419,5.04440129 C10.5721831,4.83284255 10.5448551,4.51782908 10.3330584,4.34018783 C10.1212617,4.16254659 9.80599199,4.19110098 9.62932087,4.40167129 L8.03686459,6.29881754 L6.44396902,4.40167129 C6.26779211,4.19108267 5.95155225,4.16254659 5.74023145,4.34042578 C5.52843477,4.51782908 5.50110675,4.83308051 5.67874801,5.04440129 L7.03239076,6.65658937 L5.74171409,6.65561927 L5.74121988,6.65561927 C5.46548698,6.65561927 5.24148147,6.87913058 5.24148147,7.15486346 C5.24148147,7.43109056 5.46499279,7.65483983 5.74072567,7.65509608 L7.50388594,7.65643227 L7.5031904,8.41579597 L5.74169579,8.41445976 L5.74120157,8.41445976 C5.46546867,8.41445976 5.24146317,8.63797107 5.24146317,8.91370397 C5.24146317,9.18993107 5.46497448,9.41368034 5.74070736,9.41393659 L7.50225688,9.41527278 L7.5010122,10.7728509 C7.50053629,11.0488218 7.72452351,11.2728273 8.0002747,11.2730835 L8.00076891,11.2730835 C8.27650181,11.2730835 8.5000131,11.0495722 8.50050732,10.773821 L8.50175201,9.41602326 L10.2632649,9.41735945 L10.2637408,9.41735945 C10.5394737,9.41735945 10.7634792,9.19384813 10.7634792,8.91811525 C10.7634792,8.64188816 10.5399679,8.41813889 10.264235,8.41788264 L8.50266721,8.41654643 L8.50336275,7.65718275 L10.2632649,7.65850063 Z" id="路径"></path>
                    </g>
                </g>
            </g>
        </g>
    </g>
</svg>