<?xml version="1.0" encoding="UTF-8"?>
<svg width="20px" height="20px" viewBox="0 0 20 20" version="1.1" xmlns="http://www.w3.org/2000/svg" xmlns:xlink="http://www.w3.org/1999/xlink">
    <!-- Generator: Sketch 53.2 (72643) - https://sketchapp.com -->
    <title>诊断报告</title>
    <desc>Created with Sketch.</desc>
    <g id="Page-1" stroke="none" stroke-width="1" fill="none" fill-rule="evenodd">
        <g id="首页" transform="translate(-275.000000, -140.000000)">
            <g id="诊断报告" transform="translate(255.000000, 124.000000)">
                <g id="分组-43" transform="translate(20.000000, 16.000000)">
                    <g id="分组-41">
                        <circle id="椭圆形-copy-2" fill="#333333" cx="10" cy="10" r="10"></circle>
                        <g id="报告管理" transform="translate(5.000000, 4.000000)" fill="#FFFFFF" fill-rule="nonzero">
                            <path d="M8.44469105,1.63619718 L7.67061435,1.63619718 C7.51736506,1.1753307 7.08334517,0.841985529 6.57102273,0.841985529 L3.87517756,0.841985529 C3.36397372,0.841985529 2.92883523,1.1753307 2.77558594,1.63619718 L2.00150923,1.63619718 C1.40976562,1.63619718 0.927645597,2.11831721 0.927645597,2.71006081 L0.927645597,9.77966309 C0.927645597,10.3714067 1.40976562,10.8535267 2.00150923,10.8535267 L8.44469105,10.8535267 C9.03643466,10.8535267 9.51855469,10.3714067 9.51855469,9.77966309 L9.51855469,2.71006081 C9.51855469,2.11831721 9.03643466,1.63619718 8.44469105,1.63619718 Z M3.87517756,1.55789462 L6.57102273,1.55789462 C6.81487926,1.55789462 7.01287287,1.75588823 7.01287287,1.99974476 C7.01287287,2.2436013 6.81487926,2.4415949 6.57102273,2.4415949 L3.87517756,2.4415949 C3.63132102,2.4415949 3.43332741,2.2436013 3.43332741,1.99974476 C3.43332741,1.75588823 3.63132102,1.55789462 3.87517756,1.55789462 Z M8.8026456,9.77966309 C8.8026456,9.97653809 8.64156605,10.1376176 8.44469105,10.1376176 L2.00150923,10.1376176 C1.80463423,10.1376176 1.64355469,9.97653809 1.64355469,9.77966309 L1.64355469,2.71006081 C1.64355469,2.51318581 1.80463423,2.35210627 2.00150923,2.35210627 L2.77223011,2.35210627 C2.92212358,2.81856578 3.35949929,3.157504 3.87517756,3.157504 L6.57102273,3.157504 C7.08670099,3.157504 7.5240767,2.81856578 7.67397017,2.35210627 L8.44469105,2.35210627 C8.64156605,2.35210627 8.8026456,2.51318581 8.8026456,2.71006081 L8.8026456,9.77966309 Z" id="形状"></path>
                            <path d="M7.50058594,4.66426891 C7.34398082,4.54345925 7.11914062,4.57142445 6.99833097,4.72802956 L5.08551136,7.19903453 L3.86175426,6.1117476 C3.71409801,5.98087047 3.4881392,5.99317516 3.35614347,6.14195002 C3.22526634,6.28960627 3.23757102,6.51556507 3.38634588,6.64756081 L4.89646662,7.98989036 C4.90094105,7.99436479 4.90317827,7.9954834 4.90541548,7.99772061 C4.9076527,7.99995783 4.91100852,8.00219505 4.91324574,8.00443226 C4.92443182,8.01338113 4.93114347,8.01897417 4.93897372,8.0234486 C4.94009233,8.0234486 4.94009233,8.02456721 4.94121094,8.02456721 C4.94904119,8.03016025 4.95799006,8.03463468 4.96582031,8.03910911 C4.97476918,8.04358354 4.98259943,8.04805797 4.9915483,8.0514138 C5.00049716,8.05476962 5.00944602,8.05812544 5.01727628,8.06036266 C5.01839489,8.06036266 5.01951349,8.06148127 5.02175071,8.06148127 L5.04524148,8.06819292 C5.04747869,8.06819292 5.0485973,8.06931152 5.05083452,8.06931152 C5.05866477,8.07154874 5.06649503,8.07266735 5.07432528,8.07378596 C5.0765625,8.07378596 5.07768111,8.07490456 5.07991832,8.07490456 L5.10340909,8.07826039 C5.11571378,8.079379 5.12354403,8.079379 5.1324929,8.079379 L5.15262784,8.079379 C5.16381392,8.07826039 5.16828835,8.07826039 5.17164418,8.07714178 C5.18283026,8.07602317 5.18730469,8.07490456 5.19066051,8.07490456 C5.19289773,8.07490456 5.19625355,8.07378596 5.19849077,8.07378596 C5.20184659,8.07266735 5.20632102,8.07266735 5.20967685,8.07154874 C5.21191406,8.07154874 5.21415128,8.07043013 5.2175071,8.06931152 C5.22086293,8.06819292 5.22533736,8.06707431 5.22869318,8.0659557 C5.2309304,8.06483709 5.23316761,8.06483709 5.23540483,8.06371848 C5.23876065,8.06259988 5.24323509,8.06148127 5.24659091,8.06036266 C5.24882812,8.05924405 5.25106534,8.05924405 5.25330256,8.05812544 C5.25665838,8.05700684 5.26113281,8.05588823 5.26448864,8.05365101 L5.27120028,8.05029519 C5.27455611,8.04917658 5.27903054,8.04693936 5.28238636,8.04582076 L5.28909801,8.04246493 C5.29245384,8.04022772 5.29580966,8.03910911 5.29916548,8.03687189 L5.30587713,8.03351607 C5.30923295,8.03127885 5.31258878,8.03016025 5.3159446,8.02792303 C5.31818182,8.02680442 5.32041903,8.02456721 5.32377486,8.0234486 C5.32713068,8.02121138 5.3293679,8.02009277 5.33272372,8.01785556 C5.33496094,8.01561834 5.33831676,8.01449973 5.34055398,8.01226252 C5.34279119,8.0100253 5.34502841,8.00890669 5.34838423,8.00666948 C5.35174006,8.00443226 5.35397727,8.00219505 5.3573331,7.99995783 C5.3584517,7.99883922 5.35957031,7.99772061 5.36180753,7.99660201 C5.36851918,7.99100897 5.37634943,7.98429732 5.38306108,7.97758567 C5.38417969,7.97646706 5.3864169,7.97534846 5.38753551,7.97311124 C5.38977273,7.97087402 5.39200994,7.9675182 5.39424716,7.96528098 L5.40095881,7.95856934 C5.40319602,7.95521351 5.40543324,7.9540949 5.40655185,7.95185769 C5.40990767,7.94850186 5.41214489,7.94514604 5.41550071,7.94067161 L7.56434659,5.16428667 C7.68515625,5.00991877 7.65719105,4.78507857 7.50058594,4.66426891 Z" id="路径"></path>
                        </g>
                    </g>
                </g>
            </g>
        </g>
    </g>
</svg>
