<?xml version="1.0" encoding="UTF-8"?>
<svg width="11px" height="13px" viewBox="0 0 11 13" version="1.1" xmlns="http://www.w3.org/2000/svg" xmlns:xlink="http://www.w3.org/1999/xlink">
    <!-- Generator: Sketch 53.2 (72643) - https://sketchapp.com -->
    <title>身份认证 (1)</title>
    <desc>Created with Sketch.</desc>
    <g id="Page-1" stroke="none" stroke-width="1" fill="none" fill-rule="evenodd">
        <g id="个人切换" transform="translate(-44.000000, -89.000000)" fill-rule="nonzero">
            <g id="菜单">
                <g id="总" transform="translate(0.000000, 74.000000)">
                    <g id="分组-17" transform="translate(44.000000, 15.000000)">
                        <g id="身份认证-(1)">
                            <path d="M5.5,13 C5.19665461,13 4.89330922,12.9286338 4.61482821,12.7859014 C2.89089813,11.897068 0,10.0642545 0,7.77080474 L0,2.82220836 C0,2.50268247 0.258589512,2.2415471 0.583484027,2.23181535 C1.82172996,2.19126638 2.98372514,1.62844666 3.7677818,0.684466625 C4.13080169,0.249781659 4.68113321,0 5.27953586,0 L5.44861362,0 C6.0088909,0 6.5443038,0.254647536 6.91561181,0.697442296 C7.73945148,1.68034934 8.96112116,2.23343731 10.2640145,2.23343731 C10.2955093,2.23343731 10.3270042,2.23343731 10.3584991,2.23181535 C10.5259192,2.22046163 10.6883665,2.27885215 10.8093731,2.39076731 C10.9303797,2.50268247 11,2.65839052 11,2.8205864 L11,7.77080474 C11,10.0642545 8.10910187,11.897068 6.38517179,12.7859014 C6.1083484,12.9286338 5.80334539,13 5.5,13 L5.5,13 Z" id="形状" fill="#F5A623"></path>
                            <path d="M5,9.1023418 C5,8.73687305 5.29626563,8.4405918 5.66175,8.4405918 C6.02721875,8.4405918 6.3235,8.73685742 6.3235,9.1023418 C6.3235,9.46781055 6.02721875,9.7640918 5.66175,9.7640918 C5.29628125,9.7640918 5,9.46782617 5,9.1023418 Z M5,6.9909668 L5,3.80780566 C5,3.50527441 5.29778125,3.24057129 5.66175,3.24057129 C6.02570313,3.24057129 6.3235,3.50527441 6.3235,3.80780566 L6.3235,6.9909668 C6.3235,7.29349805 6.02571875,7.5582168 5.66175,7.5582168 C5.29779688,7.5582168 5,7.29349805 5,6.9909668 Z" id="合并形状" fill="#FFFFFF"></path>
                        </g>
                    </g>
                </g>
            </g>
        </g>
    </g>
</svg>