<?xml version="1.0" encoding="UTF-8"?>
<svg width="17px" height="18px" viewBox="0 0 17 18" version="1.1" xmlns="http://www.w3.org/2000/svg" xmlns:xlink="http://www.w3.org/1999/xlink">
    <!-- Generator: Sketch 53.2 (72643) - https://sketchapp.com -->
    <title>数据分析</title>
    <desc>Created with Sketch.</desc>
    <g id="Page-1" stroke="none" stroke-width="1" fill="none" fill-rule="evenodd">
        <g id="菜单" transform="translate(-43.000000, -837.000000)" fill="#FFFFFF" fill-rule="nonzero">
            <g id="一级导航-copy-6">
                <g transform="translate(0.000000, 824.000000)">
                    <g id="分组-7-copy" transform="translate(43.000000, 13.000000)">
                        <path d="M12.4273425,12.8571429 L4.5811887,12.8571429 C4.22026563,12.8571429 3.92734255,13.1451429 3.92734255,13.5 C3.92734255,13.8548571 4.22026563,14.1428571 4.5811887,14.1428571 L12.4273425,14.1428571 C12.7882656,14.1428571 13.0811887,13.8548571 13.0811887,13.5 C13.0811887,13.1451429 12.7895733,12.8571429 12.4273425,12.8571429 Z M12.4273425,9 L4.5811887,9 C4.22026563,9 3.92734255,9.288 3.92734255,9.64285714 C3.92734255,9.99771429 4.22026563,10.2857143 4.5811887,10.2857143 L12.4273425,10.2857143 C12.7882656,10.2857143 13.0811887,9.99771429 13.0811887,9.64285714 C13.0811887,9.288 12.7895733,9 12.4273425,9 Z M14.388881,1.28571429 L11.7734964,1.28571429 L11.7734964,0.642857143 C11.7734964,0.288 11.4805733,0 11.1196502,0 C10.7587272,0 10.4658041,0.288 10.4658041,0.642857143 L10.4658041,1.28571429 L6.54272716,1.28571429 L6.54272716,0.642857143 C6.54272716,0.288 6.24980409,0 5.88888101,0 C5.52795793,0 5.23503486,0.288 5.23503486,0.642857143 L5.23503486,1.28571429 L2.61965024,1.28571429 C1.17595793,1.28571429 0.004265625,2.43771429 0.004265625,3.85714286 L0.004265625,15.4285714 C0.004265625,16.848 1.17595793,18 2.61965024,18 L14.388881,18 C15.8325733,18 17.0042656,16.848 17.0042656,15.4285714 L17.0042656,3.85714286 C17.0042656,2.43771429 15.833881,1.28571429 14.388881,1.28571429 Z M15.6965733,15.4285714 C15.6965733,16.1395714 15.1120349,16.7142857 14.388881,16.7142857 L2.61965024,16.7142857 C1.89649639,16.7142857 1.31195793,16.1395714 1.31195793,15.4285714 L1.31195793,3.85714286 C1.31195793,3.14614286 1.89649639,2.57142857 2.61965024,2.57142857 L5.23503486,2.57142857 L5.23503486,3.21428571 C5.23503486,3.56914286 5.52795793,3.85714286 5.88888101,3.85714286 C6.24980409,3.85714286 6.54272716,3.56914286 6.54272716,3.21428571 L6.54272716,2.57142857 L10.4658041,2.57142857 L10.4658041,3.21428571 C10.4658041,3.56914286 10.7587272,3.85714286 11.1196502,3.85714286 C11.4805733,3.85714286 11.7734964,3.56914286 11.7734964,3.21428571 L11.7734964,2.57142857 L14.388881,2.57142857 C15.1120349,2.57142857 15.6965733,3.14614286 15.6965733,3.85714286 L15.6965733,15.4285714 Z M12.4273425,5.14285714 L4.5811887,5.14285714 C4.22026563,5.14285714 3.92734255,5.43085714 3.92734255,5.78571429 C3.92734255,6.14057143 4.22026563,6.42857143 4.5811887,6.42857143 L12.4273425,6.42857143 C12.7882656,6.42857143 13.0811887,6.14057143 13.0811887,5.78571429 C13.0811887,5.43085714 12.7895733,5.14285714 12.4273425,5.14285714 Z" id="形状"></path>
                    </g>
                </g>
            </g>
        </g>
    </g>
</svg>