<?xml version="1.0" encoding="UTF-8"?>
<svg width="17px" height="18px" viewBox="0 0 17 18" version="1.1" xmlns="http://www.w3.org/2000/svg" xmlns:xlink="http://www.w3.org/1999/xlink">
    <!-- Generator: Sketch 53.2 (72643) - https://sketchapp.com -->
    <title>运营</title>
    <desc>Created with Sketch.</desc>
    <g id="Page-1" stroke="none" stroke-width="1" fill="none" fill-rule="evenodd">
        <g id="菜单结构" transform="translate(-43.000000, -609.000000)" fill="#FFFFFF" fill-rule="nonzero">
            <g id="菜单">
                <g id="一级导航" transform="translate(0.000000, 594.000000)">
                    <g id="分组-2-copy-5" transform="translate(43.000000, 12.000000)">
                        <g id="分组-58-copy" transform="translate(0.000000, 3.000000)">
                            <g id="运营">
                                <path d="M9.62983112,8.67608036 L6.64296429,5.91129241 C6.44164955,5.77468527 6.17307589,5.79302679 5.99227232,5.95585045 L2.73810937,8.8848683 C2.52100446,9.0802567 2.50342634,9.41458259 2.69883482,9.6316875 C2.89422321,9.84873214 3.22858929,9.86633036 3.44565402,9.67094196 L6.39188839,7.01907589 L9.36051416,9.77144866 C9.44809223,9.83092889 9.55152666,9.86271233 9.65739362,9.86267411 C9.77847442,9.86273075 9.89589988,9.82119177 9.99001193,9.74501116 L14.1465454,6.38320982 C14.3736146,6.19955357 14.4088311,5.86661384 14.2251548,5.63952455 C14.0414985,5.41245536 13.7085588,5.37719866 13.4814494,5.56089509 L9.62983112,8.67608036 Z" id="路径"></path>
                                <path d="M8.94349173,1.33714286 L8.94349173,0.551008929 C8.94349173,0.254551339 8.70237724,0.00476116071 8.40784146,0.01040625 C8.12230905,0.0158303571 7.89249368,0.250473214 7.89249368,0.539116071 L7.89249368,1.33714286 L1.19431006,1.33714286 C0.536186089,1.33714286 0.002671875,1.87402902 0.002671875,2.5363125 L0.002671875,12.411442 C0.002671875,13.0737254 0.536186089,13.6106317 1.19431006,13.6106317 L7.89251365,13.6106317 L7.89251365,14.2136518 L4.62918337,16.7020915 C4.39785081,16.8784754 4.35243473,17.2101496 4.52771086,17.4429442 C4.70302693,17.6756786 5.03257801,17.721442 5.26389061,17.5450379 L7.89249368,15.5405692 C7.89249368,15.5405692 8.06321823,15.4146094 8.2121231,15.3109085 C8.33476431,15.2253569 8.49739216,15.2257819 8.61959021,15.3119732 L8.94349173,15.5405491 L11.5720748,17.5450179 C11.663213,17.6147429 11.774564,17.6524567 11.8890492,17.652375 C12.0478957,17.652375 12.2048856,17.580154 12.3082746,17.4429442 C12.4835507,17.2101696 12.4381346,16.8784754 12.206802,16.7020915 L8.94349173,14.2136116 L8.94349173,13.6105915 L15.6109938,13.6105915 C16.2691377,13.6105915 16.8026719,13.0736853 16.8026719,12.4114018 L16.8026719,2.53627232 C16.8026519,1.87398884 16.2691177,1.33712277 15.6109738,1.33712277 L8.94349173,1.33714286 Z M15.6109738,12.5529509 L1.19431006,12.5529509 C1.11666212,12.5528623 1.05373797,12.4895405 1.05364996,12.4114018 L1.05364996,2.53627232 C1.05373797,2.45813362 1.11666212,2.39481178 1.19431006,2.39472321 L15.6109938,2.39472321 C15.6886495,2.39480071 15.7515858,2.45812579 15.7516738,2.53627232 L15.7516738,12.4113616 C15.7515768,12.4895529 15.6886341,12.5528844 15.6109738,12.5529509 Z" id="形状"></path>
                            </g>
                        </g>
                    </g>
                </g>
            </g>
        </g>
    </g>
</svg>