<?xml version="1.0" encoding="UTF-8"?>
<svg width="9px" height="9px" viewBox="0 0 9 9" version="1.1" xmlns="http://www.w3.org/2000/svg" xmlns:xlink="http://www.w3.org/1999/xlink">
    <!-- Generator: Sketch 53.2 (72643) - https://sketchapp.com -->
    <title>路径</title>
    <desc>Created with Sketch.</desc>
    <g id="Page-1" stroke="none" stroke-width="1" fill="none" fill-rule="evenodd">
        <g id="菜单结构-新版" transform="translate(-542.000000, -76.000000)" fill="#C2C2C2" fill-rule="nonzero">
            <g id="液态签" transform="translate(235.000000, 59.000000)">
                <g id="选项卡-copy" transform="translate(215.000000, 1.000000)">
                    <path d="M96.0855196,19.6164244 L92.5666415,16.0975462 C92.4367925,15.9687643 92.2273952,15.9687643 92.0975462,16.0975462 C92.0351077,16.1596284 92,16.2440441 92,16.3320939 C92,16.4201437 92.0351077,16.5045593 92.0975462,16.5666415 L95.6164244,20.0855196 L92.0975462,23.6043978 C91.9687643,23.7342468 91.9687643,23.9436441 92.0975462,24.0734931 C92.1596284,24.1359316 92.2440441,24.1710393 92.3320939,24.1710393 C92.4201437,24.1710393 92.5045593,24.1359316 92.5666415,24.0734931 L96.0855196,20.5546149 L99.6043978,24.0734931 C99.7321217,24.201217 99.9437786,24.2028758 100.073493,24.0734931 C100.135932,24.0114109 100.171039,23.9269952 100.171039,23.8389454 C100.171039,23.7508956 100.135932,23.6664799 100.073493,23.6043978 L96.5546149,20.0855196 L100.073493,16.5666415 C100.202275,16.4367925 100.202275,16.2273952 100.073493,16.0975462 C100.011411,16.0351077 99.9269952,16 99.8389454,16 C99.7508956,16 99.6664799,16.0351077 99.6043978,16.0975462 L96.0855196,19.6164244 Z" id="路径"></path>
                </g>
            </g>
        </g>
    </g>
</svg>