<?xml version="1.0" encoding="UTF-8"?>
<svg width="15px" height="17px" viewBox="0 0 15 17" version="1.1" xmlns="http://www.w3.org/2000/svg" xmlns:xlink="http://www.w3.org/1999/xlink">
    <!-- Generator: Sketch 53.2 (72643) - https://sketchapp.com -->
    <title>客户</title>
    <desc>Created with Sketch.</desc>
    <g id="Page-1" stroke="none" stroke-width="1" fill="none" fill-rule="evenodd">
        <g id="首页" transform="translate(-1210.000000, -206.000000)" fill="#333333" fill-rule="nonzero">
            <g id="分组-24" transform="translate(1195.000000, 191.000000)">
                <g id="分组-31" transform="translate(15.000000, 15.000000)">
                    <g id="客户">
                        <path d="M7.08990585,8.15272983 C9.33280485,8.15272983 11.1577606,6.32777407 11.1577606,4.08487507 C11.1577606,1.84197607 9.33280485,0.0170203128 7.08990585,0.0170203128 C4.84700686,0.0170203128 3.02205109,1.84197607 3.02205109,4.08487507 C3.02205109,6.32777407 4.84700686,8.15272983 7.08990585,8.15272983 Z M7.08990585,1.07984429 C8.74654963,1.07984429 10.0949366,2.42823129 10.0949366,4.08676622 C10.0949366,5.74341 8.74654963,7.091797 7.08990585,7.091797 C5.43326207,7.091797 4.08487507,5.74341 4.08487507,4.08487507 C4.08487507,2.42823129 5.43326207,1.07984429 7.08990585,1.07984429 Z M14.0984924,12.3643117 C13.081056,10.605546 11.4546705,9.30254652 9.52002829,8.69359755 C9.27039704,8.61416942 8.99807203,8.73142047 8.88271214,8.9678137 C8.47611577,9.80559132 7.85960222,10.5090976 7.091797,11.019707 C6.32210063,10.5090976 5.70558708,9.80559132 5.30088186,8.9678137 C5.18552197,8.73142047 4.91508811,8.61416942 4.66356571,8.69359755 C2.72892349,9.30254652 1.10253804,10.605546 0.085101564,12.3643117 C-0.0113468752,12.5288414 -0.0113468752,12.731194 0.085101564,12.8957237 C1.52804586,15.3920362 4.21347299,16.9408847 7.09368815,16.9408847 C9.97201215,16.9408847 12.6574393,15.3901451 14.1022747,12.8957237 C14.1930497,12.731194 14.1930497,12.5288414 14.0984924,12.3643117 Z M9.61458559,9.85097882 C9.9077132,9.96255643 10.1913851,10.0968278 10.4637101,10.2443372 C10.0325288,10.9913398 9.42357985,11.8782872 8.65199234,12.562882 C8.56499963,12.4872362 8.47422463,12.4059169 8.38155848,12.3227065 C8.19055275,12.1506122 7.99765587,11.9766268 7.79530326,11.8196617 C8.53852359,11.3033788 9.15881943,10.6358044 9.61458559,9.85097882 L9.61458559,9.85097882 Z M6.38450845,11.8215528 C6.18215584,11.9785179 5.98925896,12.1525033 5.79825323,12.3245976 C5.70558708,12.407808 5.61481208,12.4891273 5.52781937,12.5647731 C4.75623185,11.8782872 4.14539174,10.9913398 3.71610163,10.2462283 C3.98842663,10.0968278 4.27209851,9.96444757 4.56522612,9.85286997 C5.02288342,10.6358044 5.64128812,11.3033788 6.38450845,11.8215528 L6.38450845,11.8215528 Z M7.44355013,15.868605 L7.44355013,13.5273664 C7.44355013,13.3306872 7.28469388,13.1737221 7.08990585,13.1737221 C6.89511783,13.1737221 6.73626158,13.3325784 6.73626158,13.5273664 L6.73626158,15.868605 C4.47445112,15.7532451 2.38662608,14.5429117 1.16305471,12.6309632 C1.67555524,11.8291174 2.33934744,11.1445226 3.1128261,10.6150017 C3.6158709,11.4849288 4.35152664,12.5345148 5.30466416,13.30232 C5.43326207,13.4044419 5.61481208,13.406333 5.74341,13.3061023 C5.91928656,13.1699398 6.09138084,13.0148659 6.27293084,12.8503362 C6.54147355,12.6082695 6.8156897,12.3605294 7.08990585,12.1884351 C7.364122,12.3605294 7.63833816,12.6101606 7.90688087,12.8503362 C8.08843087,13.0148659 8.26052515,13.1699398 8.43640171,13.3061023 C8.50070067,13.3552721 8.57634651,13.379857 8.65388349,13.379857 C8.73331161,13.379857 8.81084859,13.353381 8.87514755,13.30232 C9.82828507,12.536406 10.5639408,11.4849288 11.0669856,10.6150017 C11.8404643,11.1445226 12.5042565,11.8272263 13.016757,12.6309632 C11.7931856,14.5429117 9.70536059,15.7532451 7.44355013,15.868605 Z" id="形状"></path>
                    </g>
                </g>
            </g>
        </g>
    </g>
</svg>