<?xml version="1.0" encoding="UTF-8"?>
<svg width="18px" height="18px" viewBox="0 0 18 18" version="1.1" xmlns="http://www.w3.org/2000/svg" xmlns:xlink="http://www.w3.org/1999/xlink">
    <!-- Generator: Sketch 53.2 (72643) - https://sketchapp.com -->
    <title>体检信息</title>
    <desc>Created with Sketch.</desc>
    <g id="Page-1" stroke="none" stroke-width="1" fill="none" fill-rule="evenodd">
        <g id="菜单" transform="translate(-43.000000, -793.000000)" fill="#FFFFFF" fill-rule="nonzero">
            <g id="一级导航-copy-4">
                <g transform="translate(0.000000, 778.000000)">
                    <g id="分组-36-copy" transform="translate(43.000000, 15.000000)">
                        <g id="体检信息">
                            <path d="M17.8701923,15.5770708 C17.8701923,16.8411092 16.8454868,17.8658147 15.5814484,17.8658147 C14.3174101,17.8658147 13.2927046,16.8411092 13.2927046,15.5770708 L13.2927046,15.0971342 C11.7289859,14.8076357 10.5943421,13.4437855 10.5941856,11.8534945 L10.5941856,10.9120112 C10.595287,10.581603 10.8634464,10.3143373 11.1938565,10.3143392 L12.3532202,10.3143392 C12.6844093,10.3143392 12.9528911,10.582821 12.9528911,10.9140101 C12.9528911,11.2451992 12.6844093,11.5136809 12.3532202,11.5136809 L11.7935274,11.5136809 L11.7935274,11.8534945 C11.7935274,13.0126562 12.7332137,13.9523425 13.8923755,13.9523425 C15.0515372,13.9523425 15.9912235,13.0126562 15.9912235,11.8534945 L15.9912235,11.5136809 L15.4315307,11.5136809 C15.1003416,11.5136809 14.8318598,11.2451992 14.8318598,10.9140101 C14.8318598,10.582821 15.1003416,10.3143392 15.4315307,10.3143392 L16.5908944,10.3143392 C16.9213045,10.3143373 17.1894639,10.581603 17.1905653,10.9120112 L17.1905653,11.8534945 C17.1904088,13.4437855 16.055765,14.8076357 14.4920463,15.0971342 L14.4920463,15.5814484 C14.4920463,16.1831086 14.9797883,16.6708505 15.5814484,16.6708505 C16.1831086,16.6708505 16.6708505,16.1831086 16.6708505,15.5814484 L16.6708505,15.4715088 C16.6708505,15.1359421 16.9393323,14.8674603 17.2705214,14.8674603 C17.6017105,14.8674603 17.8701923,15.1359421 17.8701923,15.4671312 L17.8701923,15.5770708 Z M8.56153745,11.3731435 C8.66935374,11.5590593 8.66935374,11.9486435 8.56153745,12.1345593 C8.45372116,12.3204751 8.25460034,12.4344176 8.03968758,12.4331763 L3.61759456,12.4331763 C3.4026818,12.4344176 3.20356098,12.3204751 3.09574469,12.1345593 C2.9879284,11.9486435 2.9879284,11.5590593 3.09574469,11.3731435 C3.20356098,11.1872277 3.4026818,11.0977028 3.61759456,11.098944 L8.0568563,11.098944 C8.32143287,11.1577998 8.48965992,11.2491996 8.56153745,11.3731435 Z M3.01834344,6.18361643 C3.01834344,5.85265918 3.28663731,5.437016 3.61759456,5.437016 L12.5735193,5.437016 C12.788432,5.43577475 13.0953691,5.67338814 13.0953691,6.18361643 C13.0953691,6.69384472 12.788432,6.93146532 12.5735193,6.93022407 L3.61759456,6.93022407 C3.28664511,6.93022407 3.01834344,6.51457368 3.01834344,6.18361643 Z M3.61759456,9.69221111 C3.45866328,9.69221111 3.09574469,9.15893128 3.09574469,9 C3.22300643,8.55695018 3.39695639,8.33542527 3.61759456,8.33542527 L10.314759,8.33542527 C10.5353971,8.33542527 10.6901,8.53545549 10.7788676,8.93551592 C10.7788676,9.28094818 10.4736902,9.69221111 10.314759,9.69221111 L3.61759456,9.69221111 Z M15.7256611,8.33542527 C15.3659384,8.33542527 14.9917721,8.06694347 14.9917721,7.73575439 L14.9917721,1.78388994 C14.9917721,1.56309722 14.8127842,1.38410935 14.5919915,1.38410935 L1.80098515,1.38410935 C1.58019243,1.38410935 1.40120456,1.56309722 1.40120456,1.78388994 L1.40120456,16.27107 C1.40120456,16.4918627 1.58019243,16.6708505 1.80098515,16.6708505 L9.81461345,16.6708505 C10.1458025,16.6708505 10.4142843,16.9665125 10.4142843,17.3554044 C10.4142843,17.7442962 10.1458025,18 9.81461345,18 L0.999451471,18 C0.447469666,18 1.42108547e-14,17.5525303 1.42108547e-14,17.0005485 L1.42108547e-14,0.999451471 C1.42108547e-14,0.447469666 0.447469666,1.42108547e-14 0.999451471,1.42108547e-14 L15.3843269,1.03739239e-12 C15.9363087,1.03739239e-12 16.3837783,0.447469666 16.3837783,0.999451471 L16.3837783,7.73575439 C16.3837783,8.06694347 16.0853837,8.33542527 15.7256611,8.33542527 Z" id="形状"></path>
                        </g>
                    </g>
                </g>
            </g>
        </g>
    </g>
</svg>