<?xml version="1.0" encoding="UTF-8"?>
<svg width="13px" height="13px" viewBox="0 0 13 13" version="1.1" xmlns="http://www.w3.org/2000/svg" xmlns:xlink="http://www.w3.org/1999/xlink">
    <!-- Generator: Sketch 53.2 (72643) - https://sketchapp.com -->
    <title>体检信息</title>
    <desc>Created with Sketch.</desc>
    <g id="Page-1" stroke="none" stroke-width="1" fill="none" fill-rule="evenodd">
        <g id="菜单结构" transform="translate(-46.000000, -835.000000)" fill="#ffffff" fill-rule="nonzero">
            <g id="菜单">
                <g id="一级导航-copy-4" transform="translate(0.000000, 818.000000)">
                    <g id="分组-36" transform="translate(46.000000, 17.000000)">
                        <g id="体检信息">
                            <path d="M12.90625,11.2501067 C12.90625,12.1630233 12.1661849,12.9030884 11.2532683,12.9030884 C10.3403517,12.9030884 9.60028663,12.1630233 9.60028663,11.2501067 L9.60028663,10.9034858 C8.47093426,10.6944035 7.65146932,9.70940061 7.65135626,8.5608571 L7.65135626,7.88089695 C7.6521517,7.64226881 7.84582243,7.44924364 8.0844519,7.44924497 L8.92177013,7.44924497 C9.16096225,7.44924497 9.35486577,7.64314849 9.35486577,7.8823406 C9.35486577,8.12153272 9.16096225,8.31543624 8.92177013,8.31543624 L8.51754754,8.31543624 L8.51754754,8.5608571 C8.51754754,9.39802951 9.19620987,10.0766918 10.0333823,10.0766918 C10.8705547,10.0766918 11.549217,9.39802951 11.549217,8.5608571 L11.549217,8.31543624 L11.1449944,8.31543624 C10.9058023,8.31543624 10.7118988,8.12153272 10.7118988,7.8823406 C10.7118988,7.64314849 10.9058023,7.44924497 11.1449944,7.44924497 L11.9823126,7.44924497 C12.2209421,7.44924364 12.4146128,7.64226881 12.4154083,7.88089695 L12.4154083,8.5608571 C12.4152952,9.70940061 11.5958303,10.6944035 10.4664779,10.9034858 L10.4664779,11.2532683 C10.4664779,11.6878007 10.818736,12.0400587 11.2532683,12.0400587 C11.6878007,12.0400587 12.0400587,11.6878007 12.0400587,11.2532683 L12.0400587,11.1738674 C12.0400587,10.9315137 12.2339622,10.7376102 12.4731544,10.7376102 C12.7123465,10.7376102 12.90625,10.9315137 12.90625,11.1707059 L12.90625,11.2501067 Z M6.1833326,8.21393694 C6.26119992,8.34820946 6.26119992,8.62957586 6.1833326,8.76384838 C6.10546528,8.89812089 5.9616558,8.98041268 5.80644103,8.97951622 L2.61270718,8.97951622 C2.45749241,8.98041268 2.31368293,8.89812089 2.23581561,8.76384838 C2.15794829,8.62957586 2.15794829,8.34820946 2.23581561,8.21393694 C2.31368293,8.07966442 2.45749241,8.01500756 2.61270718,8.01590402 L5.81884066,8.01590402 C6.00992374,8.05841096 6.13142105,8.12442193 6.1833326,8.21393694 Z M2.17991471,4.4659452 C2.17991471,4.22692052 2.3736825,3.92673378 2.61270718,3.92673378 L9.08087503,3.92673378 C9.23608981,3.92583732 9.45776661,4.09744699 9.45776661,4.4659452 C9.45776661,4.83444341 9.23608981,5.00605829 9.08087503,5.00516183 L2.61270718,5.00516183 C2.37368814,5.00516183 2.17991471,4.70496988 2.17991471,4.4659452 Z M2.61270718,6.99993025 C2.49792348,6.99993025 2.23581561,6.6147837 2.23581561,6.5 C2.32772687,6.18001957 2.45335739,6.02002936 2.61270718,6.02002936 L7.44954813,6.02002936 C7.60889792,6.02002936 7.72062778,6.16449563 7.78473772,6.45342817 C7.78473772,6.70290702 7.56433183,6.99993025 7.44954813,6.99993025 L2.61270718,6.99993025 Z M11.3574219,6.02002936 C11.0976222,6.02002936 10.8273909,5.82612584 10.8273909,5.58693372 L10.8273909,1.28836496 C10.8273909,1.12890354 10.6981219,0.99963453 10.5386605,0.99963453 L1.3007115,0.99963453 C1.14125008,0.99963453 1.01198107,1.12890354 1.01198107,1.28836496 L1.01198107,11.7513283 C1.01198107,11.9107897 1.14125008,12.0400587 1.3007115,12.0400587 L7.08833194,12.0400587 C7.32752405,12.0400587 7.52142757,12.2535924 7.52142757,12.5344587 C7.52142757,12.8153251 7.32752405,13 7.08833194,13 L0.721826063,13 C0.323172536,13 1.42108547e-14,12.6768275 1.42108547e-14,12.2781739 L1.42108547e-14,0.721826063 C1.42108547e-14,0.323172536 0.323172536,1.42108547e-14 0.721826063,1.42108547e-14 L11.1109027,7.531753e-13 C11.5095563,7.531753e-13 11.8327288,0.323172536 11.8327288,0.721826063 L11.8327288,5.58693372 C11.8327288,5.82612584 11.6172215,6.02002936 11.3574219,6.02002936 Z" id="形状"></path>
                        </g>
                    </g>
                </g>
            </g>
        </g>
    </g>
</svg>