<?xml version="1.0" encoding="UTF-8"?>
<svg width="14px" height="15px" viewBox="0 0 14 15" version="1.1" xmlns="http://www.w3.org/2000/svg" xmlns:xlink="http://www.w3.org/1999/xlink">
    <!-- Generator: Sketch 53.2 (72643) - https://sketchapp.com -->
    <title>查看 (1)</title>
    <desc>Created with Sketch.</desc>
    <g id="Page-1" stroke="none" stroke-width="1" fill="none" fill-rule="evenodd">
        <g id="首页" transform="translate(-1210.000000, -329.000000)">
            <g id="分组-26" transform="translate(1195.000000, 313.000000)">
                <g id="分组-36" transform="translate(15.000000, 16.000000)">
                    <g id="查看-(1)">
                        <g id="分组-35">
                            <path d="M9,13.5 C7.06700338,13.5 5.5,11.9329966 5.5,10 C5.5,8.06700338 7.06700338,6.5 9,6.5 C10.9329966,6.5 12.5,8.06700338 12.5,10 C12.5,11.9329966 10.9329966,13.5 9,13.5 Z M9,12.5 C10.3807119,12.5 11.5,11.3807119 11.5,10 C11.5,8.61928813 10.3807119,7.5 9,7.5 C7.61928813,7.5 6.5,8.61928813 6.5,10 C6.5,11.3807119 7.61928813,12.5 9,12.5 Z" id="椭圆形" fill="#333333" fill-rule="nonzero"></path>
                            <rect id="矩形" fill="#333333" transform="translate(12.414214, 13.414214) rotate(-315.000000) translate(-12.414214, -13.414214) " x="10.9142136" y="12.9142136" width="3" height="1"></rect>
                            <path d="M14,6 L13,6 L13,1.3 C13,1.13431458 12.8656854,1 12.7,1 L1.3,1 C1.13431458,1 1,1.13431458 1,1.3 L1,13.7 C1,13.8656854 1.13431458,14 1.3,14 L5.00585938,14 L5.00585938,15 L1,15 C0.44771525,15 6.76353751e-17,14.5522847 0,14 L0,1 C-6.76353751e-17,0.44771525 0.44771525,1.01453063e-16 1,0 L13,0 C13.5522847,-1.01453063e-16 14,0.44771525 14,1 L14,6 Z" id="合并形状" fill="#333333"></path>
                            <rect id="矩形" stroke="#333333" fill="#D8D8D8" x="3.5" y="3.5" width="7" height="1"></rect>
                        </g>
                    </g>
                </g>
            </g>
        </g>
    </g>
</svg>