<?xml version="1.0" encoding="UTF-8"?>
<svg width="40px" height="46px" viewBox="0 0 40 46" version="1.1" xmlns="http://www.w3.org/2000/svg" xmlns:xlink="http://www.w3.org/1999/xlink">
    <!-- Generator: Sketch 53.2 (72643) - https://sketchapp.com -->
    <title>审核</title>
    <desc>Created with Sketch.</desc>
    <g id="Page-1" stroke="none" stroke-width="1" fill="none" fill-rule="evenodd">
        <g id="审核中" transform="translate(-707.000000, -434.000000)" fill-rule="nonzero">
            <g id="分组-14" transform="translate(707.000000, 434.000000)">
                <g id="审核" transform="translate(1.000000, 1.000000)">
                    <path d="M30.6923077,43.8461538 L7.30769231,43.8461538 C3.21538462,43.8461538 0,40.6307692 0,36.5384615 L0,13.1538462 L12.8615385,0 L30.6923077,0 C34.7846154,0 38,3.21538462 38,7.30769231 L38,36.5384615 C38,40.6307692 34.7846154,43.8461538 30.6923077,43.8461538 Z M2.92307692,14.3230769 L2.92307692,36.5384615 C2.92307692,38.8769231 4.96923077,40.9230769 7.30769231,40.9230769 L30.6923077,40.9230769 C33.0307692,40.9230769 35.0769231,38.8769231 35.0769231,36.5384615 L35.0769231,7.30769231 C35.0769231,4.96923077 33.0307692,2.92307692 30.6923077,2.92307692 L14.0307692,2.92307692 L2.92307692,14.3230769 Z" id="形状" stroke="#000000" fill="#000000"></path>
                    <path d="M17.0309628,30.4717528 C16.6206504,30.4717528 16.2119597,30.3144393 15.8989545,30.0014341 L9.49451166,23.5710427 C8.87012309,22.9434105 8.87012309,21.9249273 9.49451166,21.2972952 C10.120522,20.669663 11.1341398,20.669663 11.7585284,21.2972952 L17.0309628,26.5908129 L27.105513,16.4757179 C27.7299016,15.846464 28.7435194,15.846464 29.3695298,16.4757179 C29.9939184,17.1033501 29.9939184,18.1202115 29.3695298,18.7478436 L18.1629712,30.0014341 C17.849966,30.3144393 17.4396536,30.4717528 17.0309628,30.4717528 Z" id="路径" stroke="#18B45F" fill="#18B45F"></path>
                    <path d="M9.35384615,14.6153846 L2.33846154,14.6153846 L2.33846154,11.6923077 L9.35384615,11.6923077 C10.8153846,11.6923077 11.6923077,10.5230769 11.6923077,9.35384615 L11.6923077,1.46153846 L14.6153846,1.46153846 L14.6153846,9.35384615 C14.6153846,12.2769231 12.2769231,14.6153846 9.35384615,14.6153846 L9.35384615,14.6153846 Z" id="形状" stroke="#000000" fill="#000000"></path>
                </g>
            </g>
        </g>
    </g>
</svg>