<?xml version="1.0" encoding="UTF-8"?>
<svg width="15px" height="16px" viewBox="0 0 15 16" version="1.1" xmlns="http://www.w3.org/2000/svg" xmlns:xlink="http://www.w3.org/1999/xlink">
    <!-- Generator: Sketch 53.2 (72643) - https://sketchapp.com -->
    <title>合同</title>
    <desc>Created with Sketch.</desc>
    <g id="Page-1" stroke="none" stroke-width="1" fill="none" fill-rule="evenodd">
        <g id="首页" transform="translate(-1005.000000, -206.000000)" fill="#333333" fill-rule="nonzero">
            <g id="分组-21" transform="translate(990.000000, 191.000000)">
                <g id="分组-28" transform="translate(15.000000, 15.000000)">
                    <g id="合同">
                        <path d="M1.29455335,14.782061 C0.586243545,14.782061 0.00292959017,14.198747 0.00292959017,13.4904372 L0.00292959017,1.2929258 C0.00292959017,0.584615995 0.586243545,0.00130204008 1.29455335,0.00130204008 L10.2213401,0.00130204008 C10.9296499,0.00130204008 11.5129639,0.584615995 11.5129639,1.2929258 L11.5129639,3.59493265 C11.5129639,3.88658963 11.2733885,4.12616501 10.9817315,4.12616501 C10.6900745,4.12616501 10.4504992,3.88658963 10.4504992,3.59493265 L10.4504992,1.2929258 C10.4504992,1.16792995 10.346336,1.06376674 10.2213401,1.06376674 L1.29455335,1.06376674 C1.1695575,1.06376674 1.06539429,1.16792995 1.06539429,1.2929258 L1.06539429,13.4904372 C1.06539429,13.6154331 1.1695575,13.7195963 1.29455335,13.7195963 L5.66940801,13.7195963 C5.80482018,13.7195963 5.94023234,13.7820942 6.03397923,13.8862574 C6.12772611,13.9904206 6.17980772,14.1258328 6.17980772,14.261245 C6.1693914,14.5424856 5.95064866,14.7716447 5.65899169,14.782061 L1.29455335,14.782061 Z" id="路径"></path>
                        <path d="M2.56534446,3.6157653 C2.30493645,3.6157653 2.09661003,3.40743888 2.09661003,3.14703087 C2.09661003,2.88662285 2.30493645,2.67829644 2.56534446,2.67829644 L7.91933326,2.67829644 C8.17974128,2.67829644 8.38806769,2.88662285 8.38806769,3.14703087 C8.38806769,3.40743888 8.17974128,3.6157653 7.91933326,3.6157653 L2.56534446,3.6157653 Z M2.56534446,6.02193536 C2.30493645,6.02193536 2.09661003,5.81360895 2.09661003,5.55320093 C2.09661003,5.29279291 2.30493645,5.0844665 2.56534446,5.0844665 L6.04439555,5.0844665 C6.30480357,5.0844665 6.51312998,5.29279291 6.51312998,5.55320093 C6.51312998,5.81360895 6.30480357,6.02193536 6.04439555,6.02193536 L2.56534446,6.02193536 Z M2.56534446,8.43852174 C2.30493645,8.43852174 2.09661003,8.23019533 2.09661003,7.95937099 C2.09661003,7.69896298 2.30493645,7.49063657 2.56534446,7.48022024 L4.82568604,7.48022024 C5.08609405,7.48022024 5.29442046,7.68854666 5.29442046,7.95937099 C5.29442046,8.21977901 5.08609405,8.43852174 4.82568604,8.43852174 L2.56534446,8.43852174 Z M10.9608989,9.51140277 C9.75260569,9.51140277 8.76305523,8.52185231 8.76305523,7.31355912 C8.76305523,6.10526592 9.75260569,5.11571546 10.9608989,5.11571546 C12.1691921,5.11571546 13.1587425,6.10526592 13.1587425,7.31355912 C13.1587425,8.53226863 12.1691921,9.51140277 10.9608989,9.51140277 Z M10.9608989,6.06360064 C10.2734217,6.06360064 9.71094041,6.62608195 9.71094041,7.31355912 C9.71094041,8.00103628 10.2734217,8.56351759 10.9608989,8.56351759 C11.648376,8.56351759 12.2108574,8.00103628 12.2108574,7.31355912 C12.2108574,6.62608195 11.648376,6.06360064 10.9608989,6.06360064 Z M14.2212072,15.0841343 L7.70059053,15.0841343 C7.44018251,15.0841343 7.2318561,14.8758079 7.2318561,14.6153999 L7.2318561,12.3238093 C7.2318561,12.0634013 7.44018251,11.8550749 7.70059053,11.8550749 L14.2212072,11.8550749 C14.4816153,11.8550749 14.6899417,12.0634013 14.6899417,12.3238093 L14.6899417,14.6153999 C14.700358,14.8758079 14.4816153,15.0841343 14.2212072,15.0841343 L14.2212072,15.0841343 Z M8.16932496,14.1466654 L13.7524728,14.1466654 L13.7524728,12.8029601 L8.16932496,12.8029601 L8.16932496,14.1466654 Z" id="形状"></path>
                        <path d="M8.71097363,12.7717111 C8.52347986,12.7717111 8.34640241,12.6467153 8.28390448,12.4592215 C8.21099024,12.2300624 8.34640241,11.9800708 8.57556146,11.9071565 C10.1900912,11.4071731 9.84635258,9.20932947 9.82551993,9.11558258 C9.78385465,8.87600721 9.95051578,8.64684815 10.1900912,8.60518287 C10.4296665,8.56351759 10.6588256,8.73017872 10.7004909,8.96975409 C10.8775683,10.0218025 10.7213235,12.1675645 8.83596948,12.7508785 C8.79430419,12.7612948 8.75263891,12.7717111 8.71097363,12.7717111 L8.71097363,12.7717111 Z M13.3149873,12.7717111 C13.2733221,12.7717111 13.2316568,12.7612948 13.1795752,12.7508785 C11.2942211,12.1675645 11.1379763,10.0218025 11.3150538,8.96975409 C11.3567191,8.73017872 11.5858781,8.56351759 11.8254535,8.60518287 C12.0650289,8.64684815 12.23169,8.87600721 12.1900247,9.11558258 C12.1796084,9.20932947 11.8358698,11.4071731 13.4399832,11.9071565 C13.6691422,11.9800708 13.8045544,12.2300624 13.7316402,12.4592215 C13.6795586,12.6467153 13.5024811,12.7717111 13.3149873,12.7717111 Z" id="形状"></path>
                    </g>
                </g>
            </g>
        </g>
    </g>
</svg>