<?xml version="1.0" encoding="UTF-8"?>
<svg width="18px" height="17px" viewBox="0 0 18 17" version="1.1" xmlns="http://www.w3.org/2000/svg" xmlns:xlink="http://www.w3.org/1999/xlink">
    <!-- Generator: Sketch 53.2 (72643) - https://sketchapp.com -->
    <title>系统</title>
    <desc>Created with Sketch.</desc>
    <g id="Page-1" stroke="none" stroke-width="1" fill="none" fill-rule="evenodd">
        <g id="菜单结构" transform="translate(-43.000000, -701.000000)" fill-rule="nonzero">
            <g id="菜单">
                <g id="一级导航-copy-2" transform="translate(0.000000, 686.000000)">
                    <g id="分组-59-copy" transform="translate(43.000000, 15.000000)">
                        <g id="系统" transform="translate(1.125000, 1.125000)">
                            <path d="M7.82578125,10.4192578 C6.25073418,10.4192578 4.97390624,9.14242989 4.97390624,7.56738281 C4.97390624,5.99233574 6.25073418,4.71550781 7.82578125,4.71550781 C9.40082832,4.71550781 10.6776563,5.99233574 10.6776563,7.56738281 C10.6776563,8.32374709 10.3771917,9.04913266 9.84236141,9.58396297 C9.3075311,10.1187933 8.58214553,10.4192578 7.82578125,10.4192578 Z M7.82578125,5.73138281 C7.08151665,5.73138406 6.41060125,6.17989944 6.12609983,6.86764121 C5.84159841,7.55538298 5.99958711,8.34679507 6.52634469,8.87258614 C7.05310228,9.3983772 7.84480319,9.55491216 8.5320213,9.26914815 C9.21923941,8.98338415 9.66652187,8.31164616 9.66515625,7.56738281 C9.66329471,6.55284232 8.84032345,5.7313811 7.82578125,5.73138281 L7.82578125,5.73138281 Z" id="形状" fill="#FFFFFF"></path>
                            <path d="M5.58815624,15.1206328 C5.38529528,15.1219182 5.18586882,15.0682713 5.01103125,14.9653828 L2.82403124,13.7065078 C2.55804077,13.5526835 2.3641176,13.2994215 2.28498583,13.0025191 C2.20585407,12.7056168 2.24800647,12.3894348 2.40215624,12.1236328 L2.44603124,12.0460078 C2.683607,11.6243287 2.67195753,11.1065747 2.41565625,10.6960078 L2.39540625,10.6588828 C2.16453299,10.246421 1.73068499,9.98894447 1.25803125,9.98388281 L1.16690625,9.98388281 C0.528336985,9.98202919 0.0111348694,9.46482707 0.00928124736,8.82625781 L0.00928124736,6.30513282 C0.0148510236,5.66151928 0.540154506,5.14376326 1.18378125,5.14750782 L1.26140625,5.14750782 C1.74054946,5.14006579 2.17821307,4.87411091 2.40553126,4.45225781 L2.42915626,4.4117578 C2.67328209,4.00769087 2.68101903,3.50350009 2.44940624,3.09213282 L2.40215624,3.01113281 C2.24800647,2.74533082 2.20585407,2.42914887 2.28498583,2.13224651 C2.3641176,1.83534414 2.55804077,1.58208213 2.82403124,1.42825781 L5.01103125,0.169382815 C5.27949867,0.0160334752 5.59793309,-0.024245727 5.89612859,0.0574256516 C6.19432409,0.13909703 6.44779436,0.336012546 6.60065625,0.604757807 L6.63778126,0.67225781 C6.88179272,1.08252129 7.32834129,1.32902643 7.80553125,1.3168828 C8.29309139,1.33490694 8.7524401,1.08845861 9.00703125,0.67225781 L9.05090625,0.591257818 C9.20473057,0.325267347 9.45799258,0.131344168 9.75489495,0.0522124073 C10.0517973,-0.026919354 10.3679793,0.0152330464 10.6337813,0.169382815 L12.8207812,1.43163281 C13.0877364,1.58285373 13.2815188,1.83635528 13.3574062,2.13363281 C13.438795,2.42965702 13.3974282,2.74599115 13.2426562,3.01113281 L13.1987812,3.0887578 C12.9612055,3.51043691 12.972855,4.02819095 13.2291563,4.43875782 C13.4543777,4.86557233 13.8941343,5.13589326 14.3766562,5.1441328 L14.4677812,5.1441328 C15.1063505,5.14598643 15.6235526,5.66318854 15.6254062,6.3017578 L15.6254062,8.82625781 C15.6198365,9.46987135 15.094533,9.98762736 14.4509062,9.98388281 L14.3732812,9.98388281 C13.8949807,10.0091987 13.4620038,10.2749047 13.2228287,10.6898837 C12.9836536,11.1048627 12.9707927,11.6127044 13.1886563,12.0392578 L13.2325313,12.1202578 C13.5515587,12.6740627 13.3629914,13.3815675 12.8106563,13.7031328 L10.6236562,14.9620078 C10.3551888,15.1153572 10.0367544,15.1556364 9.7385589,15.073965 C9.4403634,14.9922936 9.18689313,14.7953781 9.03403125,14.5266328 L8.99353124,14.4591328 C8.7501166,14.0499389 8.30515132,13.8035958 7.82915625,13.8145078 C7.34159611,13.7964837 6.88224739,14.042932 6.62765624,14.4591328 L6.58378124,14.5401328 C6.37865743,14.8968243 5.99961306,15.1178264 5.58815624,15.1206328 L5.58815624,15.1206328 Z" id="路径" stroke="#FFFFFF" stroke-width="1.3"></path>
                        </g>
                    </g>
                </g>
            </g>
        </g>
    </g>
</svg>