<?xml version="1.0" encoding="UTF-8"?>
<svg width="12px" height="13px" viewBox="0 0 12 13" version="1.1" xmlns="http://www.w3.org/2000/svg" xmlns:xlink="http://www.w3.org/1999/xlink">
    <!-- Generator: Sketch 53.2 (72643) - https://sketchapp.com -->
    <title>首页 (1)</title>
    <desc>Created with Sketch.</desc>
    <g id="Page-1" stroke="none" stroke-width="1" fill="none" fill-rule="evenodd">
        <g id="菜单结构-新版" transform="translate(-305.000000, -73.000000)" fill="#666666" fill-rule="nonzero">
            <g id="液态签" transform="translate(235.000000, 59.000000)">
                <g id="分组-2" transform="translate(70.000000, 14.000000)">
                    <g id="首页-(1)">
                        <path d="M11.5182786,13 L0.481849808,13 C0.215682705,13 0,12.7849345 0,12.5195291 L0,4.45438044 C0,4.30015837 0.0743777762,4.15515887 0.199625327,4.06498251 L5.71783972,0.0910740727 C5.88623633,-0.0303580242 6.11376361,-0.0303580242 6.28216022,0.0910740727 L11.8003746,4.06498251 C11.9257477,4.15530151 12.000006,4.300153 11.9999999,4.45438044 L11.9999999,12.5195291 C12.0001284,12.7849345 11.7844457,13 11.5182786,13 L11.5182786,13 Z M0.963699615,12.0390581 L11.0364288,12.0390581 L11.0364288,4.7000598 L6.0000642,1.07315104 L0.963699615,4.7000598 L0.963699615,12.0390581 Z" id="形状"></path>
                        <path d="M6.05852365,10.1300059 C5.27572302,10.1300059 4.49470293,9.87550258 3.84340772,9.36791992 C3.63419456,9.20480996 3.59451401,8.90007913 3.75476239,8.68713002 C3.91501077,8.47431036 4.21439544,8.43405068 4.42360861,8.59690173 C5.38459017,9.34604247 6.72876886,9.34837262 7.69254841,8.60311544 C7.90239748,8.4410411 8.2055976,8.47884119 8.36508289,8.6915314 C8.52469537,8.90448051 8.48959334,9.20493941 8.28076172,9.36791992 C7.62348899,9.8762793 6.84017964,10.1300059 6.05852365,10.1300059 Z" id="路径"></path>
                    </g>
                </g>
            </g>
        </g>
    </g>
</svg>