<?xml version="1.0" encoding="UTF-8"?>
<svg width="18px" height="18px" viewBox="0 0 18 18" version="1.1" xmlns="http://www.w3.org/2000/svg" xmlns:xlink="http://www.w3.org/1999/xlink">
    <!-- Generator: Sketch 53.2 (72643) - https://sketchapp.com -->
    <title>物业报单</title>
    <desc>Created with Sketch.</desc>
    <g id="Page-1" stroke="none" stroke-width="1" fill="none" fill-rule="evenodd">
        <g id="菜单结构" transform="translate(-43.000000, -747.000000)" fill="#FFFFFF" fill-rule="nonzero">
            <g id="菜单">
                <g id="一级导航-copy-5" transform="translate(0.000000, 732.000000)">
                    <g id="分组-2-copy-3" transform="translate(43.000000, 12.000000)">
                        <g id="分组-35-copy" transform="translate(0.000000, 3.000000)">
                            <g id="物业报单">
                                <path d="M16.4611547,2.10703147 L13.1952304,0.20871298 C12.6129742,-0.0772584704 11.9242286,-0.0417402004 11.3744777,0.30260829 C10.846619,0.609188446 10.5181432,1.17007624 10.5090077,1.78043903 L10.5090077,4.50340339 L8.81072711,5.63014727 L7.12061129,4.50340339 L7.12061129,1.77635663 C7.10482425,1.16781893 6.76979925,0.612546003 6.23881174,0.314855506 C5.65780306,-0.0459002153 4.93094821,-0.0783767088 4.32008122,0.229124994 L1.1725467,2.09886665 C0.596309613,2.40148761 0.236039867,2.99931515 0.237675881,3.65018069 L0.237675881,10.8801205 C0.235490068,11.503177 0.565249014,12.0802551 1.10314582,12.3946929 L3.65056676,14.6032742 L3.65056676,16.2362364 C3.70769191,16.7154633 3.94751836,17.1541703 4.32008122,17.460958 C4.64518403,17.7862228 5.08494465,17.9709223 5.54480282,17.975341 L11.8480367,17.975341 C12.3856596,17.9594132 12.9003797,17.7541035 13.301373,17.3956395 L13.3340322,17.3629802 C13.6987605,17.0871753 13.9347702,16.6741582 13.9872171,16.2199067 L13.9872171,14.5869446 L16.534638,12.3783633 C17.0606367,12.0622178 17.3827829,11.4938156 17.3837783,10.8801205 L17.3837783,3.65018069 C17.3875248,3.00414159 17.0320127,2.409524 16.4611547,2.10703147 Z M16.1590567,10.8801205 C16.1602797,11.0769584 16.0516267,11.2580467 15.8773708,11.3495972 L12.7461659,14.0439847 L12.7461659,16.1831651 C12.6636538,16.2913884 12.5706692,16.3912101 12.4685623,16.4811807 L12.4318207,16.5138399 C12.2631481,16.6484049 12.0588071,16.7307089 11.8439543,16.7506194 L5.54480282,16.7506194 C5.40722145,16.7506015 5.27519811,16.6963253 5.17738634,16.5995704 C5.05347676,16.4917147 4.94738698,16.364958 4.86304114,16.2239891 L4.86304114,14.0399023 L1.87063801,11.4434925 L1.75633067,11.3659268 C1.57196898,11.2752004 1.45721126,11.0855314 1.46239748,10.8801205 L1.46239748,3.65018069 C1.46422572,3.44218355 1.58472216,3.25351148 1.77266028,3.16437444 L4.90386519,1.29463279 C4.98762143,1.25374298 5.0801602,1.23411355 5.17330394,1.23747913 C5.32761772,1.23977101 5.47848174,1.28347927 5.61012132,1.36403369 C5.76683066,1.44470816 5.87372693,1.59741713 5.89588969,1.77227421 L5.89588969,4.59729872 C5.89832777,4.94060555 6.07320734,5.25968406 6.3612839,5.44643902 L8.25551999,6.72014949 C8.5995353,6.95282433 9.05049576,6.95282433 9.39451108,6.72014949 L11.2601703,5.44643902 C11.5429344,5.25816701 11.7129615,4.94108948 11.7133173,4.60138112 L11.7133173,1.77635663 C11.7259005,1.5941761 11.8305732,1.43100988 11.9909209,1.34362165 C12.1675153,1.22721562 12.3893382,1.20290626 12.586952,1.27830317 L15.8528763,3.17662166 C16.0287148,3.26705638 16.1390782,3.44836756 16.1386447,3.64609827 L16.1590567,10.8801205 Z" id="形状"></path>
                                <path d="M5.95304337,9.20225195 C5.61643372,9.20224447 5.34292663,9.47392818 5.34068257,9.81053035 L5.34068257,11.851733 C5.34068257,12.1899305 5.61484584,12.4640938 5.95304337,12.4640938 C6.2912409,12.4640938 6.56540417,12.1899305 6.56540417,11.851733 L6.56540417,9.81053035 C6.56316011,9.47392818 6.28965302,9.20224447 5.95304337,9.20225195 Z M8.1983663,8.99404928 L8.1983663,12.6682141 C8.1983663,13.0064116 8.47252957,13.2805749 8.81072711,13.2805749 C9.14892464,13.2805749 9.42308791,13.0064116 9.42308791,12.6682141 L9.42308791,8.99404928 C9.42084385,8.65744711 9.14733676,8.38576339 8.81072711,8.38577087 C8.47411746,8.38576339 8.20061037,8.65744711 8.1983663,8.99404928 Z M11.6684108,9.20225195 C11.3318012,9.20224447 11.0582941,9.47392818 11.05605,9.81053035 L11.05605,11.851733 C11.05605,12.1899305 11.3302133,12.4640938 11.6684108,12.4640938 C12.0066084,12.4640938 12.2807716,12.1899305 12.2807716,11.851733 L12.2807716,9.81053035 C12.2785276,9.47392818 12.0050205,9.20224447 11.6684108,9.20225195 Z" id="形状"></path>
                            </g>
                        </g>
                    </g>
                </g>
            </g>
        </g>
    </g>
</svg>