<?xml version="1.0" encoding="UTF-8"?>
<svg width="18px" height="18px" viewBox="0 0 18 18" version="1.1" xmlns="http://www.w3.org/2000/svg" xmlns:xlink="http://www.w3.org/1999/xlink">
    <!-- Generator: Sketch 53.2 (72643) - https://sketchapp.com -->
    <title>应收</title>
    <desc>Created with Sketch.</desc>
    <g id="Page-1" stroke="none" stroke-width="1" fill="none" fill-rule="evenodd">
        <g id="首页" transform="translate(-275.000000, -1619.000000)">
            <g id="分组-9-copy-5" transform="translate(255.000000, 1617.000000)">
                <g id="标签" transform="translate(20.000000, 0.000000)">
                    <g id="分组-3">
                        <g id="分组-50" transform="translate(0.000000, 2.000000)">
                            <g id="分组-49">
                                <circle id="椭圆形" fill="#333333" cx="9" cy="9" r="9"></circle>
                                <g id="订单收款-copy" transform="translate(4.000000, 3.000000)" fill="#FFFFFF" fill-rule="nonzero">
                                    <path d="M4.76039195,3.65851878 L3.75003455,2.6492596 C3.60709632,2.50611919 3.60726021,2.27420663 3.75040062,2.1312684 C3.89354103,1.98833016 4.12545359,1.98849406 4.26839182,2.13163447 L5.12682954,2.98934004 L5.98563333,2.13163447 C6.13077156,2.00282947 6.35112033,2.00935355 6.48838368,2.1465199 C6.62564703,2.28368624 6.63232689,2.50403034 6.50362453,2.6492596 L5.49326713,3.65851878 L5.49326713,3.66071521 L6.59294598,3.66071521 C6.7951217,3.66071521 6.9590175,3.82461101 6.9590175,4.02678673 C6.9590175,4.22896245 6.7951217,4.39285825 6.59294598,4.39285825 L5.49326713,4.39285825 L5.49326713,5.12500129 L6.59294598,5.12500129 C6.7951217,5.12500129 6.9590175,5.2888971 6.9590175,5.49107282 C6.9590175,5.69324853 6.7951217,5.85714434 6.59294598,5.85714434 L5.49326713,5.85714434 L5.49326713,6.50728736 C5.49326713,6.70946308 5.32937133,6.87335888 5.12719561,6.87335888 L5.12646347,6.87335888 C4.92428775,6.87335888 4.76039195,6.70946308 4.76039195,6.50728736 L4.76039195,5.85714434 L3.6607131,5.85714434 C3.45853738,5.85714434 3.29464158,5.69324853 3.29464158,5.49107282 C3.29464158,5.2888971 3.45853738,5.12500129 3.6607131,5.12500129 L4.76039195,5.12500129 L4.76039195,4.39285825 L3.6607131,4.39285825 C3.45853738,4.39285825 3.29464158,4.22896245 3.29464158,4.02678673 C3.29464158,3.82461101 3.45853738,3.66071521 3.6607131,3.66071521 L4.76039195,3.66071521 L4.76039195,3.65851878 Z M1.49356969,8.72494863 C1.3636143,8.72494863 1.26184642,8.72860935 1.18643569,8.73300221 C1.25672142,8.80328794 1.34970359,8.8885826 1.46098933,8.98559156 C1.81445503,9.28852007 2.17958294,9.57756949 2.55554318,9.85208285 C3.42789161,10.4930741 4.2416686,10.9821456 4.39285614,10.9821456 C4.98369558,10.9821456 6.40734772,10.6270563 7.19623185,10.2529312 C7.82477665,9.95458287 8.43977681,10.1021097 8.95850015,10.6534134 C9.06940563,10.7227293 9.13490692,10.8459472 9.13033031,10.9766522 C9.1257537,11.1073571 9.05179449,11.2256918 8.9363124,11.2870808 C8.82083031,11.3484698 8.68136981,11.3435866 8.57046434,11.2742707 C8.51709235,11.2409035 8.46824607,11.200793 8.42513395,11.1549314 C8.11507137,10.825467 7.83758915,10.758842 7.50995514,10.9144224 C6.62772278,11.3328421 5.09864203,11.7142887 4.39285614,11.7142887 C3.66766846,11.7142887 0.366069409,9.28613627 0.366069409,8.73373435 C0.366069409,8.15790385 0.641355193,7.99280559 1.49356969,7.99280559 C1.90759658,7.99280559 2.17665915,8.13557348 3.08598081,8.72238613 C3.19323977,8.79193972 3.26974871,8.84062723 3.34515945,8.88748439 C3.83496314,9.19278804 4.15930251,9.33482379 4.39285614,9.33482379 C4.70511515,9.33482379 5.03274916,9.29894878 5.31535637,9.2381809 C5.24830387,9.22569165 5.181312,9.21287899 5.11438311,9.1997434 C4.32147219,9.04123443 3.91989174,8.87284153 3.80457921,8.43465392 C3.62996309,7.77206446 4.09816857,7.4180733 4.89547234,7.41331437 C6.4809281,7.20465361 7.71056234,7.34888578 8.5825447,7.86614484 C8.77473225,7.97962702 8.95593765,8.08761811 9.10273233,8.17584135 L10.0457326,8.64038611 C10.2259556,8.7303585 10.299628,8.94902921 10.2105933,9.12971729 C10.1215586,9.31040538 9.90327363,9.38521304 9.72212534,9.29711842 L8.75423224,8.81902901 L8.20915175,8.49578786 C7.49714264,8.0737074 6.41723165,7.94887701 4.96832057,8.14252884 L4.91853485,8.14545741 C4.69376693,8.14472527 4.55099904,8.17401099 4.49682045,8.20951993 C4.49974903,8.21025207 4.50450795,8.21830565 4.51256153,8.24832351 C4.51988296,8.27614495 4.78455267,8.38743069 5.25788315,8.48187714 C5.36111531,8.50237715 5.70924933,8.56643966 5.7546422,8.57522538 C6.4230888,8.70518077 6.58928527,8.76448436 6.58928527,9.15178803 C6.58928527,9.75177925 5.51925821,10.0669668 4.39285614,10.0669668 C3.97736496,10.0669668 3.56077557,9.88466321 2.95785578,9.50907383 C2.86770514,9.45257369 2.77801466,9.39534262 2.68879321,9.33738629 C1.95152517,8.86149331 1.69381082,8.72494863 1.49356969,8.72494863 L1.49356969,8.72494863 Z M9.8345093,7.14937681 C9.78443885,7.27191871 9.67211181,7.3578823 9.54074408,7.37419456 C9.40937636,7.39050683 9.27943616,7.33462618 9.20091575,7.22805173 C9.12239533,7.12147728 9.10752885,6.98081424 9.16203592,6.8601803 C9.39558955,6.31693017 9.51785744,5.72975145 9.51785744,5.12500129 C9.51785744,2.69904532 7.55095515,0.732143042 5.12499918,0.732143042 C2.69904321,0.732143042 0.73214093,2.69904532 0.73214093,5.12500129 C0.73214093,5.82859076 0.897239186,6.50765343 1.21023034,7.12009108 C1.30211919,7.30022965 1.23057868,7.52075144 1.05044011,7.61264031 C0.870301552,7.70452917 0.649779753,7.63298866 0.557890886,7.4528501 C0.190041724,6.73209001 -0.00118023374,5.93420258 -2.11158536e-06,5.12500129 C-2.11158536e-06,2.29453629 2.29453418,0 5.12499918,0 C7.95546418,0 10.2500005,2.29453629 10.2500005,5.12500129 C10.2500005,5.83005504 10.1072326,6.51534093 9.8345093,7.14937681 Z" id="形状"></path>
                                </g>
                            </g>
                        </g>
                    </g>
                </g>
            </g>
        </g>
    </g>
</svg>
