<?xml version="1.0" encoding="UTF-8"?>
<svg width="17px" height="18px" viewBox="0 0 17 18" version="1.1" xmlns="http://www.w3.org/2000/svg" xmlns:xlink="http://www.w3.org/1999/xlink">
    <!-- Generator: Sketch 53.2 (72643) - https://sketchapp.com -->
    <title>分组 57 copy</title>
    <desc>Created with Sketch.</desc>
    <g id="Page-1" stroke="none" stroke-width="1" fill="none" fill-rule="evenodd">
        <g id="菜单结构" transform="translate(-43.000000, -516.000000)" fill="#FFFFFF" fill-rule="nonzero">
            <g id="菜单">
                <g id="一级导航" transform="translate(0.000000, 502.000000)">
                    <g id="分组-2-copy-3" transform="translate(43.000000, 12.000000)">
                        <g id="分组-57-copy" transform="translate(0.000000, 2.000000)">
                            <g id="icon">
                                <g id="资产总览">
                                    <path d="M8.39880952,3.48835247 C8.03452381,3.48835247 7.74107143,3.77088634 7.74107143,4.12161805 L7.74107143,5.61222781 L9.05654762,5.61222781 L9.05654762,4.12161805 C9.05654762,3.77088634 8.76309524,3.48835247 8.39880952,3.48835247 Z M7.74107143,13.8251953 C7.74107143,14.175927 8.03452381,14.4584609 8.39880952,14.4584609 C8.76309524,14.4584609 9.05654762,14.175927 9.05654762,13.8251953 L9.05654762,12.3151005 L7.74107143,12.3151005 L7.74107143,13.8251953 Z" id="形状"></path>
                                    <path d="M7.28757904,8.3401411 C6.8833793,8.3401411 6.54818928,8.01863703 6.54818928,7.60945004 C6.54818928,7.20026304 6.87352077,6.87875898 7.28757904,6.87875898 L10.6394793,6.87875898 C10.9943864,6.87875898 11.2802838,6.5962251 11.2802838,6.24549339 C11.2802838,5.89476169 10.9943864,5.61222781 10.6394793,5.61222781 L7.29743757,5.61222781 C6.17356513,5.61222781 5.27643889,6.50854218 5.27643889,7.60945004 C5.27643889,8.7103579 6.18342366,9.60667227 7.29743757,9.60667227 L9.47617274,9.60667227 C9.88037247,9.60667227 10.2155625,9.92817633 10.2155625,10.3373633 C10.2155625,10.7465503 9.890231,11.0680544 9.47617274,11.0680544 L6.12427248,11.0680544 C5.7693654,11.0680544 5.48346802,11.3505883 5.48346802,11.70132 C5.48346802,12.0520517 5.7693654,12.3345856 6.12427248,12.3345856 L9.46631421,12.3345856 C10.5803281,12.3345856 11.4873129,11.4382712 11.4873129,10.3373633 C11.4873129,9.24619801 10.6099037,8.36936874 9.53532392,8.3401411 L7.28757904,8.3401411 Z" id="路径"></path>
                                    <path d="M15.3240499,0.0143093666 L1.69289448,0.0143093666 C0.766192641,0.0143093666 0.0169443487,0.754742973 0.0169443487,1.67054243 L0.0169443487,16.3437669 C0.0169443487,17.2595664 0.766192641,18 1.69289448,18 L15.3240499,18 C16.2507517,18 17,17.2595664 17,16.3437669 L17,1.66079989 C17,0.754742973 16.2507517,0.0143093666 15.3240499,0.0143093666 Z M15.3240499,16.7237263 L1.69289448,16.7237263 C1.47600681,16.7237263 1.29855327,16.5483604 1.29855327,16.3340244 L1.29855327,1.66079989 C1.29855327,1.44646384 1.47600681,1.27109799 1.69289448,1.27109799 L15.3240499,1.27109799 C15.5409375,1.27109799 15.7183911,1.44646384 15.7183911,1.66079989 L15.7183911,16.3340244 C15.7183911,16.5483604 15.5409375,16.7237263 15.3240499,16.7237263 Z" id="形状"></path>
                                </g>
                            </g>
                        </g>
                    </g>
                </g>
            </g>
        </g>
    </g>
</svg>