<?xml version="1.0" encoding="UTF-8"?>
<svg width="11px" height="13px" viewBox="0 0 11 13" version="1.1" xmlns="http://www.w3.org/2000/svg" xmlns:xlink="http://www.w3.org/1999/xlink">
    <!-- Generator: Sketch 53.2 (72643) - https://sketchapp.com -->
    <title>分组 2</title>
    <desc>Created with Sketch.</desc>
    <g id="Page-1" stroke="none" stroke-width="1" fill="none" fill-rule="evenodd">
        <g id="个人切换" transform="translate(-255.000000, -75.000000)" fill-rule="nonzero">
            <g id="分组-2" transform="translate(255.000000, 75.000000)">
                <g id="身份认证-(1)">
                    <path d="M5.5,13 C5.19665461,13 4.89330922,12.9286338 4.61482821,12.7859014 C2.89089813,11.897068 0,10.0642545 0,7.77080474 L0,2.82220836 C0,2.50268247 0.258589512,2.2415471 0.583484027,2.23181535 C1.82172996,2.19126638 2.98372514,1.62844666 3.7677818,0.684466625 C4.13080169,0.249781659 4.68113321,0 5.27953586,0 L5.44861362,0 C6.0088909,0 6.5443038,0.254647536 6.91561181,0.697442296 C7.73945148,1.68034934 8.96112116,2.23343731 10.2640145,2.23343731 C10.2955093,2.23343731 10.3270042,2.23343731 10.3584991,2.23181535 C10.5259192,2.22046163 10.6883665,2.27885215 10.8093731,2.39076731 C10.9303797,2.50268247 11,2.65839052 11,2.8205864 L11,7.77080474 C11,10.0642545 8.10910187,11.897068 6.38517179,12.7859014 C6.1083484,12.9286338 5.80334539,13 5.5,13 L5.5,13 Z" id="形状" fill="#F5A623"></path>
                    <path d="M5.23034668,8.3828125 C5.08659668,8.3828125 4.94284668,8.328125 4.83190918,8.2203125 L3.69284668,7.1046875 C3.46784668,6.884375 3.46472168,6.5234375 3.68503418,6.3 C3.90534668,6.075 4.26472168,6.071875 4.48972168,6.2921875 L5.22722168,7.015625 L6.94597168,5.315625 C7.16940918,5.0953125 7.53034668,5.096875 7.75065918,5.3203125 C7.97097168,5.54375 7.96940918,5.9046875 7.74597168,6.125 L5.63034668,8.21875 C5.51940918,8.328125 5.37565918,8.3828125 5.23034668,8.3828125 Z" id="路径" fill="#FFFFFF"></path>
                </g>
            </g>
        </g>
    </g>
</svg>