<?xml version="1.0" encoding="UTF-8"?>
<svg width="18px" height="18px" viewBox="0 0 18 18" version="1.1" xmlns="http://www.w3.org/2000/svg" xmlns:xlink="http://www.w3.org/1999/xlink">
    <!-- Generator: Sketch 53.2 (72643) - https://sketchapp.com -->
    <title>icon copy</title>
    <desc>Created with Sketch.</desc>
    <g id="Page-1" stroke="none" stroke-width="1" fill="none" fill-rule="evenodd">
        <g id="菜单" transform="translate(-44.000000, -149.000000)" fill="#FFFFFF" fill-rule="nonzero">
            <g id="一级导航">
                <g transform="translate(0.000000, 134.000000)">
                    <g id="分组-29" transform="translate(44.000000, 15.000000)">
                        <g id="icon-copy">
                            <g id="管理-线性" transform="translate(-0.000000, 0.000000)">
                                <path d="M5.83300015,0.0105105576 L2.48448921,0.0105105576 C1.12038573,0.0203874012 0.0154368925,1.12084158 1.84741111e-12,2.48489346 L1.84741111e-12,5.83542566 C0.0155952714,7.19290443 1.12699982,8.28163422 2.48451167,8.26924859 L8.25467305,8.26924859 L8.25467305,2.48489346 C8.26552097,1.83451009 8.01557021,1.2068478 7.56059605,0.741966395 C7.10562189,0.277084985 6.48348875,0.0136733658 5.83302261,0.0105105576 L5.83300015,0.0105105576 Z M7.04991162,7.05233713 L2.48448921,7.05233713 C1.80407753,7.05803304 1.24548893,6.51570866 1.23108275,5.83542566 L1.23108275,2.48489346 C1.24745303,1.80254014 1.80196926,1.25609177 2.48448921,1.24972327 L5.83300015,1.24972327 C6.15893372,1.24968658 6.47125945,1.38039989 6.70000682,1.61257942 C6.92875419,1.84475895 7.05480197,2.15899658 7.04991162,2.48489346 L7.04991162,7.05233713 Z M15.2376136,0.0105105576 L11.8850825,0.0105105576 C10.5216464,0.0204093664 9.4178617,1.12148576 9.4046134,2.48489346 L9.4046134,8.2631831 L15.237636,8.26313989 C15.883009,8.26700535 16.5028644,8.01136673 16.9578858,7.55368038 C17.4129072,7.09599403 17.6649218,6.47465641 17.6572877,5.82931696 L17.6572877,2.48489346 C17.6648644,1.83580645 17.414116,1.21032797 16.9602703,0.746220834 C16.5064246,0.282113698 15.8867077,0.0174457312 15.2376136,0.0105105576 Z M16.4261151,5.83542566 C16.433769,6.15552904 16.3119394,6.46517932 16.0882171,6.69424942 C15.8644949,6.92331953 15.5578084,7.05242862 15.2376136,7.05233713 L10.6154386,7.05233718 L10.6154386,2.48489346 C10.6393227,1.79948073 11.1992721,1.25473525 11.8850825,1.24972327 L15.2376136,1.24972327 C15.9089589,1.2652391 16.4408439,1.82163786 16.4261151,2.49300096 L16.4261151,5.83542566 L16.4261151,5.83542566 Z M1.8189894e-12,11.8854643 L1.8189894e-12,15.2441265 C0.0178012615,16.6006622 1.12789727,17.6881101 2.48451167,17.6779494 L5.83302261,17.6779494 C6.47857329,17.6818005 7.09862369,17.4262225 7.55395926,16.9685981 C8.00929483,16.5109738 8.26176076,15.8896498 8.25467305,15.2441265 L8.25467305,9.41516888 L2.48448921,9.41516888 C1.12105838,9.4228503 0.0154927501,10.5220999 1.8189894e-12,11.8854643 L1.8189894e-12,11.8854643 Z M7.04993407,15.2441265 C7.05112339,15.5650258 6.92249713,15.8727692 6.6933045,16.0973767 C6.46411188,16.3219842 6.15383239,16.444366 5.83302261,16.436693 L2.48448921,16.436693 C1.81028369,16.4503317 1.25099263,15.9181984 1.23108275,15.244149 L1.23108275,11.8854643 C1.24289271,11.1971696 1.79626007,10.6411054 2.48448921,10.6259492 L7.04994225,10.6259492 L7.04993407,15.2441265 Z M15.2376136,9.41516888 L9.4046134,9.41516888 L9.4046134,15.2441265 C9.42020888,16.6000145 10.5291428,17.6880945 11.8850825,17.6779494 L15.2376136,17.6779494 C15.882653,17.680712 16.5018663,17.4247214 16.9566506,16.9672778 C17.411435,16.5098341 17.663811,15.8891388 17.6572877,15.2441265 L17.6572877,11.8854643 C17.6670301,11.2361242 17.4168602,10.6098198 16.9624338,10.1458865 C16.5080074,9.68195309 15.8870162,9.4188711 15.2376136,9.41516888 Z M16.4261151,15.2441265 C16.4332915,15.5625927 16.3107823,15.8703104 16.0866861,16.0967019 C15.8625898,16.3230933 15.5561363,16.4487316 15.2376136,16.4448005 L11.8850825,16.4448005 C11.2045403,16.4596305 10.6386029,15.924436 10.6154386,15.2441265 L10.6154386,10.6259941 L15.237636,10.6259941 C15.5629357,10.6333885 15.8717253,10.7707502 16.0950422,11.0074021 C16.3183592,11.2440539 16.4376011,11.5602826 16.4261375,11.8854643 L16.4261151,15.2441265 Z" id="形状"></path>
                            </g>
                        </g>
                    </g>
                </g>
            </g>
        </g>
    </g>
</svg>