<?xml version="1.0" encoding="UTF-8"?>
<svg width="15px" height="15px" viewBox="0 0 15 15" version="1.1" xmlns="http://www.w3.org/2000/svg" xmlns:xlink="http://www.w3.org/1999/xlink">
    <!-- Generator: Sketch 53.2 (72643) - https://sketchapp.com -->
    <title>退出</title>
    <desc>Created with Sketch.</desc>
    <g id="Page-1" stroke="none" stroke-width="1" fill="none" fill-rule="evenodd">
        <g id="账单打印" transform="translate(-1405.000000, -13.000000)" fill="#4D4D4D" fill-rule="nonzero">
            <g id="头" transform="translate(235.000000, 0.000000)">
                <g id="头像" transform="translate(1118.000000, 10.000000)">
                    <g id="退出" transform="translate(59.142578, 10.125000) rotate(-180.000000) translate(-59.142578, -10.125000) translate(51.642578, 2.625000)">
                        <path d="M14.0800781,14.625 L5.08007812,14.625 C4.76941795,14.625 4.51757812,14.3731602 4.51757812,14.0625 L4.51757812,11.8125 C4.51757812,11.5018398 4.76941795,11.25 5.08007812,11.25 C5.3907383,11.25 5.64257812,11.5018398 5.64257812,11.8125 L5.64257812,13.5 L13.5175781,13.5 L13.5175781,1.125 L5.64257812,1.125 L5.64257812,2.8125 C5.64257812,3.12316017 5.3907383,3.375 5.08007812,3.375 C4.76941795,3.375 4.51757812,3.12316017 4.51757812,2.8125 L4.51757812,0.5625 C4.51757812,0.251839828 4.76941795,0 5.08007812,0 L14.0800781,0 C14.3907383,0 14.6425781,0.251839828 14.6425781,0.5625 L14.6425781,14.0625 C14.6425781,14.3731602 14.3907383,14.625 14.0800781,14.625 Z" id="路径"></path>
                        <path d="M9.01757812,7.875 L1.70507812,7.875 C1.39441795,7.875 1.14257812,7.62316017 1.14257812,7.3125 C1.14257812,7.00183983 1.39441795,6.75 1.70507812,6.75 L9.01757812,6.75 C9.3282383,6.75 9.58007812,7.00183983 9.58007812,7.3125 C9.58007812,7.62316017 9.3282383,7.875 9.01757812,7.875 Z" id="路径"></path>
                        <path d="M2.83007812,10.125 C2.68089878,10.1268186 2.5378935,10.0655306 2.43632812,9.95625 L0.186328125,7.70625 C0.077566246,7.604175 0.0158696484,7.46165915 0.0158696484,7.3125 C0.0158696484,7.16334085 0.077566246,7.020825 0.186328125,6.91875 L2.43632812,4.66875 C2.65379025,4.45128788 3.006366,4.45128788 3.22382812,4.66875 C3.44129025,4.88621212 3.44129025,5.23878788 3.22382812,5.45625 L1.37882812,7.3125 L3.22382812,9.16875 C3.33259,9.270825 3.3942866,9.41334085 3.3942866,9.5625 C3.3942866,9.71165915 3.33259,9.854175 3.22382813,9.95625 C3.12226275,10.0655306 2.97925747,10.1268186 2.83007813,10.125 L2.83007812,10.125 Z" id="路径"></path>
                    </g>
                </g>
            </g>
        </g>
    </g>
</svg>