<?xml version="1.0" encoding="UTF-8"?>
<svg width="126px" height="22px" viewBox="0 0 126 22" version="1.1" xmlns="http://www.w3.org/2000/svg" xmlns:xlink="http://www.w3.org/1999/xlink">
    <!-- Generator: Sketch 53.2 (72643) - https://sketchapp.com -->
    <title>logo</title>
    <desc>Created with Sketch.</desc>
    <g id="Page-1" stroke="none" stroke-width="1" fill="none" fill-rule="evenodd">
        <g id="logo" transform="translate(-43.000000, -214.000000)" fill="#FFFFFF">
            <g id="分组-6-copy-3" transform="translate(43.000000, 208.000000)">
                <g id="logo">
                    <polygon id="Fill-1" points="37.4038903 6.42083131 39.4346484 10.5664718 46.7248515 10.5664718 46.7248515 22.7514414 41.0128184 22.7514414 43.0431559 26.897082 51.4051013 26.897082 51.4051013 6.42083131"></polygon>
                    <polygon id="Fill-2" points="25.7514689 6.42083131 33.7499977 22.7514414 29.0747954 22.7514414 21.0762665 6.42083131 11.0469795 26.897082 23.8363815 26.897082 21.8056233 22.7514414 17.7579875 22.7514414 21.0762665 15.9773403 26.4244625 26.897082 40.4610057 26.897082 30.4321393 6.42083131"></polygon>
                    <polygon id="Fill-3" points="0 6.42083131 0 26.897082 8.37077843 26.897082 10.4015366 22.7514414 4.68067044 22.7514414 4.68067044 10.5664718 11.9708735 10.5664718 14.0012111 6.42083131"></polygon>
                    <g id="分组" transform="translate(56.101350, 0.286653)" fill-rule="nonzero">
                        <path d="M3.28674052,6.17534679 C4.66674052,6.61234679 5.95474052,7.14134679 7.10474052,7.78534679 L5.93174052,9.55634679 C4.71274052,8.79734679 3.47074052,8.22234679 2.20574052,7.80834679 L3.28674052,6.17534679 Z M10.3247405,5.76134679 L12.4637405,6.03734679 C12.3257405,6.49734679 12.1647405,6.91134679 11.9807405,7.32534679 L20.9967405,7.32534679 L20.9967405,8.63634679 C20.7437405,9.74034679 20.3987405,10.8673468 19.9847405,11.9713468 L17.8917405,11.3503468 C18.2367405,10.7293468 18.5357405,10.0163468 18.7657405,9.23434679 L15.4077405,9.23434679 C15.3157405,9.69434679 15.2007405,10.1083468 15.0627405,10.5223468 C16.2817405,12.1553468 18.5817405,13.2823468 21.9857405,13.9033468 L21.2037405,15.8123468 C17.9607405,15.1453468 15.6147405,13.9493468 14.1657405,12.2473468 C13.9357405,12.5693468 13.7057405,12.8453468 13.4527405,13.1213468 C12.3717405,14.2023468 10.5087405,15.0533468 7.88674052,15.6973468 L7.08174052,13.7423468 C9.24374052,13.2823468 10.8077405,12.6613468 11.7737405,11.8333468 C12.5097405,11.1663468 13.0387405,10.2923468 13.3377405,9.23434679 L10.8307405,9.23434679 C10.2327405,10.0393468 9.49674052,10.7753468 8.66874052,11.4193468 L7.38074052,9.71734679 C8.82974052,8.65934679 9.81874052,7.32534679 10.3247405,5.76134679 Z M19.4787405,16.0423468 L19.4787405,22.9193468 L17.2707405,22.9193468 L17.2707405,18.0663468 L6.57574052,18.0663468 L6.57574052,23.1493468 L4.39074052,23.1493468 L4.39074052,16.0423468 L19.4787405,16.0423468 Z M11.0147405,18.6873468 L13.1997405,18.8713468 C12.8777405,21.8153468 12.1647405,23.7703468 11.1067405,24.7133468 C9.95674052,25.9323468 7.24274052,26.7143468 2.94174052,27.0823468 L2.09074052,25.1043468 C5.70174052,24.9203468 8.07074052,24.3683468 9.22074052,23.4253468 C10.2327405,22.5053468 10.8307405,20.9413468 11.0147405,18.6873468 Z M6.20774052,10.5683468 L7.49574052,12.0633468 C6.34574052,13.2363468 4.91974052,14.3173468 3.21774052,15.3293468 L1.76874052,13.6503468 C3.51674052,12.6843468 5.01174052,11.6723468 6.20774052,10.5683468 Z M13.6367405,22.7583468 C16.6037405,23.4943468 19.3177405,24.3913468 21.7787405,25.4493468 L20.5827405,27.2663468 C17.9607405,26.0473468 15.2927405,25.1043468 12.5327405,24.4143468 L13.6367405,22.7583468 Z M42.3010132,14.8923468 L42.3010132,19.7223468 L31.1000132,19.7223468 L31.1000132,20.9413468 L43.3820132,20.9413468 L43.3820132,27.0823468 L41.1970132,27.0823468 L41.1970132,26.2543468 L31.1000132,26.2543468 L31.1000132,27.0593468 L28.9150132,27.0593468 L28.9150132,14.8923468 L42.3010132,14.8923468 Z M31.1000132,24.3223468 L41.1970132,24.3223468 L41.1970132,22.6663468 L31.1000132,22.6663468 L31.1000132,24.3223468 Z M31.1000132,17.9743468 L40.1620132,17.9743468 L40.1620132,16.6403468 L31.1000132,16.6403468 L31.1000132,17.9743468 Z M45.4750132,12.0173468 L45.4750132,16.4103468 L43.3360132,16.4103468 L43.3360132,13.8573468 L27.8340132,13.8573468 L27.8340132,16.4103468 L25.6950132,16.4103468 L25.6950132,12.0173468 L34.5960132,12.0173468 C34.4120132,11.5573468 34.2050132,11.1433468 33.9980132,10.7753468 L35.9300132,10.4533468 L35.5390132,10.2003468 C36.5970132,8.82034679 37.3790132,7.34834679 37.8390132,5.76134679 L39.9320132,6.22134679 C39.7940132,6.61234679 39.6790132,6.98034679 39.5410132,7.34834679 L45.9350132,7.34834679 L45.9350132,9.25734679 L42.1860132,9.25734679 C42.5540132,9.76334679 42.8530132,10.2693468 43.1060132,10.7293468 L41.1740132,11.4423468 C40.8060132,10.7063468 40.3690132,9.97034679 39.8630132,9.25734679 L38.6900132,9.25734679 C38.2990132,10.0163468 37.8620132,10.7293468 37.3790132,11.3733468 L36.2750132,10.6603468 C36.4590132,11.0743468 36.6200132,11.5343468 36.8040132,12.0173468 L45.4750132,12.0173468 Z M28.8000132,9.25734679 C28.2940132,10.0853468 27.7420132,10.8673468 27.1440132,11.5803468 L25.2350132,10.3843468 C26.5690132,8.95834679 27.5120132,7.39434679 28.0870132,5.73834679 L30.1800132,6.19834679 C30.0420132,6.58934679 29.8810132,6.98034679 29.7430132,7.34834679 L35.5390132,7.34834679 L35.5390132,9.25734679 L32.0890132,9.25734679 C32.5030132,9.83234679 32.8710132,10.3843468 33.1470132,10.9133468 L31.1460132,11.6723468 C30.7550132,10.8443468 30.3180132,10.0393468 29.8120132,9.25734679 L28.8000132,9.25734679 Z M51.070286,7.02634679 L67.584286,7.02634679 L67.584286,9.14234679 L51.070286,9.14234679 L51.070286,7.02634679 Z M48.862286,13.3743468 L69.631286,13.3743468 L69.631286,15.5593468 L58.729286,15.5593468 C56.751286,19.5153468 55.026286,22.3443468 53.531286,24.0463468 C57.303286,23.8163468 61.075286,23.4253468 64.801286,22.8963468 C64.065286,21.5853468 63.260286,20.2283468 62.386286,18.8483468 L64.134286,17.7673468 C66.227286,20.8723468 67.837286,23.5863468 68.987286,25.8863468 L67.032286,27.2433468 C66.664286,26.4613468 66.296286,25.6793468 65.882286,24.8973468 C61.259286,25.5413468 56.245286,26.0473468 50.817286,26.4153468 L50.242286,24.1843468 C50.472286,24.1153468 50.656286,24.0463468 50.771286,23.9773468 C52.174286,22.9193468 54.014286,20.1133468 56.291286,15.5593468 L48.862286,15.5593468 L48.862286,13.3743468 Z" id="资管云"></path>
                    </g>
                </g>
            </g>
        </g>
    </g>
</svg>