<?xml version="1.0" encoding="UTF-8"?>
<svg width="42px" height="42px" viewBox="0 0 42 42" version="1.1" xmlns="http://www.w3.org/2000/svg" xmlns:xlink="http://www.w3.org/1999/xlink">
    <!-- Generator: Sketch 53.2 (72643) - https://sketchapp.com -->
    <title>分组 33</title>
    <desc>Created with Sketch.</desc>
    <g id="Page-1" stroke="none" stroke-width="1" fill="none" fill-rule="evenodd">
        <g id="经营分析-多项目估值" transform="translate(-1367.000000, -2060.000000)">
            <g id="卡片-copy" transform="translate(255.000000, 2041.000000)">
                <g id="总租金收入" transform="translate(900.000000, 0.000000)">
                    <g id="卡片1">
                        <g id="分组-34" transform="translate(212.000000, 19.000000)">
                            <g id="分组-33">
                                <circle id="椭圆形" fill="#EEEAFF" cx="21" cy="21" r="21"></circle>
                                <g id="钱包" transform="translate(15.000000, 13.000000)" fill="#8F67FF" fill-rule="nonzero">
                                    <path d="M15.0854769,2.40697601 C15.0854769,1.11243772 13.9758727,0.00283349841 12.6813344,0.00283351873 L2.41749524,0.00283351873 C1.12295696,0.00283351873 0.0133527314,1.11243774 0.0133527314,2.40697601 L0.0133527314,12.6245817 C0.0133527314,13.9191199 1.12295696,15.0287242 2.41749524,15.0287242 L12.6351009,15.0287242 C13.9296392,15.0287242 15.0392434,13.9191199 15.0392434,12.6245817 L15.0392434,10.0817386 L9.62992276,10.0817386 C9.62992276,10.0355051 7.54941482,10.2204392 7.54941482,7.63136261 C7.54941482,4.85735203 9.81485679,5.04228606 9.81485679,5.04228606 L15.0854769,5.04228606 L15.0854769,2.40697601 Z" id="路径"></path>
                                    <path d="M8.52031851,7.58512911 C8.52031851,9.38823599 10.1384913,9.20330194 10.1384914,9.20330194 L14.9005429,9.20330194 L14.9005429,5.7357887 L10.2771919,5.7357887 C10.2771919,5.78202222 8.52031851,5.64332169 8.52031851,7.58512911 L8.52031851,7.58512911 Z M10.3234254,6.79915943 C10.64706,6.79915943 10.924461,7.07656048 10.924461,7.40019505 C10.924461,7.63136261 10.7857605,7.81629664 10.6008264,7.95499718 C10.4158924,8.04746419 10.1847249,8.04746419 9.99979083,7.95499718 C9.81485679,7.86253016 9.67615626,7.63136261 9.67615626,7.40019505 C9.72238978,7.07656048 9.99979083,6.79915943 10.3234254,6.79915943 L10.3234254,6.79915943 Z" id="形状"></path>
                                </g>
                            </g>
                        </g>
                    </g>
                </g>
            </g>
        </g>
    </g>
</svg>