<?xml version="1.0" encoding="UTF-8"?>
<svg width="42px" height="42px" viewBox="0 0 42 42" version="1.1" xmlns="http://www.w3.org/2000/svg" xmlns:xlink="http://www.w3.org/1999/xlink">
    <!-- Generator: Sketch 53.2 (72643) - https://sketchapp.com -->
    <title>分组 14</title>
    <desc>Created with Sketch.</desc>
    <defs>
        <rect id="path-1" x="0" y="0" width="280" height="174" rx="3"></rect>
        <filter x="-3.9%" y="-4.0%" width="107.9%" height="112.6%" filterUnits="objectBoundingBox" id="filter-2">
            <feOffset dx="0" dy="4" in="SourceAlpha" result="shadowOffsetOuter1"></feOffset>
            <feGaussianBlur stdDeviation="3" in="shadowOffsetOuter1" result="shadowBlurOuter1"></feGaussianBlur>
            <feColorMatrix values="0 0 0 0 0.94885077   0 0 0 0 0.946102574   0 0 0 0 0.946102574  0 0 0 0.5 0" type="matrix" in="shadowBlurOuter1"></feColorMatrix>
        </filter>
    </defs>
    <g id="Page-1" stroke="none" stroke-width="1" fill="none" fill-rule="evenodd">
        <g id="经营分析-多项目估值" transform="translate(-467.000000, -2060.000000)">
            <g id="卡片-copy" transform="translate(255.000000, 2041.000000)">
                <g id="总项目">
                    <g id="矩形">
                        <use fill="black" fill-opacity="1" filter="url(#filter-2)" xlink:href="#path-1"></use>
                        <use fill="#FFFFFF" fill-rule="evenodd" xlink:href="#path-1"></use>
                    </g>
                    <g id="分组-14" transform="translate(212.000000, 19.000000)">
                        <circle id="椭圆形" fill="#FDE0F4" cx="21" cy="21" r="21"></circle>
                        <g id="人员" transform="translate(11.000000, 12.000000)" fill="#DC1CB1" fill-rule="nonzero">
                            <path d="M2.71436667,3.98714999 C2.71436667,1.79621665 4.52663333,0.0202166708 6.76236667,0.0202166708 C8.99916666,0.0202166708 10.8114333,1.79621668 10.8114333,3.98714999 C10.8114333,6.17808331 8.99809999,7.95408332 6.76236667,7.95408334 C4.52663335,7.95408336 2.71436667,6.17808334 2.71436667,3.98714999 Z M8.27916666,14.9268833 L8.27916666,14.65275 C8.27916666,12.63035 9.33303332,10.8532833 10.9223667,9.80581667 C10.2043998,9.4581709 9.41713861,9.27730867 8.61943333,9.27674999 L5.2445,9.27674999 C2.35596666,9.27674999 0.0146333229,11.5700833 0.0146333229,14.39995 L0.0146333229,14.7306167 C0.0146333229,15.88795 2.35596666,15.88795 5.2445,15.88795 L8.47116666,15.88795 C8.33986663,15.5847944 8.27442392,15.2572173 8.27916666,14.9268833 Z M15.4663667,2.71568332 C13.6114333,2.71568332 12.1063667,4.18981665 12.1063667,6.00848334 C12.1063667,7.82715003 13.6114333,9.30128334 15.4663667,9.30128334 C17.3223667,9.30128334 18.8263667,7.82715001 18.8263667,6.00848334 C18.8263667,4.18981668 17.3234333,2.71568335 15.4663667,2.71568332 Z M15.4663667,2.71568332 C13.6114333,2.71568332 12.1063667,4.18981665 12.1063667,6.00848334 C12.1063667,7.82715003 13.6114333,9.30128334 15.4663667,9.30128334 C17.3223667,9.30128334 18.8263667,7.82715001 18.8263667,6.00848334 C18.8263667,4.18981668 17.3234333,2.71568335 15.4663667,2.71568332 Z M14.2077,10.39995 C11.8098333,10.39995 9.86636667,12.30395 9.86636667,14.65275 L9.86636667,14.9268833 C9.86636667,15.8868833 11.8098333,15.8868833 14.2077,15.8868833 L17.0087667,15.8868833 C19.4055667,15.8868833 21.3479667,15.8516833 21.3479667,14.9268833 L21.3479667,14.65275 C21.3479667,12.30395 19.4055667,10.39995 17.0087667,10.39995 L14.2077,10.39995 Z" id="形状"></path>
                        </g>
                    </g>
                </g>
            </g>
        </g>
    </g>
</svg>