<?xml version="1.0" encoding="UTF-8"?>
<svg width="42px" height="42px" viewBox="0 0 42 42" version="1.1" xmlns="http://www.w3.org/2000/svg" xmlns:xlink="http://www.w3.org/1999/xlink">
    <!-- Generator: Sketch 53.2 (72643) - https://sketchapp.com -->
    <title>分组 29</title>
    <desc>Created with Sketch.</desc>
    <g id="Page-1" stroke="none" stroke-width="1" fill="none" fill-rule="evenodd">
        <g id="经营分析-多项目估值" transform="translate(-767.000000, -2060.000000)">
            <g id="卡片-copy" transform="translate(255.000000, 2041.000000)">
                <g id="上月收入" transform="translate(300.000000, 0.000000)">
                    <g id="卡片1">
                        <g id="分组-30" transform="translate(212.000000, 19.000000)">
                            <g id="分组-29">
                                <circle id="椭圆形" fill="#D6EEFF" cx="21" cy="21" r="21"></circle>
                                <g id="会员" transform="translate(12.000000, 14.000000)" fill-rule="nonzero">
                                    <path d="M18.9505208,5.4921875 C18.9228125,5.40114583 18.88125,5.3140625 18.8198958,5.23489583 L15.1208333,0.3265625 C14.9605208,0.114791667 14.7151042,0.00197916667 14.4677083,0.00395833333 L4.524375,0.00395833333 C4.21958333,0.00395833333 3.954375,0.1721875 3.81583333,0.4215625 L0.1721875,5.25666667 C0.1128125,5.33583333 0.0692708333,5.42489583 0.0415625,5.51395833 C-0.0475,5.783125 0.0059375,6.08989583 0.209791667,6.31552083 L8.79739583,15.7897917 C8.835,15.8491667 8.88052083,15.9026042 8.9359375,15.9520833 C8.9775,15.9896875 9.02104167,16.0213542 9.0665625,16.0490625 C9.369375,16.2509375 9.7790625,16.2291667 10.0601042,15.9758333 C10.1471875,15.8966667 10.2125,15.8036458 10.2560417,15.7046875 L18.7842708,6.29375 C18.9861458,6.068125 19.0415625,5.76135417 18.9505208,5.4921875 Z" id="路径" fill="#0083FF"></path>
                                    <path d="M10.176875,11.7285417 C10.509375,11.4277083 10.533125,10.9151042 10.2322917,10.5845833 L6.12947917,6.05625 C5.82864583,5.72375 5.31604167,5.7 4.98552083,6.00083333 C4.65302083,6.30166667 4.62927083,6.81427083 4.93010417,7.14479167 L9.03489583,11.673125 C9.33375,12.0036458 9.84635417,12.029375 10.176875,11.7285417 L10.176875,11.7285417 Z" id="路径" fill="#FFFFFF"></path>
                                    <path d="M9.08833333,11.7285417 C8.75583333,11.4277083 8.73208333,10.9151042 9.03291667,10.5845833 L13.1357292,6.05625 C13.4365625,5.72375 13.9491667,5.7 14.2796875,6.00083333 C14.6121875,6.30166667 14.6359375,6.81427083 14.3351042,7.14479167 L10.2322917,11.673125 C9.93145833,12.0036458 9.41885417,12.029375 9.08833333,11.7285417 L9.08833333,11.7285417 Z" id="路径" fill="#FFFFFF"></path>
                                </g>
                            </g>
                        </g>
                    </g>
                </g>
            </g>
        </g>
    </g>
</svg>