<?xml version="1.0" encoding="UTF-8"?>
<svg width="42px" height="42px" viewBox="0 0 42 42" version="1.1" xmlns="http://www.w3.org/2000/svg" xmlns:xlink="http://www.w3.org/1999/xlink">
    <!-- Generator: Sketch 53.2 (72643) - https://sketchapp.com -->
    <title>椭圆形</title>
    <desc>Created with Sketch.</desc>
    <g id="Page-1" stroke="none" stroke-width="1" fill="none" fill-rule="evenodd">
        <g id="经营分析-多项目估值" transform="translate(-767.000000, -155.000000)">
            <g id="卡片" transform="translate(255.000000, 136.000000)">
                <g id="上月收入" transform="translate(300.000000, 0.000000)">
                    <g id="卡片1">
                        <g id="分组-20" transform="translate(212.000000, 19.000000)">
                            <g id="分组-17">
                                <circle id="椭圆形" fill="#D6EEFF" cx="21" cy="21" r="21"></circle>
                                <g id="w_金币" transform="translate(15.000000, 12.000000)" fill="#0083FF" fill-rule="nonzero">
                                    <path d="M0.529572581,5.76941129 C0.640669355,5.93199194 0.768024194,6.08915323 0.911637097,6.24089516 C1.46170161,6.82347581 2.23937903,7.3166371 3.16879839,7.67973387 C3.48583065,7.80437903 3.82183065,7.91005645 4.17408871,8.00489516 C4.80002419,8.16476613 5.47744355,8.27044355 6.18195968,8.31108871 C6.39602419,8.3246371 6.61550806,8.33005645 6.83770161,8.33005645 C7.05989516,8.33005645 7.27937903,8.3246371 7.49344355,8.31108871 C8.19795968,8.27044355 8.87537903,8.16476613 9.50131452,8.00489516 C9.85357258,7.91276613 10.1895726,7.80437903 10.5066048,7.67973387 C11.4360242,7.31934677 12.2109919,6.82347581 12.7637661,6.24089516 C12.907379,6.0918629 13.0347339,5.93199194 13.1458306,5.76941129 C13.2623468,5.59870161 13.3626048,5.42257258 13.4411855,5.24102419 C13.5902177,4.90231452 13.6715081,4.5446371 13.6715081,4.17341129 C13.6715081,1.87831452 10.6122823,0.016766129 6.84041129,0.016766129 C3.06854032,0.016766129 0.00931451613,1.87831452 0.00931451613,4.17341129 C0.00931451613,4.54192742 0.0878951613,4.89960484 0.239637097,5.24102419 C0.312798387,5.42257258 0.413056452,5.59870161 0.529572581,5.76941129 Z M6.83770161,13.6518629 C4.06841129,13.6518629 1.67034677,12.760379 0.236927419,11.3784435 C0.0878951613,11.7198629 0.00660483871,12.0775403 0.00660483871,12.4487661 C0.00660483871,14.7438629 3.06583065,16.6054113 6.83770161,16.6054113 C10.6095726,16.6054113 13.6687984,14.7465726 13.6687984,12.4487661 C13.6687984,12.08025 13.5902177,11.7225726 13.4384758,11.3784435 C12.0050565,12.760379 9.60699194,13.6518629 6.83770161,13.6518629 L6.83770161,13.6518629 Z" id="形状"></path>
                                    <path d="M11.9644113,8.30837903 C11.7557661,8.42218548 11.5362823,8.53057258 11.3086694,8.63083065 C11.05125,8.7446371 10.7829919,8.84760484 10.5066048,8.93973387 C9.41189516,9.30825 8.16815323,9.51418548 6.83770161,9.51418548 C5.50725,9.51418548 4.26350806,9.30825 3.16879839,8.93973387 C2.89241129,8.84760484 2.62415323,8.74734677 2.36673387,8.63083065 C2.13912097,8.53328226 1.9196371,8.42218548 1.71099194,8.30837903 C1.14737903,7.99947581 0.648798387,7.64179839 0.234217742,7.23805645 C0.0848484825,7.57515502 0.00733129996,7.93967035 0.00660483871,8.30837903 C0.00660483871,8.67689516 0.0851854839,9.03457258 0.236927419,9.37870161 C0.312798387,9.56025 0.415766129,9.73637903 0.532282258,9.90708871 C0.643379032,10.0696694 0.770733871,10.2268306 0.914346774,10.3785726 C2.09305645,11.6277339 4.30415323,12.4677339 6.84041129,12.4677339 C9.37666935,12.4677339 11.5877661,11.6277339 12.7664758,10.3785726 C12.9100887,10.2295403 13.0374435,10.0696694 13.1485403,9.90708871 C13.2650565,9.73637903 13.3653145,9.56025 13.4438952,9.37870161 C13.5929274,9.03728226 13.6742177,8.67960484 13.6742177,8.30837903 C13.6742177,7.9398629 13.5956371,7.58218548 13.4466048,7.23805645 C13.0266048,7.64179839 12.5280242,7.99947581 11.9644113,8.30837903 L11.9644113,8.30837903 Z" id="路径"></path>
                                </g>
                            </g>
                        </g>
                    </g>
                </g>
            </g>
        </g>
    </g>
</svg>