<?xml version="1.0" encoding="UTF-8"?>
<svg width="42px" height="42px" viewBox="0 0 42 42" version="1.1" xmlns="http://www.w3.org/2000/svg" xmlns:xlink="http://www.w3.org/1999/xlink">
    <!-- Generator: Sketch 53.2 (72643) - https://sketchapp.com -->
    <title>分组 21</title>
    <desc>Created with Sketch.</desc>
    <g id="Page-1" stroke="none" stroke-width="1" fill="none" fill-rule="evenodd">
        <g id="经营分析-多项目估值" transform="translate(-1067.000000, -155.000000)">
            <g id="卡片" transform="translate(255.000000, 136.000000)">
                <g id="上月支出" transform="translate(600.000000, 0.000000)">
                    <g id="卡片1">
                        <g id="分组-22" transform="translate(212.000000, 19.000000)">
                            <g id="分组-21">
                                <circle id="椭圆形" fill="#FFF6D6" cx="21" cy="21" r="21"></circle>
                                <g id="本月支出" transform="translate(12.000000, 12.000000)" fill="#FFBA00" fill-rule="nonzero">
                                    <path d="M8.32692857,8.75892857 L6.57835714,8.75892857 C6.34178571,8.75892857 6.13607143,8.95435714 6.13607143,9.19092857 C6.13607143,9.4275 6.3315,9.63321429 6.57835714,9.63321429 L8.32692857,9.63321429 L8.32692857,10.9497857 L6.57835714,10.9497857 C6.34178571,10.9497857 6.13607143,11.1452143 6.13607143,11.3817857 C6.13607143,11.6183571 6.3315,11.8240714 6.57835714,11.8240714 L8.32692857,11.8240714 L8.32692857,13.5726429 C8.32692857,13.8092143 8.52235714,14.0046429 8.76921429,14.0046429 C9.00578571,14.0046429 9.20121429,13.8092143 9.20121429,13.5726429 L9.20121429,11.8240714 L10.9497857,11.8240714 C11.1863571,11.8240714 11.3817857,11.6286429 11.3817857,11.3817857 C11.3817857,11.1452143 11.1863571,10.9497857 10.9497857,10.9497857 L9.20121429,10.9497857 L9.20121429,9.63321429 L10.9497857,9.63321429 C11.1863571,9.63321429 11.3817857,9.43778571 11.3817857,9.19092857 C11.3817857,8.95435714 11.1863571,8.75892857 10.9497857,8.75892857 L8.32692857,8.75892857 Z M8.32692857,1.98064286 L7.66864286,1.98064286 C7.43207143,1.98064286 7.23664286,2.17607143 7.23664286,2.42292857 C7.23664286,2.6595 7.43207143,2.85492857 7.66864286,2.85492857 L9.14978571,2.85492857 L9.1395,2.85492857 C9.1395,3.0915 8.90292857,2.85492857 9.1395,2.85492857 C9.37607143,2.85492857 9.20121429,3.74978571 9.20121429,3.50292857 L9.09835714,2.84464286 L9.8595,2.84464286 C10.0960714,2.84464286 10.2915,2.64921429 10.2915,2.40235714 C10.2915,2.16578571 10.0960714,1.97035714 9.8595,1.97035714 L9.20121429,1.97035714 L8.32692857,1.98064286 Z M11.9166429,4.82978571 C12.2869286,4.2435 12.4823571,3.55435714 12.4823571,2.86521429 C12.4823571,2.00121429 12.1840714,1.16807143 11.6389286,0.509785714 C15.0435,1.68235714 17.5017857,4.93264286 17.5017857,8.75892857 C17.5017857,13.5829286 13.5829286,17.5017857 8.75892857,17.5017857 C3.93492857,17.5017857 0.0160714286,13.5829286 0.0160714286,8.75892857 C0.0160714286,4.93264286 2.47435714,1.68235714 5.88921429,0.4995 C5.34407143,1.16807143 5.04578571,2.00121429 5.04578571,2.85492857 C5.04578571,3.57492857 5.2515,4.25378571 5.6115,4.8195 L5.26178571,4.8195 C5.02521429,4.8195 4.8195,5.01492857 4.8195,5.26178571 C4.8195,5.49835714 5.01492857,5.70407143 5.26178571,5.70407143 L12.2560714,5.70407143 C12.4926429,5.70407143 12.6880714,5.50864286 12.6880714,5.26178571 C12.6880714,5.02521429 12.4926429,4.8195 12.2560714,4.8195 L11.9166429,4.82978571 Z M10.8057857,4.82978571 L6.71207143,4.82978571 C6.21835714,4.3155 5.90978571,3.62635714 5.90978571,2.86521429 C5.92007143,1.2915 7.18521429,0.0160714286 8.75892857,0.0160714286 C10.3326429,0.0160714286 11.5977857,1.2915 11.5977857,2.85492857 C11.5977857,3.61607143 11.2995,4.3155 10.8057857,4.82978571 L10.8057857,4.82978571 Z M8.10064286,7.88464286 C8.10064286,7.64807143 7.90521429,7.44235714 7.65835714,7.44235714 C7.4115,7.44235714 7.21607143,7.63778571 7.21607143,7.88464286 L7.21607143,8.75892857 L8.09035714,8.75892857 L8.09035714,7.88464286 L8.10064286,7.88464286 Z M10.2915,7.88464286 C10.2915,7.64807143 10.0960714,7.44235714 9.8595,7.44235714 C9.62292857,7.44235714 9.41721429,7.63778571 9.41721429,7.88464286 L9.41721429,8.75892857 L10.2915,8.75892857 L10.2915,7.88464286 Z" id="形状"></path>
                                </g>
                            </g>
                        </g>
                    </g>
                </g>
            </g>
        </g>
    </g>
</svg>