<?xml version="1.0" encoding="UTF-8"?>
<svg width="16px" height="16px" viewBox="0 0 16 16" version="1.1" xmlns="http://www.w3.org/2000/svg" xmlns:xlink="http://www.w3.org/1999/xlink">
    <!-- Generator: Sketch 53.2 (72643) - https://sketchapp.com -->
    <title>形状</title>
    <desc>Created with Sketch.</desc>
    <defs>
        <rect id="path-1" x="0" y="0" width="280" height="174" rx="3"></rect>
        <filter x="-3.9%" y="-4.0%" width="107.9%" height="112.6%" filterUnits="objectBoundingBox" id="filter-2">
            <feOffset dx="0" dy="4" in="SourceAlpha" result="shadowOffsetOuter1"></feOffset>
            <feGaussianBlur stdDeviation="3" in="shadowOffsetOuter1" result="shadowBlurOuter1"></feGaussianBlur>
            <feColorMatrix values="0 0 0 0 0.94885077   0 0 0 0 0.946102574   0 0 0 0 0.946102574  0 0 0 0.5 0" type="matrix" in="shadowBlurOuter1"></feColorMatrix>
        </filter>
    </defs>
    <g id="Page-1" stroke="none" stroke-width="1" fill="none" fill-rule="evenodd">
        <g id="经营分析-多项目估值" transform="translate(-370.000000, -163.000000)">
            <rect fill="#F7F7F7" x="0" y="0" width="1440" height="3554"></rect>
            <g id="卡片" transform="translate(255.000000, 136.000000)">
                <g id="总项目">
                    <g id="矩形">
                        <use fill="black" fill-opacity="1" filter="url(#filter-2)" xlink:href="#path-1"></use>
                        <use fill="#FFFFFF" fill-rule="evenodd" xlink:href="#path-1"></use>
                    </g>
                </g>
            </g>
            <g id="分组-26" transform="translate(370.000000, 163.000000)" fill="#666666" fill-rule="nonzero">
                <path d="M7.99822426,15.9999999 C3.58013132,15.9990193 -0.000719015149,12.4167909 1.08294381e-07,7.9986979 C0.000719231738,3.58060486 3.58273552,-0.000457572578 8.00082855,0 C12.4189216,0.000457572578 16.000196,3.5822619 16,8.00035499 C15.9997174,10.1222753 15.1565169,12.1571751 13.6558929,13.6573995 C12.1552688,15.157624 10.1201446,16.0002825 7.99822426,15.9999999 Z M7.9875699,1.43336567 C4.36706862,1.43434638 1.43268409,4.36979095 1.433011,7.9902924 C1.43333791,11.6107938 4.36825249,14.5457084 7.9887539,14.5460353 C11.6092553,14.5463622 14.5446998,11.6119777 14.5456805,7.99147636 C14.5459632,6.25213217 13.8551609,4.58394066 12.6252921,3.35400526 C11.3954233,2.12406987 9.72726925,1.43317723 7.98792506,1.43336567 L7.9875699,1.43336567 Z M7.2719524,6.54745609 L8.72804758,6.54745609 L8.72804758,12.364734 L7.2719524,12.364734 L7.2719524,6.54745609 L7.2719524,6.54745609 Z M7.2719524,3.63881716 L8.72804758,3.63881716 L8.72804758,5.09491236 L7.2719524,5.09491236 L7.2719524,3.63881716 L7.2719524,3.63881716 Z" id="形状"></path>
            </g>
        </g>
    </g>
</svg>