<?xml version="1.0" encoding="UTF-8"?>
<svg width="12px" height="12px" viewBox="0 0 12 12" version="1.1" xmlns="http://www.w3.org/2000/svg" xmlns:xlink="http://www.w3.org/1999/xlink">
    <!-- Generator: Sketch 53.2 (72643) - https://sketchapp.com -->
    <title>警告</title>
    <desc>Created with Sketch.</desc>
    <g id="Page-1" stroke="none" stroke-width="1" fill="none" fill-rule="evenodd">
        <g id="销售额录入" transform="translate(-299.000000, -234.000000)">
            <g id="分组-9" transform="translate(255.000000, 145.000000)">
                <g id="分组-4" transform="translate(20.000000, 75.000000)">
                    <rect id="矩形" fill="#F7F3FE" x="0" y="0" width="1122" height="40"></rect>
                    <g id="警告" transform="translate(24.000000, 14.000000)" fill="#F5A623" fill-rule="nonzero">
                        <path d="M5.71838584,0.00475209375 C2.56258947,0.00475209375 0.0043879375,2.56301759 0.0043879375,5.71875 C0.0043879375,8.87448241 2.56265344,11.4327479 5.71838584,11.4327479 C8.87411825,11.4327479 11.4323837,8.87448241 11.4323837,5.71875 C11.4323837,2.56301759 8.8741822,0.00475209375 5.71838584,0.00475209375 L5.71838584,0.00475209375 Z M5.24202081,2.86174305 C5.24202081,2.59880133 5.45501241,2.38556989 5.71819397,2.38556989 C5.98139152,2.38556989 6.19431916,2.59880131 6.19431916,2.86174305 L6.19431916,6.24770336 C6.19431916,6.51064508 5.98139152,6.72387652 5.71819397,6.72387652 C5.45501241,6.72387652 5.24202081,6.51064509 5.24202081,6.24770336 L5.24202081,2.86174305 L5.24202081,2.86174305 Z M5.71838584,8.57574095 C5.34863653,8.57574095 5.04890375,8.27607213 5.04890375,7.90632281 C5.04890375,7.5365735 5.34863653,7.23684072 5.71838584,7.23684072 C6.08813516,7.23684072 6.38786794,7.5365735 6.38786794,7.90632281 C6.38786794,8.27600817 6.08813516,8.57574095 5.71838584,8.57574095 L5.71838584,8.57574095 Z" id="形状"></path>
                    </g>
                </g>
            </g>
        </g>
    </g>
</svg>