<?xml version="1.0" encoding="UTF-8"?>
<svg width="24px" height="24px" viewBox="0 0 24 24" version="1.1" xmlns="http://www.w3.org/2000/svg" xmlns:xlink="http://www.w3.org/1999/xlink">
    <!-- Generator: Sketch 53.2 (72643) - https://sketchapp.com -->
    <title>分组 29</title>
    <desc>Created with Sketch.</desc>
    <g id="Page-1" stroke="none" stroke-width="1" fill="none" fill-rule="evenodd">
        <g id="经营分析" transform="translate(-568.000000, -602.000000)">
            <g id="预算、支出、指标" transform="translate(259.000000, 507.000000)">
                <g id="收入趋势-copy" transform="translate(0.000000, 20.000000)">
                    <g id="分组-18" transform="translate(24.000000, 61.000000)">
                        <g id="分组-40-copy-7" transform="translate(270.000000, 0.000000)">
                            <g id="分组-30" transform="translate(15.000000, 14.000000)">
                                <g id="分组-29">
                                    <path d="M11.3865048,-2.54696798e-16 L12.6134952,2.54696798e-16 C15.3515835,-2.48281853e-16 17.2545989,0.464128056 18.8842285,1.33566352 C20.5138581,2.20719898 21.792801,3.48614185 22.6643365,5.11577148 C23.5358719,6.74540111 24,8.64841654 24,11.3865048 L24,12.6134952 C24,15.3515835 23.5358719,17.2545989 22.6643365,18.8842285 C21.792801,20.5138581 20.5138581,21.792801 18.8842285,22.6643365 C17.2545989,23.5358719 15.3515835,24 12.6134952,24 L11.3865048,24 C8.64841654,24 6.74540111,23.5358719 5.11577148,22.6643365 C3.48614185,21.792801 2.20719898,20.5138581 1.33566352,18.8842285 C0.464128056,17.2545989 1.65521235e-16,15.3515835 -1.69797865e-16,12.6134952 L1.69797865e-16,11.3865048 C-1.65521235e-16,8.64841654 0.464128056,6.74540111 1.33566352,5.11577148 C2.20719898,3.48614185 3.48614185,2.20719898 5.11577148,1.33566352 C6.74540111,0.464128056 8.64841654,2.48281853e-16 11.3865048,-2.54696798e-16 Z" id="矩形" fill="#847DFF"></path>
                                    <g id="钱包" transform="translate(7.000000, 7.000000)" fill="#FFFFFF" fill-rule="nonzero">
                                        <path d="M9.77261607,10.1957232 L1.2296183,10.1957232 C0.55855692,10.1957232 0.0144620536,9.65167746 0.0144620536,8.98064063 L0.0144620536,2.50455022 L0.0107912946,2.50695647 C0.0107912946,2.50695647 0.0119207589,2.23788616 0.0129888393,1.92705022 C0.0127924107,1.89222098 0.0127924107,1.86046094 0.0133080357,1.83168415 C0.0141551339,1.5764375 0.0148794643,1.30898772 0.0148794643,1.14800223 C0.0148794643,0.56061942 0.456991071,0.00600334821 1.11458482,0.00600334821 L7.85617299,0.00600334821 C8.44356808,0.00600334821 9.0535279,0.394833705 9.0535279,1.14800223 C9.0535279,1.30448214 9.05462054,1.43698549 9.05168638,1.54940402 L9.77262835,1.54940402 C10.443702,1.54940402 10.9877969,2.09344978 10.9877969,2.76444978 L10.9877969,8.9806529 C10.9877969,9.65167746 10.443702,10.1957232 9.77261607,10.1957232 Z M8.2872846,1.14695871 C8.2872846,0.927020089 8.10773661,0.748601563 7.85617299,0.748601563 L1.20054687,0.748601563 C0.948958705,0.748601563 0.769410714,0.927032366 0.769410714,1.14695871 C0.769410714,1.36686049 0.948958705,1.54530357 1.20054687,1.54530357 L8.2872846,1.54530357 L8.2872846,1.14695871 L8.2872846,1.14695871 Z M10.2205592,5.08079688 L7.07212835,5.08079688 L7.07212835,6.65199219 L10.2205592,6.65199219 L10.2205592,5.08079688 Z M10.2205592,7.43143304 L6.90019196,7.43143304 C6.56465513,7.43143304 6.29262612,7.21832031 6.29262612,6.65200446 L6.29262612,4.90888504 C6.29262612,4.57342187 6.56465513,4.30139286 6.90019196,4.30139286 L10.2205592,4.30139286 L10.2205592,2.93636161 C10.2205592,2.60084933 9.94851786,2.32882031 9.61296875,2.32882031 L0.781699777,2.32882031 L0.781699777,8.80872879 C0.781699777,9.14424107 1.05374107,9.41625781 1.3892779,9.41625781 L9.61296875,9.41625781 C9.94851786,9.41625781 10.2205592,9.14424107 10.2205592,8.80872879 L10.2205592,7.43143304 Z" id="形状"></path>
                                    </g>
                                </g>
                            </g>
                        </g>
                    </g>
                </g>
            </g>
        </g>
    </g>
</svg>