<?xml version="1.0" encoding="UTF-8"?>
<svg width="24px" height="24px" viewBox="0 0 24 24" version="1.1" xmlns="http://www.w3.org/2000/svg" xmlns:xlink="http://www.w3.org/1999/xlink">
    <!-- Generator: Sketch 53.2 (72643) - https://sketchapp.com -->
    <title>分组 27</title>
    <desc>Created with Sketch.</desc>
    <g id="Page-1" stroke="none" stroke-width="1" fill="none" fill-rule="evenodd">
        <g id="经营分析" transform="translate(-298.000000, -602.000000)">
            <g id="预算、支出、指标" transform="translate(259.000000, 507.000000)">
                <g id="收入趋势-copy" transform="translate(0.000000, 20.000000)">
                    <g id="分组-18" transform="translate(24.000000, 61.000000)">
                        <g id="分组-40-copy-8">
                            <g id="分组-28" transform="translate(15.000000, 14.000000)">
                                <g id="分组-27">
                                    <path d="M11.3865048,-2.54696798e-16 L12.6134952,2.54696798e-16 C15.3515835,-2.48281853e-16 17.2545989,0.464128056 18.8842285,1.33566352 C20.5138581,2.20719898 21.792801,3.48614185 22.6643365,5.11577148 C23.5358719,6.74540111 24,8.64841654 24,11.3865048 L24,12.6134952 C24,15.3515835 23.5358719,17.2545989 22.6643365,18.8842285 C21.792801,20.5138581 20.5138581,21.792801 18.8842285,22.6643365 C17.2545989,23.5358719 15.3515835,24 12.6134952,24 L11.3865048,24 C8.64841654,24 6.74540111,23.5358719 5.11577148,22.6643365 C3.48614185,21.792801 2.20719898,20.5138581 1.33566352,18.8842285 C0.464128056,17.2545989 1.65521235e-16,15.3515835 -1.69797865e-16,12.6134952 L1.69797865e-16,11.3865048 C-1.65521235e-16,8.64841654 0.464128056,6.74540111 1.33566352,5.11577148 C2.20719898,3.48614185 3.48614185,2.20719898 5.11577148,1.33566352 C6.74540111,0.464128056 8.64841654,2.48281853e-16 11.3865048,-2.54696798e-16 Z" id="矩形" fill="#FFA52F"></path>
                                    <g id="金币-(1)" transform="translate(5.000000, 5.000000)" fill="#FFFFFF" fill-rule="nonzero">
                                        <path d="M14.1937813,6.76206975 C14.1937813,5.61367941 12.3434286,4.74203397 9.88908512,4.74203397 C9.46096292,4.74354509 9.0334295,4.77391448 8.60939245,4.83293559 L8.60939245,2.02508585 C8.60939245,0.876695524 6.75903969,0.00505008064 4.30469623,0.00505009316 C1.85035277,0.00505010567 0,0.86659535 0,2.02508585 L0,8.06499282 C0,9.21338315 1.85035277,10.0850286 4.30469623,10.0850286 C4.73292798,10.0869105 5.16079934,10.0599155 5.5853989,10.0042272 L5.5853989,10.7940611 C5.5853989,11.9424515 7.43575167,12.8140969 9.89009514,12.8140969 C12.3444386,12.8140969 14.1947914,11.9475016 14.1947914,10.7940611 L14.1947914,6.76206975 L14.1937813,6.76206975 Z M8.9729989,5.42379605 C9.27496937,5.39213456 9.57838921,5.37628931 9.88201499,5.37632521 C11.9929524,5.37632521 13.5645402,6.10757816 13.5645402,6.76206975 C13.5645402,7.41656133 11.9929524,8.14781428 9.89009514,8.14781428 C9.58708978,8.14781428 9.30428477,8.13266401 9.03056992,8.10539354 C7.37313057,7.94076062 6.21565007,7.3236397 6.21565007,6.76206975 C6.21686828,6.68677313 6.23553801,6.6127857 6.27019104,6.54592591 C6.51259533,6.05303718 7.55493378,5.57327869 8.9729989,5.42379605 L8.9729989,5.42379605 Z M9.06895059,10.110279 C7.39030087,9.95170622 6.21464005,9.32852519 6.21464005,8.76392519 L6.21464005,7.83874881 C6.82065078,8.30436705 7.83066867,8.63363288 9.04269013,8.73867475 C9.31539496,8.76190516 9.59819996,8.77503539 9.89009514,8.77503539 C11.4839034,8.77503539 12.819147,8.40940891 13.5645402,7.83874881 L13.5645402,8.76392519 C13.5645402,9.42043682 11.9929524,10.1516898 9.89009514,10.1516898 C9.60628011,10.1486597 9.33155525,10.1345195 9.06895059,10.105229 L9.06895059,10.110279 Z M4.30469623,0.635301251 C6.40755346,0.635301251 7.9791413,1.3665542 7.9791413,2.02508585 C7.9791413,2.68361751 6.40755346,3.40578031 4.30469623,3.40578031 C2.20183899,3.40578031 0.630251158,2.67452736 0.630251158,2.02508585 C0.630251158,1.37564435 2.20587906,0.635301251 4.30469623,0.635301251 Z M5.5853989,8.77099532 L5.5853989,9.35983575 C5.16139802,9.42236039 4.73327766,9.45274748 4.30469623,9.45073735 C2.20587906,9.45073735 0.630251158,8.72150444 0.630251158,8.06802288 L0.630251158,7.12365614 C1.37362433,7.69431624 2.710888,8.06499282 4.30469623,8.06499282 C4.73292798,8.06687477 5.16079934,8.03987974 5.5853989,7.98419139 L5.5853989,8.77099532 Z M5.5853989,6.76610982 L5.5853989,7.33979997 C5.16150106,7.40368056 4.73337985,7.43541826 4.30469623,7.43474166 C2.20688908,7.43474166 0.631261182,6.69843862 0.631261182,6.04495704 L0.631261182,5.10463039 C1.37463435,5.67428048 2.71189802,6.04495704 4.30570625,6.04495704 C4.86657164,6.04703464 5.42644589,5.99767374 5.97829587,5.89749443 C5.73693082,6.12328982 5.59522391,6.43577174 5.58438889,6.76610982 L5.5853989,6.76610982 Z M4.30469623,5.41066582 C2.20183899,5.41066582 0.630251158,4.67840285 0.630251158,4.02492127 L0.630251158,3.09974489 C1.37362433,3.66939498 2.710888,4.03502144 4.30469623,4.03502145 C5.89850445,4.03502147 7.23374809,3.66939498 7.9791413,3.09873487 L7.9791413,4.02492127 C7.9791413,4.67840285 6.40755346,5.4106658 4.30469623,5.41066582 Z M13.5665602,10.788001 C13.5665602,11.4404726 11.9929524,12.1717255 9.89009514,12.1717255 C7.78723791,12.1717255 6.21565007,11.4404726 6.21565007,10.785981 L6.21565007,9.88302501 L6.25605078,9.87393485 C7.00649408,10.4274247 8.32557743,10.7829509 9.89211518,10.7829509 C11.4859234,10.7829509 12.821167,10.4173245 13.5665602,9.84666436 L13.5665602,10.788001 Z" id="形状"></path>
                                    </g>
                                </g>
                            </g>
                        </g>
                    </g>
                </g>
            </g>
        </g>
    </g>
</svg>