<?xml version="1.0" encoding="UTF-8"?>
<svg width="24px" height="24px" viewBox="0 0 24 24" version="1.1" xmlns="http://www.w3.org/2000/svg" xmlns:xlink="http://www.w3.org/1999/xlink">
    <!-- Generator: Sketch 53.2 (72643) - https://sketchapp.com -->
    <title>分组 31</title>
    <desc>Created with Sketch.</desc>
    <g id="Page-1" stroke="none" stroke-width="1" fill="none" fill-rule="evenodd">
        <g id="经营分析" transform="translate(-838.000000, -602.000000)">
            <g id="预算、支出、指标" transform="translate(259.000000, 507.000000)">
                <g id="收入趋势-copy" transform="translate(0.000000, 20.000000)">
                    <g id="分组-18" transform="translate(24.000000, 61.000000)">
                        <g id="分组-40-copy-2" transform="translate(540.000000, 0.000000)">
                            <g id="分组-34" transform="translate(15.000000, 14.000000)">
                                <g id="分组-31">
                                    <path d="M11.3865048,-2.54696798e-16 L12.6134952,2.54696798e-16 C15.3515835,-2.48281853e-16 17.2545989,0.464128056 18.8842285,1.33566352 C20.5138581,2.20719898 21.792801,3.48614185 22.6643365,5.11577148 C23.5358719,6.74540111 24,8.64841654 24,11.3865048 L24,12.6134952 C24,15.3515835 23.5358719,17.2545989 22.6643365,18.8842285 C21.792801,20.5138581 20.5138581,21.792801 18.8842285,22.6643365 C17.2545989,23.5358719 15.3515835,24 12.6134952,24 L11.3865048,24 C8.64841654,24 6.74540111,23.5358719 5.11577148,22.6643365 C3.48614185,21.792801 2.20719898,20.5138581 1.33566352,18.8842285 C0.464128056,17.2545989 1.65521235e-16,15.3515835 -1.69797865e-16,12.6134952 L1.69797865e-16,11.3865048 C-1.65521235e-16,8.64841654 0.464128056,6.74540111 1.33566352,5.11577148 C2.20719898,3.48614185 3.48614185,2.20719898 5.11577148,1.33566352 C6.74540111,0.464128056 8.64841654,2.48281853e-16 11.3865048,-2.54696798e-16 Z" id="矩形" fill="#00C998"></path>
                                    <g id="估值-(1)" transform="translate(7.000000, 7.000000)" fill="#FFFFFF" fill-rule="nonzero">
                                        <path d="M1.22841592,0.00319069468 L9.39658408,0.00319069468 C10.0732573,0.00319069468 10.6218093,0.551742713 10.6218093,1.22841592 L10.6218093,9.39658408 C10.6218093,10.0732573 10.0732573,10.6218093 9.39658408,10.6218093 L1.22841592,10.6218093 C0.551742713,10.6218093 0.00319069468,10.0732573 0.00319069468,9.39658408 L0.00319069468,1.22841592 C0.00319069468,0.551742713 0.551742713,0.00319069468 1.22841592,0.00319069468 Z M1.22841592,0.820007504 C1.12009927,0.8200075 1.01621899,0.86303612 0.939627556,0.939627556 C0.86303612,1.01621899 0.8200075,1.12009927 0.820007504,1.22841592 L0.820007504,9.39658408 C0.8200075,9.50490073 0.86303612,9.60878101 0.939627556,9.68537244 C1.01621899,9.76196388 1.12009927,9.8049925 1.22841592,9.8049925 L9.39658408,9.8049925 C9.50490073,9.8049925 9.60878101,9.76196388 9.68537244,9.68537244 C9.76196388,9.60878101 9.8049925,9.50490073 9.8049925,9.39658408 L9.8049925,1.22841592 C9.8049925,1.12009927 9.76196388,1.01621899 9.68537244,0.939627556 C9.60878101,0.86303612 9.50490073,0.8200075 9.39658408,0.820007504 L1.22841592,0.820007504 Z" id="形状"></path>
                                        <path d="M2.86204955,4.9040916 L2.86204955,4.08727477 C2.86204955,3.86171704 3.04490022,3.67886636 3.27045796,3.67886636 C3.4960157,3.67886636 3.67886637,3.86171704 3.67886637,4.08727477 L3.67886637,4.9040916 L4.49568318,4.9040916 C4.72124091,4.90409161 4.90409157,5.08694227 4.90409157,5.3125 C4.90409157,5.53805773 4.72124091,5.72090839 4.49568318,5.7209084 L3.67886637,5.7209084 L3.67886637,6.53772523 C3.67886637,6.76328296 3.4960157,6.94613364 3.27045796,6.94613364 C3.04490022,6.94613364 2.86204955,6.76328296 2.86204955,6.53772523 L2.86204955,5.7209084 L2.04523273,5.7209084 C1.819675,5.72090839 1.63682434,5.53805773 1.63682434,5.3125 C1.63682434,5.08694227 1.819675,4.90409161 2.04523273,4.9040916 L2.86204955,4.9040916 L2.86204955,4.9040916 Z M6.12931682,5.7209084 C5.90375909,5.72090839 5.72090843,5.53805773 5.72090843,5.3125 C5.72090843,5.08694227 5.90375909,4.90409161 6.12931682,4.9040916 L8.57976727,4.9040916 C8.805325,4.9040916 8.98817568,5.08694227 8.98817568,5.3125 C8.98817568,5.53805773 8.805325,5.7209084 8.57976727,5.7209084 L6.12931682,5.7209084 L6.12931682,5.7209084 Z" id="形状"></path>
                                    </g>
                                </g>
                            </g>
                        </g>
                    </g>
                </g>
            </g>
        </g>
    </g>
</svg>